<svg xmlns="http://www.w3.org/2000/svg" xmlns:xlink="http://www.w3.org/1999/xlink" viewBox="0 0 1600 1200"><defs><linearGradient id="l" x1="1173.05" x2="1236.98" y1="814.72" y2="814.72" gradientUnits="userSpaceOnUse"><stop offset="0" stop-color="#c4cae9"/><stop offset=".19" stop-color="#d2d6ee"/><stop offset=".71" stop-color="#f3f4fa"/><stop offset="1" stop-color="#fff"/></linearGradient><linearGradient id="m" x1="745.48" x2="800.93" y1="925.65" y2="925.65" gradientUnits="userSpaceOnUse"><stop offset=".43" stop-color="#c4c9e4"/><stop offset=".58" stop-color="#d7daed"/><stop offset=".85" stop-color="#f4f5fa"/><stop offset="1" stop-color="#fff"/></linearGradient><linearGradient id="n" x1="733.26" x2="788.73" y1="928.93" y2="928.93" gradientUnits="userSpaceOnUse"><stop offset="0" stop-color="#ffd03e"/><stop offset=".37" stop-color="#f1b322"/><stop offset=".76" stop-color="#e59a09"/><stop offset="1" stop-color="#e19100"/></linearGradient><linearGradient id="o" x1="1116.46" x2="1201.27" y1="963.69" y2="963.69" gradientUnits="userSpaceOnUse"><stop offset="0" stop-color="#c4c9e4"/><stop offset="1" stop-color="#fff"/></linearGradient><linearGradient id="a" x1="1099.5" x2="1176.47" y1="956.41" y2="956.41" gradientUnits="userSpaceOnUse"><stop offset="0" stop-color="#807cfb"/><stop offset=".01" stop-color="#7f7bfa"/><stop offset=".45" stop-color="#5e5ad1"/><stop offset=".79" stop-color="#4a46b8"/><stop offset="1" stop-color="#423eaf"/></linearGradient><linearGradient id="p" x1="1099.5" x2="1176.47" y1="963.76" y2="963.76" gradientUnits="userSpaceOnUse"><stop offset="0" stop-color="#d8def0"/><stop offset=".55" stop-color="#c6cce7"/><stop offset="1" stop-color="#bdc3e3"/></linearGradient><linearGradient id="q" x1="1099.5" x2="1176.47" y1="971.1" y2="971.1" xlink:href="#a"/><linearGradient id="r" x1="759.93" x2="964.59" y1="1044.06" y2="1044.06" gradientUnits="userSpaceOnUse"><stop offset="0" stop-color="#ced3f8"/><stop offset=".29" stop-color="#d7dbf9"/><stop offset=".75" stop-color="#eff1fd"/><stop offset="1" stop-color="#fff"/></linearGradient><linearGradient id="s" x1="935.89" x2="945.87" y1="979.6" y2="996.15" gradientUnits="userSpaceOnUse"><stop offset="0" stop-color="#423eaf"/><stop offset="1" stop-color="#20196f"/></linearGradient><linearGradient id="t" x1="770.78" x2="761.41" y1="1095.37" y2="1078.94" gradientUnits="userSpaceOnUse"><stop offset="0" stop-color="#bbc0e6"/><stop offset=".05" stop-color="#bfc4e7"/><stop offset=".43" stop-color="#dddff2"/><stop offset=".76" stop-color="#eff0f9"/><stop offset="1" stop-color="#f6f6fb"/></linearGradient><linearGradient id="u" x1="755.08" x2="751.13" y1="1098.17" y2="1093.07" gradientUnits="userSpaceOnUse"><stop offset="0" stop-color="#20196f"/><stop offset="1" stop-color="#5652cc"/></linearGradient><linearGradient id="v" x1="930.84" x2="919.9" y1="1004.6" y2="986.21" gradientUnits="userSpaceOnUse"><stop offset=".07" stop-color="#bdc3e3"/><stop offset=".14" stop-color="#d8def0"/><stop offset=".56" stop-color="#d8def0"/><stop offset=".69" stop-color="#e9edf6"/></linearGradient><linearGradient id="b" x1="924.96" x2="911.36" y1="1008.78" y2="991.5" gradientUnits="userSpaceOnUse"><stop offset=".56" stop-color="#d8def0"/><stop offset=".69" stop-color="#e9edf6"/></linearGradient><linearGradient id="w" x1="927.62" x2="914.02" y1="1007.25" y2="989.97" xlink:href="#b"/><linearGradient id="x" x1="930.28" x2="916.68" y1="1005.71" y2="988.43" xlink:href="#b"/><linearGradient id="y" x1="396.74" x2="498.63" y1="1019.69" y2="1019.69" gradientUnits="userSpaceOnUse"><stop offset=".37" stop-color="#c4c9e4"/><stop offset="1" stop-color="#fff"/></linearGradient><linearGradient id="c" x1="375.44" x2="475.23" y1="1027.66" y2="1027.66" gradientUnits="userSpaceOnUse"><stop offset="0" stop-color="#fcba06"/><stop offset="1" stop-color="#e19100"/></linearGradient><linearGradient id="z" x1="409.94" x2="431.84" y1="1016.28" y2="1016.28" xlink:href="#c"/><linearGradient id="A" x1="920.31" x2="1032.72" y1="743.98" y2="743.98" gradientUnits="userSpaceOnUse"><stop offset="0" stop-color="#d1d6f0"/><stop offset=".29" stop-color="#d5daf1"/><stop offset=".59" stop-color="#e2e5f5"/><stop offset=".9" stop-color="#f6f7fc"/><stop offset="1" stop-color="#fff"/></linearGradient><linearGradient id="d" x1="947.67" x2="987.61" y1="728.23" y2="728.23" gradientUnits="userSpaceOnUse"><stop offset="0" stop-color="#bbbfe2"/><stop offset="1" stop-color="#ced2f4"/></linearGradient><linearGradient id="B" x1="1004.07" x2="1015.25" y1="750.07" y2="750.07" gradientUnits="userSpaceOnUse"><stop offset="0" stop-color="#a5acd4"/><stop offset=".63" stop-color="#bec3e7"/><stop offset="1" stop-color="#ced2f4"/></linearGradient><linearGradient id="C" x1="920.31" x2="931.54" y1="750.09" y2="750.09" xlink:href="#d"/><linearGradient id="D" x1="985.4" x2="999.75" y1="760.44" y2="760.44" gradientUnits="userSpaceOnUse"><stop offset="0" stop-color="#a5acd4"/><stop offset=".52" stop-color="#bcc2e6"/><stop offset="1" stop-color="#ced2f4"/></linearGradient><linearGradient id="E" x1="935.95" x2="950.32" y1="760.46" y2="760.46" xlink:href="#d"/><linearGradient id="F" x1="960.09" x2="975.67" y1="764.65" y2="764.65" xlink:href="#d"/><linearGradient id="G" x1="939.34" x2="995.95" y1="722.79" y2="722.79" xlink:href="#d"/><linearGradient id="f" x1="894.11" x2="1005.59" y1="860.87" y2="860.87" gradientTransform="translate(-320.06)" gradientUnits="userSpaceOnUse"><stop offset="0" stop-color="#c2c8e6"/><stop offset=".11" stop-color="#ced3eb"/><stop offset=".42" stop-color="#e9ebf6"/><stop offset=".69" stop-color="#f9fafd"/><stop offset=".9" stop-color="#fff"/></linearGradient><linearGradient id="e" x1="1335.85" x2="1360.1" y1="956.92" y2="943.92" gradientTransform="matrix(.99 -.16 .16 .99 -892.47 133.83)" gradientUnits="userSpaceOnUse"><stop offset="0" stop-color="#1f196e"/><stop offset=".47" stop-color="#312c8d"/><stop offset="1" stop-color="#423eac"/></linearGradient><linearGradient id="H" x1="1313.88" x2="1338.13" y1="965.19" y2="952.2" xlink:href="#e"/><linearGradient id="I" x1="725.19" x2="803.21" y1="679.37" y2="679.37" gradientTransform="matrix(-1 0 0 1 1334.51 0)" gradientUnits="userSpaceOnUse"><stop offset="0" stop-color="#e19100"/><stop offset="1" stop-color="#ffd03e"/></linearGradient><linearGradient id="J" x1="513.56" x2="590.46" y1="576.36" y2="576.36" gradientUnits="userSpaceOnUse"><stop offset="0" stop-color="#20196f"/><stop offset=".27" stop-color="#27207c"/><stop offset=".77" stop-color="#39349d"/><stop offset="1" stop-color="#423eaf"/></linearGradient><linearGradient id="K" x1="1314.7" x2="1314.7" y1="654.47" y2="601.57" gradientTransform="matrix(-1 0 0 1 1876.34 0)" gradientUnits="userSpaceOnUse"><stop offset=".26" stop-color="#fff"/><stop offset="1" stop-color="#d3d8f2"/></linearGradient><linearGradient id="L" x1="570.98" x2="604.88" y1="861.82" y2="861.82" gradientUnits="userSpaceOnUse"><stop offset=".43" stop-color="#ced3f8"/><stop offset=".63" stop-color="#c6cbf0"/><stop offset="1" stop-color="#bbc0e6"/></linearGradient><linearGradient id="M" x1="570.98" x2="604.88" y1="746.07" y2="746.07" gradientUnits="userSpaceOnUse"><stop offset="0" stop-color="#423eaf"/><stop offset=".27" stop-color="#4a46ba"/><stop offset=".57" stop-color="#5652cc"/></linearGradient><linearGradient id="N" x1="710.94" x2="744.84" y1="763.84" y2="763.84" gradientUnits="userSpaceOnUse"><stop offset="0" stop-color="#5652cc"/><stop offset=".27" stop-color="#4e4ac1"/><stop offset=".57" stop-color="#423eaf"/></linearGradient><linearGradient id="O" x1="1229.89" x2="1263.79" y1="657.28" y2="657.28" gradientTransform="matrix(-1 0 0 1 1964.45 0)" gradientUnits="userSpaceOnUse"><stop offset=".43" stop-color="#20196f"/><stop offset=".78" stop-color="#302889"/><stop offset="1" stop-color="#362e94"/></linearGradient><linearGradient id="P" x1="1401.66" x2="1435.56" y1="648.09" y2="648.09" gradientTransform="matrix(-1 0 0 1 2276.19 0)" gradientUnits="userSpaceOnUse"><stop offset="0" stop-color="#362e94"/><stop offset=".22" stop-color="#302889"/><stop offset=".57" stop-color="#20196f"/></linearGradient><linearGradient id="Q" x1="850.91" x2="884.81" y1="550.12" y2="550.12" gradientUnits="userSpaceOnUse"><stop offset="0" stop-color="#e19100"/><stop offset=".2" stop-color="#e89c02"/><stop offset=".56" stop-color="#fbb906"/><stop offset=".57" stop-color="#fcba06"/></linearGradient><linearGradient id="R" x1="990.87" x2="1024.77" y1="567.88" y2="567.88" gradientUnits="userSpaceOnUse"><stop offset=".43" stop-color="#fcba06"/><stop offset=".44" stop-color="#fbb906"/><stop offset=".8" stop-color="#e89c02"/><stop offset="1" stop-color="#e19100"/></linearGradient><linearGradient id="S" x1="1311.96" x2="1422.26" y1="1073.84" y2="1073.84" gradientTransform="translate(-713.57)" xlink:href="#f"/><linearGradient id="g" x1="126.61" x2="164.43" y1="1064.29" y2="1064.29" gradientTransform="translate(472.12)" gradientUnits="userSpaceOnUse"><stop offset="0" stop-color="#34318a"/><stop offset=".24" stop-color="#3e3c99"/><stop offset=".72" stop-color="#5857c2"/><stop offset="1" stop-color="#696add"/></linearGradient><linearGradient id="T" x1="102.8" x2="140.63" y1="1078.02" y2="1078.02" xlink:href="#g"/><linearGradient id="U" x1="1328.55" x2="1409.69" y1="884.65" y2="884.65" gradientTransform="matrix(-1 0 0 1 1984.82 0)" gradientUnits="userSpaceOnUse"><stop offset="0" stop-color="#807dfb"/><stop offset="1" stop-color="#423eaf"/></linearGradient><linearGradient id="V" x1="190.4" x2="244.19" y1="781.48" y2="781.48" gradientTransform="translate(396.1)" gradientUnits="userSpaceOnUse"><stop offset="0" stop-color="#131147"/><stop offset=".2" stop-color="#17144f"/><stop offset=".51" stop-color="#201c65"/><stop offset=".88" stop-color="#302988"/><stop offset="1" stop-color="#362e94"/></linearGradient><linearGradient id="h" x1="1008.95" x2="1096.02" y1="908.77" y2="908.77" gradientTransform="translate(-136.59)" gradientUnits="userSpaceOnUse"><stop offset="0" stop-color="#c4cae9"/><stop offset=".11" stop-color="#ced3ed"/><stop offset=".45" stop-color="#e9ebf7"/><stop offset=".76" stop-color="#f9fafd"/><stop offset="1" stop-color="#fff"/></linearGradient><linearGradient id="W" x1="1019.08" x2="1106.24" y1="879.18" y2="879.18" gradientTransform="translate(-95.39)" xlink:href="#h"/><linearGradient id="i" x1="602.59" x2="643.7" y1="875.25" y2="875.25" gradientTransform="translate(291.78)" gradientUnits="userSpaceOnUse"><stop offset="0" stop-color="#423eaf"/><stop offset=".3" stop-color="#3a35a0"/><stop offset=".89" stop-color="#241e77"/><stop offset="1" stop-color="#20196f"/></linearGradient><linearGradient id="X" x1="551.75" x2="592.86" y1="904.84" y2="904.84" xlink:href="#i"/><linearGradient id="Y" x1="569.6" x2="640.29" y1="806.59" y2="806.59" gradientTransform="translate(291.78)" gradientUnits="userSpaceOnUse"><stop offset="0" stop-color="#423eaf"/><stop offset=".25" stop-color="#3c38a4"/><stop offset=".7" stop-color="#2d2787"/><stop offset="1" stop-color="#20196f"/></linearGradient><linearGradient id="Z" x1="566.87" x2="640.71" y1="679.74" y2="679.74" gradientTransform="translate(291.78)" gradientUnits="userSpaceOnUse"><stop offset="0" stop-color="#ffd03e"/><stop offset=".23" stop-color="#fcca38"/><stop offset=".52" stop-color="#f4ba28"/><stop offset=".86" stop-color="#e89f0e"/><stop offset="1" stop-color="#e19100"/></linearGradient><linearGradient id="aa" x1="835.1" x2="899.27" y1="664.83" y2="679.07" gradientUnits="userSpaceOnUse"><stop offset="0" stop-color="#ffd03e"/><stop offset=".63" stop-color="#eba514"/><stop offset="1" stop-color="#e19100"/></linearGradient><linearGradient id="ab" x1="879.05" x2="908.1" y1="615.01" y2="615.01" gradientUnits="userSpaceOnUse"><stop offset="0" stop-color="#fcba06"/><stop offset=".35" stop-color="#f3ad04"/><stop offset="1" stop-color="#dc8b00"/></linearGradient><linearGradient id="ac" x1="901.19" x2="990.06" y1="502.16" y2="502.16" gradientUnits="userSpaceOnUse"><stop offset=".43" stop-color="#c4cae9"/><stop offset=".56" stop-color="#cbd0eb"/><stop offset=".75" stop-color="#dde0f2"/><stop offset=".97" stop-color="#fbfbfd"/><stop offset="1" stop-color="#fff"/></linearGradient><linearGradient id="ad" x1="932.42" x2="976.84" y1="494.22" y2="494.22" gradientUnits="userSpaceOnUse"><stop offset="0" stop-color="#c4cae9"/><stop offset=".92" stop-color="#fff"/></linearGradient><linearGradient id="ae" x1="887.99" x2="976.85" y1="510.66" y2="510.66" gradientUnits="userSpaceOnUse"><stop offset="0" stop-color="#362e94"/><stop offset="1" stop-color="#807dfb"/></linearGradient><linearGradient id="af" x1="932.42" x2="954.47" y1="484.82" y2="484.82" gradientUnits="userSpaceOnUse"><stop offset="0" stop-color="#c4cae9"/><stop offset="1" stop-color="#fff"/></linearGradient><linearGradient id="j" x1="910.34" x2="954.49" y1="495.55" y2="495.55" gradientUnits="userSpaceOnUse"><stop offset="0" stop-color="#fcba06"/><stop offset=".48" stop-color="#eea403"/><stop offset="1" stop-color="#e19100"/></linearGradient><linearGradient id="ag" x1="921.38" x2="943.45" y1="467.88" y2="467.88" gradientUnits="userSpaceOnUse"><stop offset="0" stop-color="#fcba06"/><stop offset=".54" stop-color="#e99e02"/><stop offset="1" stop-color="#dc8b00"/></linearGradient><linearGradient id="ah" x1="921.38" x2="943.45" y1="452.04" y2="452.04" gradientUnits="userSpaceOnUse"><stop offset="0" stop-color="#fff"/><stop offset=".07" stop-color="#fdfeff"/><stop offset="1" stop-color="#eaeef9"/></linearGradient><linearGradient id="ai" x1="837.69" x2="1027.15" y1="381.93" y2="381.93" xlink:href="#j"/><linearGradient id="aj" x1="845.26" x2="1019.58" y1="312.95" y2="312.95" gradientUnits="userSpaceOnUse"><stop offset="0" stop-color="#dc8b00"/><stop offset=".28" stop-color="#e19301"/><stop offset=".71" stop-color="#efa804"/><stop offset="1" stop-color="#fcba06"/></linearGradient><linearGradient id="k" x1="662.9" x2="743.95" y1="674.71" y2="674.71" gradientUnits="userSpaceOnUse"><stop offset="0" stop-color="#c4cae9"/><stop offset=".09" stop-color="#ced3ed"/><stop offset=".41" stop-color="#e9ebf7"/><stop offset=".69" stop-color="#f9fafd"/><stop offset=".9" stop-color="#fff"/></linearGradient><linearGradient id="ak" x1="761.97" x2="836.18" y1="640.44" y2="640.44" xlink:href="#k"/><linearGradient id="al" x1="1210.62" x2="1232.83" y1="448.36" y2="448.05" gradientTransform="matrix(-1 0 0 1 1867.48 0)" gradientUnits="userSpaceOnUse"><stop offset="0" stop-color="#5652cc"/><stop offset="1" stop-color="#6b67e9"/></linearGradient><linearGradient id="am" x1="1835.46" x2="1879.09" y1="669.53" y2="669.53" gradientTransform="matrix(-1 0 0 1 2528.99 0)" gradientUnits="userSpaceOnUse"><stop offset="0" stop-color="#20196f"/><stop offset=".3" stop-color="#28227e"/><stop offset=".89" stop-color="#3e39a7"/><stop offset="1" stop-color="#423eaf"/></linearGradient><linearGradient id="an" x1="652.25" x2="702.28" y1="577.38" y2="577.38" gradientUnits="userSpaceOnUse"><stop offset="0" stop-color="#20196f"/><stop offset=".11" stop-color="#1e1869"/><stop offset=".66" stop-color="#161350"/><stop offset="1" stop-color="#131147"/></linearGradient><linearGradient id="ao" x1="1736.5" x2="1780.14" y1="635.28" y2="635.28" gradientTransform="matrix(-1 0 0 1 2528.99 0)" gradientUnits="userSpaceOnUse"><stop offset="0" stop-color="#20196f"/><stop offset=".48" stop-color="#29227e"/><stop offset="1" stop-color="#362e94"/></linearGradient><linearGradient id="ap" x1="653.56" x2="774.77" y1="563.85" y2="563.85" gradientUnits="userSpaceOnUse"><stop offset="0" stop-color="#362e94"/><stop offset=".63" stop-color="#1f1b60"/><stop offset="1" stop-color="#131147"/></linearGradient><linearGradient id="aq" x1="1797.56" x2="1875.91" y1="462.05" y2="462.05" gradientTransform="matrix(-1 0 0 1 2528.99 0)" gradientUnits="userSpaceOnUse"><stop offset="0" stop-color="#423eaf"/><stop offset=".19" stop-color="#504cc0"/><stop offset=".73" stop-color="#736feb"/><stop offset="1" stop-color="#807dfb"/></linearGradient><linearGradient id="ar" x1="1104.48" x2="1189.07" y1="464.05" y2="464.05" gradientTransform="matrix(-1 0 0 1 1867.48 0)" gradientUnits="userSpaceOnUse"><stop offset="0" stop-color="#423eaf"/><stop offset=".41" stop-color="#615ed5"/><stop offset=".78" stop-color="#7874f1"/><stop offset="1" stop-color="#807dfb"/></linearGradient></defs><g data-name="Man on stair"><polygon points="1236.97 822.69 1236.98 822.69 1219.5 812.6 1230.72 799.88 1230.72 799.88 1230.72 799.88 1214.99 799.88 1209.48 806.13 1208.69 806.36 1191.21 796.27 1195.08 810.37 1173.05 816.84 1197.47 819.08 1197.61 819.58 1185.61 833.17 1201.34 833.17 1212.56 820.46 1236.98 822.69 1236.97 822.69" style="mix-blend-mode:multiply" fill="url(#l)"/><polygon fill="#fcba06" points="1175.48 786.57 1175.48 796.27 1179.35 810.37 1179.35 800.66 1175.48 786.57"/><polygon fill="#e19100" points="1214.99 790.18 1214.99 799.88 1203.77 812.6 1203.77 802.9 1214.99 790.18"/><polygon fill="#fcba06" points="1196.83 810.76 1196.83 820.46 1221.25 822.69 1221.25 812.99 1196.83 810.76"/><polygon fill="#e19100" points="1157.32 807.14 1157.32 816.84 1181.74 819.08 1181.74 809.38 1157.32 807.14"/><polygon fill="#e19100" points="1196.83 810.76 1196.83 820.46 1185.61 833.17 1185.61 823.48 1196.83 810.76"/><polygon fill="#fcba06" points="1185.61 823.48 1185.61 833.17 1181.74 819.08 1181.74 809.38 1185.61 823.48"/><polygon fill="#ffd03e" points="1214.99 790.18 1203.77 802.9 1221.25 812.99 1196.83 810.76 1185.61 823.48 1181.74 809.38 1157.32 807.14 1179.35 800.66 1175.48 786.57 1192.96 796.66 1214.99 790.18"/><path d="M792.74,914.29c-5.79-3.35-13.5-4.89-21.07-4.67H759.81v2a30.84,30.84,0,0,0-6.27,2.72c-10.79,6.27-10.73,16.44.13,22.71a31.18,31.18,0,0,0,6.14,2.66v2H774c6.84-.11,13.62-1.66,18.83-4.69C803.66,930.73,803.61,920.56,792.74,914.29Z" style="mix-blend-mode:multiply" fill="url(#m)"/><path fill="url(#n)" d="M741.45,937c-5.47-3.16-8.2-7.3-8.19-11.43l0-9.44c0,4.15,2.72,8.29,8.19,11.44,10.86,6.27,28.41,6.27,39.2,0,5.37-3.12,8.05-7.2,8.06-11.28l0,9.43c0,4.08-2.7,8.15-8.06,11.27C769.86,943.28,752.31,943.28,741.45,937Z"/><path fill="#f0f2f6" d="M741.47,927.58c-10.86-6.27-10.92-16.44-.13-22.71s28.35-6.27,39.21,0,10.91,16.44.12,22.72S752.33,933.85,741.47,927.58Z"/><polygon fill="#bdc2de" points="775.23 914.94 754.72 915.98 755.35 911.37 749.69 911.37 748.15 919.77 775.23 918.21 775.23 914.94"/><path d="M1189.91,947.93c-8-4.65-18.73-6.78-29.23-6.47h-24.34v2.7a43.29,43.29,0,0,0-8.71,3.77c-15,8.7-14.88,22.81.18,31.51a44,44,0,0,0,8.53,3.7V986H1164c9.5-.16,18.91-2.32,26.13-6.52C1205.06,970.74,1205,956.63,1189.91,947.93Z" style="mix-blend-mode:multiply" fill="url(#o)"/><path fill="url(#a)" d="M1110.86,964.75c-7.58-4.38-11.38-10.12-11.36-15.86l0-7.36c0,5.75,3.77,11.5,11.36,15.88,15.07,8.7,39.43,8.7,54.4,0,7.44-4.33,11.16-10,11.18-15.65l0,7.35c0,5.66-3.74,11.32-11.18,15.65C1150.29,973.46,1125.93,973.46,1110.86,964.75Z"/><path fill="url(#p)" d="M1110.86,972.1c-7.58-4.38-11.38-10.13-11.36-15.87l0-7.35c0,5.75,3.77,11.49,11.36,15.87,15.07,8.71,39.43,8.71,54.4,0,7.44-4.33,11.16-10,11.18-15.65l0,7.35c0,5.66-3.74,11.32-11.18,15.64C1150.29,980.81,1125.93,980.81,1110.86,972.1Z"/><path fill="url(#q)" d="M1110.86,979.45c-7.58-4.38-11.38-10.13-11.36-15.87l0-7.35c0,5.75,3.77,11.49,11.36,15.87,15.07,8.7,39.43,8.7,54.4,0,7.44-4.33,11.16-10,11.18-15.65l0,7.34c0,5.67-3.74,11.32-11.18,15.65C1150.29,988.16,1125.93,988.16,1110.86,979.45Z"/><path fill="#eff2f6" d="M1110.89,957.41c-15.07-8.7-15.15-22.82-.18-31.51s39.34-8.71,54.4,0,15.15,22.81.18,31.51S1126,966.11,1110.89,957.41Z"/><polygon fill="#bbc0e6" points="1159.52 938.77 1128.72 940.34 1129.67 933.41 1121.16 933.41 1118.85 946.03 1159.52 943.69 1159.52 938.77"/><path d="M955.47,981.7a8.57,8.57,0,0,0-4.48,1.13l-5,2.91-.94-.55a1.52,1.52,0,0,0-1.49,0c-.13.06-17.73,10.23-17.73,10.23a1.75,1.75,0,0,0-.6.49l-.83,1.19-150.26,93-10.54,16.33,27.55-8.64L932.86,1016a1.54,1.54,0,0,0,1.5,0c.1,0,17.74-10.23,17.74-10.23a1.63,1.63,0,0,0,.57-.48l1.27-1.81,6.61-3.81a9.78,9.78,0,0,0,4.58-8.24A9.65,9.65,0,0,0,955.47,981.7Z" style="mix-blend-mode:multiply" fill="url(#r)"/><path fill="url(#s)" d="M939.87,978.35a8.57,8.57,0,0,0-4.48,1.13l-6.31,3.64a9.21,9.21,0,0,1,1.74.76,17.26,17.26,0,0,1,7.8,13.52,7.52,7.52,0,0,1-.51,2.8l6.84-4a9.77,9.77,0,0,0,4.58-8.24A9.66,9.66,0,0,0,939.87,978.35Z"/><path fill="url(#t)" d="M756.42,1090.9a5.59,5.59,0,0,1,2.52,4.37c0,1-.42,1.6-1.06,1.75l17.62-2.57,3.77-5.36-3.77-9.71L768,1075l-13.54,15.86A1.63,1.63,0,0,1,756.42,1090.9Z"/><path fill="url(#u)" d="M756.42,1090.9a1.63,1.63,0,0,0-2,0l-.2.24-6.28,7.35,9.75-1.43.18,0c.64-.15,1.06-.77,1.06-1.75A5.59,5.59,0,0,0,756.42,1090.9Z"/><path fill="#e1e5f1" d="M911.11,1009.06a4.62,4.62,0,0,1-1.71-2l-3-7.87a2.91,2.91,0,0,1,.3-2.44l2.93-4.18a1.56,1.56,0,0,1,2-.45l6.14,3.54a4.67,4.67,0,0,1,1.71,2l3,7.88a2.91,2.91,0,0,1-.29,2.44l-2.94,4.18a1.57,1.57,0,0,1-2,.44Z"/><polygon fill="#fcba06" points="921.96 1006.71 779.27 1089.09 775.5 1079.38 918.19 997 921.96 1006.71"/><polygon fill="#e19100" points="918.19 1012.07 775.5 1094.45 779.27 1089.09 921.96 1006.71 918.19 1012.07"/><polygon fill="#ffd03e" points="918.19 997 775.5 1079.38 767.97 1075.03 910.66 992.66 918.19 997"/><path fill="url(#v)" d="M940.3,995.25l-3-7.87a4.74,4.74,0,0,0-1.71-2l-6.14-3.54a1.57,1.57,0,0,0-1.49,0l-17.73,10.23a1.59,1.59,0,0,1,1.41,0l6.14,3.54a4.67,4.67,0,0,1,1.71,2l3,7.88a2.91,2.91,0,0,1-.29,2.44l-2.94,4.18a1.6,1.6,0,0,1-.4.38l17.64-10.19a1.63,1.63,0,0,0,.57-.48l2.94-4.18A2.91,2.91,0,0,0,940.3,995.25Z"/><path d="M921.43,1011.06a1.35,1.35,0,0,0,.4-.39l2.94-4.18a2.91,2.91,0,0,0,.3-2.44L922,996.18a4.49,4.49,0,0,0-1.71-2l-6.14-3.54a1.52,1.52,0,0,0-1.39,0s-1.29.71-1.29.71a1.64,1.64,0,0,1,1.42,0l6.14,3.54a4.62,4.62,0,0,1,1.71,2l3.06,7.87a3,3,0,0,1-.3,2.44l-2.94,4.18a1.64,1.64,0,0,1-.4.39Z" style="mix-blend-mode:multiply" fill="url(#b)"/><path d="M924.09,1009.52a1.52,1.52,0,0,0,.41-.39l2.93-4.18a2.89,2.89,0,0,0,.3-2.43l-3.05-7.88a4.69,4.69,0,0,0-1.72-2l-6.14-3.54a1.52,1.52,0,0,0-1.39,0s-1.28.72-1.28.72a1.59,1.59,0,0,1,1.41,0l6.14,3.54a4.67,4.67,0,0,1,1.71,2l3.06,7.87a3,3,0,0,1-.3,2.45l-2.94,4.17a1.48,1.48,0,0,1-.4.39Z" style="mix-blend-mode:multiply" fill="url(#w)"/><path d="M926.75,1008a1.49,1.49,0,0,0,.41-.38l2.93-4.18a2.92,2.92,0,0,0,.3-2.44l-3-7.88a4.65,4.65,0,0,0-1.71-2l-6.14-3.54a1.55,1.55,0,0,0-1.39,0s-1.29.72-1.29.72a1.59,1.59,0,0,1,1.41,0l6.14,3.54a4.52,4.52,0,0,1,1.71,2l3.06,7.88a3,3,0,0,1-.3,2.44l-2.93,4.18a1.49,1.49,0,0,1-.41.38Z" style="mix-blend-mode:multiply" fill="url(#x)"/><path fill="#7f7ff4" d="M1097.37,305.66c4.22,18.56,17.19,37.8,32.54,46.66,10.79,6.23,20.41,6,26.64.49L1170.06,373c-9.39,8.24-23.88,8.65-40.15-.75-23.14-13.35-42.68-42.34-49-70.33Z"/><path fill="#d0d4f6" d="M1163.9,332.7c0-21.68-15.22-48-34-58.88s-34-2.05-34,19.63a55.57,55.57,0,0,0,1.46,12.21l-16.5-3.77a83.35,83.35,0,0,1-2.19-18.4c0-32.66,22.93-45.91,51.23-29.57s51.23,56.06,51.23,88.73c0,13.87-4.15,24.23-11.08,30.32l-13.51-20.16C1161.14,348.77,1163.9,341.9,1163.9,332.7Z"/><path fill="#ffd03e" d="M1129.91,284.06c13.87,8,25.12,27.49,25.12,43.52a24.41,24.41,0,0,1-1.82,9.75l-23.3-24.26Z"/><path fill="#5555c6" d="M1129.91,284.06h0v29l23.3,24.26c-3.71,8.52-12.74,10.85-23.3,4.75-13.88-8-25.13-27.49-25.13-43.51S1116,276.05,1129.91,284.06Z"/><path d="M483.59,998.81c-10.66-6.15-24.81-9-38.72-8.57h-21.8v3.58a58.33,58.33,0,0,0-11.54,5c-19.82,11.53-19.7,30.22.25,41.74a58,58,0,0,0,11.29,4.89v3.74h26.15c12.57-.22,25-3.07,34.6-8.63C503.65,1029,503.55,1010.34,483.59,998.81Z" style="mix-blend-mode:multiply" fill="url(#y)"/><path fill="#ffe54c" d="M375.44,1006.15c0-7.38,4.86-14.75,14.61-20.37s22.51-8.44,35.29-8.44,25.53,2.81,35.28,8.44,14.61,13,14.61,20.37-4.86,14.74-14.61,20.37-22.51,8.43-35.28,8.43-25.54-2.81-35.28-8.43S375.44,1013.52,375.44,1006.15Z"/><path fill="url(#c)" d="M460.62,1026.52c-9.74,5.62-22.51,8.43-35.28,8.43s-25.54-2.81-35.28-8.43-14.62-13-14.62-20.37v14.22c0,7.37,4.87,14.74,14.62,20.37s22.51,8.44,35.28,8.44,25.54-2.81,35.28-8.44,14.62-13,14.61-20.37v-14.22C475.24,1013.52,470.37,1020.89,460.62,1026.52Z"/><path fill="#ffd03e" d="M396.68,1022.69c7.91,4.57,18.29,6.86,28.66,6.86s20.74-2.29,28.65-6.86c7.3-4.21,11.23-9.64,11.79-15.16-.56-5.51-4.49-10.94-11.79-15.15-7.91-4.57-18.28-6.86-28.65-6.86s-20.75,2.29-28.66,6.86c-7.3,4.21-11.22,9.63-11.79,15.15C385.46,1013.05,389.38,1018.48,396.68,1022.69Z"/><path fill="#e19100" d="M396.68,992.38c7.91-4.57,18.29-6.86,28.66-6.86s20.74,2.29,28.65,6.86c7.3,4.21,11.23,9.64,11.79,15.15a12.77,12.77,0,0,0,.08-1.38c0-6-4-12-11.87-16.55s-18.28-6.85-28.65-6.85-20.75,2.28-28.66,6.85-11.87,10.56-11.87,16.55a12.77,12.77,0,0,0,.08,1.38C385.46,1002,389.38,996.59,396.68,992.38Z"/><polygon fill="#e19100" points="445.3 1000.2 449.13 997.98 449.13 995.21 445.3 997.42 445.3 1000.2"/><path fill="#ffe54c" d="M427.62,1004.83a3.26,3.26,0,0,1,0-6.18,11.86,11.86,0,0,1,10.7,0c2.95,1.7,2.95,4.48,0,6.18l4.86,2.81c4.79-2.77,5.49-7,2.12-10.22l3.83-2.21-4.85-2.8-3.84,2.21c-5.54-1.94-12.89-1.54-17.68,1.23-2.73,1.57-4.23,3.66-4.22,5.89s1.5,4.32,4.22,5.89c2.95,1.71,2.95,4.48,0,6.18a11.8,11.8,0,0,1-10.7,0c-2.95-1.7-2.95-4.47,0-6.17l-4.86-2.81c-4.79,2.77-5.49,7-2.12,10.21l-3.53,2,4.85,2.8,3.54-2c5.55,1.94,12.89,1.54,17.68-1.22C433.25,1013.37,433.25,1008.08,427.62,1004.83Z"/><polygon fill="#fcba06" points="401.55 1019.85 406.4 1022.66 406.4 1019.88 401.55 1017.08 401.55 1019.85"/><polygon fill="#e19100" points="406.4 1022.66 409.94 1020.62 409.94 1017.84 406.4 1019.88 406.4 1022.66"/><polygon fill="#fcba06" points="438.32 1007.6 443.18 1010.41 443.18 1007.63 438.32 1004.83 438.32 1007.6"/><path fill="#e19100" d="M412.06,1010.41v-2.77c-2.09,1.2-2.69,3-1.82,4.47A4.79,4.79,0,0,1,412.06,1010.41Z"/><path fill="#fcba06" d="M403,1010.59v3.12h0a5.22,5.22,0,0,0,.6,2.19l1.47-.85a6,6,0,0,1-2.08-4.45Z"/><path fill="#fcba06" d="M422.76,1010.4a4.88,4.88,0,0,1,1.82,1.71c.88-1.52.28-3.27-1.82-4.48-2.72-1.57-4.23-3.67-4.22-5.89v2.77C418.53,1006.74,420,1008.83,422.76,1010.4Z"/><path fill="#fcba06" d="M431.84,1010.71v-.06h0Z"/><path fill="#e19100" d="M447.38,1001.74c0,2.13-1.38,4.27-4.2,5.9v2.77c2.89-1.67,4.28-3.87,4.2-6.06h0v-2.62Z"/><path fill="url(#z)" d="M427.62,1016.62c-4.79,2.76-12.13,3.16-17.68,1.22v2.78c5.55,1.94,12.89,1.54,17.68-1.23,2.79-1.61,4.2-3.73,4.22-5.84h0v-2.81C431.84,1012.87,430.43,1015,427.62,1016.62Z"/><path fill="#e19100" d="M438.32,998.65a11.86,11.86,0,0,0-10.7,0,3.77,3.77,0,0,0-2.22,3.09,2.75,2.75,0,0,0,.4,1.39,4.88,4.88,0,0,1,1.82-1.71,11.86,11.86,0,0,1,10.7,0,4.81,4.81,0,0,1,1.82,1.71C441,1001.61,440.41,999.86,438.32,998.65Z"/><path d="M1021.62,755.66a4.49,4.49,0,0,1,1.53-1h6.75l2.82-6.16-2.55-.4a7,7,0,0,1-2.37-.79,2.39,2.39,0,0,1-1.41-2.09,16.69,16.69,0,0,0,0-2.45c-.06-1.77,2.1-2.63,3.74-2.88l2.55-.4-2.89-6.16H1023a5.51,5.51,0,0,1-.65-.31,4,4,0,0,1-.9-.7,25.33,25.33,0,0,0-2.14-2.13c-1.56-1.52-.44-2.89.76-3.59l1.85-1.07-7.82-4.52-1.86,1.08a7.72,7.72,0,0,1-6.18.45q-1.8-.67-3.69-1.23a6.62,6.62,0,0,1-1.21-.53c-1.5-.86-1.57-2-1.22-2.8l.67-1.47L990,714.84l-.67,1.48c-.43.95-1.91,2.2-5,2.18-1.42,0-2.84,0-4.25,0a7.15,7.15,0,0,1-3.62-.81,3.32,3.32,0,0,1-1.36-1.37l-.69-1.48-10.64,1.66.69,1.47c.44.95.25,2.46-2.4,3.33-1.25.37-2.47.78-3.67,1.23a7.76,7.76,0,0,1-6.19-.45L950.37,721l-7.77,4.52,1.87,1.07c1.2.7,2.34,2.07.79,3.59a26.44,26.44,0,0,0-2.11,2.13c-1.47,1.53-4.08,1.65-5.72,1.4l-2.56-.39-2.82,6.16,2.55.4a7.18,7.18,0,0,1,2.37.78,2.44,2.44,0,0,1,1.42,2.1,15.42,15.42,0,0,0,0,2.45,2.05,2.05,0,0,1-.7,1.59H920.31v7.85h21.43a5.25,5.25,0,0,1,.63.31,4.09,4.09,0,0,1,.91.7,25.33,25.33,0,0,0,2.14,2.13,2.65,2.65,0,0,1,.62.85H936V767h15.26v-.34l1.28-.74a7.68,7.68,0,0,1,6.18-.45c.47.18,1,.34,1.42.5v7.18h14.69l.67-1.47a2.23,2.23,0,0,1,.19-.32v1.79h14.68l10.64-1.65-.69-1.47c-.4-.85-.28-2.15,1.65-3h12.48l7.77-4.52-1.87-1.07c-1.2-.7-2.34-2.08-.79-3.59A24.88,24.88,0,0,0,1021.62,755.66Zm-25-3.48c-7.82,4.55-20.56,4.55-28.44,0s-7.92-11.93-.09-16.47,20.56-4.55,28.44,0S1004.41,747.63,996.58,752.18Z" style="mix-blend-mode:multiply" fill="url(#A)"/><path fill="url(#d)" d="M981.72,722.51c-7.82-4.52-20.47-4.52-28.25,0-6.92,4-7.64,10.27-2.2,14.78a16.37,16.37,0,0,1,2.2-1.53c7.78-4.51,20.43-4.51,28.25,0a16.45,16.45,0,0,1,2.29,1.59C989.48,732.83,988.72,726.55,981.72,722.51Z"/><path fill="#bbbfe2" d="M985.33,704.67a2.07,2.07,0,0,0-.17.79l0,13.3a2,2,0,0,1,.17-.79l.68-1.47,0-13.3Z"/><path fill="#bbbfe2" d="M949.85,704.67l-.69-1.47,0,13.3.69,1.47a1.87,1.87,0,0,1,.19.82l0-13.29A1.91,1.91,0,0,0,949.85,704.67Z"/><path fill="#bbbfe2" d="M1005.46,713.3a2.64,2.64,0,0,0-1.52,2.05l0,13.3a2.67,2.67,0,0,1,1.52-2.06l1.86-1.07,0-13.3Z"/><path fill="#ced2f4" d="M929.82,713.3,928,712.22l0,13.3,1.86,1.07a2.7,2.7,0,0,1,1.55,2.09l0-13.3A2.68,2.68,0,0,0,929.82,713.3Z"/><path fill="#bbbfe2" d="M1015.47,726.58c-1.62.25-3.73,1.1-3.74,2.81l0,13.3c0-1.72,2.13-2.56,3.74-2.81l2.55-.4,0-13.29Z"/><path fill="#242d3c" d="M1011.78,730.79l0,13.3c0,.37,0,.75,0,1.12l0-13.29C1011.77,731.54,1011.78,731.17,1011.78,730.79Z"/><path fill="#ced2f4" d="M923.73,731.66v-2.2a2.42,2.42,0,0,0-1.41-2.09,7,7,0,0,0-2.38-.79l-2.54-.39,0,13.29,2.55.4a7.26,7.26,0,0,1,2.37.78,2.6,2.6,0,0,1,1.37,1.69v1.55c0,.44,0,.88.05,1.31l0-13.3A2.09,2.09,0,0,0,923.73,731.66Z"/><path fill="#242d3c" d="M923.74,732l0,13.3a.17.17,0,0,0,0-.07l0-13.3Z"/><polygon fill="#bbbfe2" points="1018.07 735.19 1018.03 748.49 1015.21 754.65 1015.25 741.36 1018.07 735.19"/><polygon fill="#ced2f4" points="920.35 741.36 920.31 754.65 917.42 748.49 917.46 735.19 920.35 741.36"/><path fill="url(#B)" d="M1012.7,741c-1.64-.25-4.25-.13-5.73,1.4a24.88,24.88,0,0,1-2.11,2.13,2.15,2.15,0,0,0-.75,1.5l0,13.3a2.13,2.13,0,0,1,.75-1.5,23.5,23.5,0,0,0,2.11-2.13c1.48-1.54,4.09-1.65,5.73-1.4l2.55.39,0-13.29Z"/><path fill="url(#C)" d="M930.77,744.49a26.91,26.91,0,0,1-2.14-2.13,4.49,4.49,0,0,0-.91-.7,7.93,7.93,0,0,0-4.84-.7l-2.53.4,0,13.29,2.54-.39a7.8,7.8,0,0,1,4.84.7,4,4,0,0,1,.9.7,25.48,25.48,0,0,0,2.15,2.13,2.12,2.12,0,0,1,.76,1.52l0-13.29A2.16,2.16,0,0,0,930.77,744.49Z"/><polygon fill="#bbbfe2" points="1007.52 749.15 1007.49 762.45 999.72 766.97 999.75 753.67 1007.52 749.15"/><polygon fill="#ced2f4" points="935.98 753.67 935.95 766.97 928.12 762.45 928.16 749.15 935.98 753.67"/><path fill="url(#D)" d="M997.88,752.59a7.75,7.75,0,0,0-6.18-.44c-1.2.44-2.43.85-3.68,1.23-2,.64-2.58,1.64-2.58,2.5l0,13.3c0-.86.62-1.86,2.58-2.51,1.26-.37,2.48-.78,3.68-1.23a7.69,7.69,0,0,1,6.18.45l1.88,1.08,0-13.3Z"/><path fill="url(#E)" d="M948.92,753.9a6,6,0,0,0-1.21-.52c-1.26-.38-2.48-.79-3.68-1.23a7.7,7.7,0,0,0-6.19.44L936,753.67l0,13.3,1.85-1.08a7.7,7.7,0,0,1,6.19-.45c1.2.45,2.43.86,3.68,1.23a6.62,6.62,0,0,1,1.21.53,2.33,2.33,0,0,1,1.4,2l0-13.3A2.36,2.36,0,0,0,948.92,753.9Z"/><polygon fill="#bbbfe2" points="986.32 758.17 986.28 771.47 975.64 773.12 975.67 759.83 986.32 758.17"/><path fill="url(#F)" d="M975,758.35a3.26,3.26,0,0,0-1.36-1.37,7,7,0,0,0-3.62-.8c-1.41,0-2.83,0-4.24,0-3,0-4.52,1.23-5,2.18l-.67,1.48,0,13.29.68-1.47c.43-.95,1.91-2.2,5-2.18,1.42,0,2.83,0,4.24,0a7.12,7.12,0,0,1,3.62.81,3.24,3.24,0,0,1,1.37,1.37l.69,1.47,0-13.29Z"/><path fill="#f0f0f5" d="M1005.66,748.08l1.86,1.08-7.77,4.51-1.87-1.08a7.75,7.75,0,0,0-6.18-.44c-1.2.44-2.43.85-3.68,1.23-2.64.86-2.84,2.37-2.39,3.32l.69,1.47-10.65,1.66-.69-1.48a3.26,3.26,0,0,0-1.36-1.37,7,7,0,0,0-3.62-.8c-1.41,0-2.83,0-4.24,0-3,0-4.52,1.23-5,2.18l-.67,1.48-10.66-1.66.68-1.47c.35-.78.27-1.93-1.23-2.8a6,6,0,0,0-1.21-.52c-1.26-.38-2.48-.79-3.68-1.23a7.7,7.7,0,0,0-6.19.44L936,753.67l-7.82-4.51,1.86-1.08c1.19-.7,2.32-2.07.75-3.59a26.91,26.91,0,0,1-2.14-2.13,4.49,4.49,0,0,0-.91-.7,7.93,7.93,0,0,0-4.84-.7l-2.53.4-2.89-6.17,2.54-.39c1.64-.26,3.79-1.12,3.74-2.89a16.7,16.7,0,0,1,0-2.45,2.42,2.42,0,0,0-1.41-2.09,7,7,0,0,0-2.38-.79l-2.54-.39,2.82-6.17,2.55.39c1.64.26,4.25.14,5.72-1.4a26.58,26.58,0,0,1,2.12-2.13c1.55-1.51.41-2.89-.8-3.58L928,712.22l7.77-4.52,1.88,1.08a7.69,7.69,0,0,0,6.18.45c1.2-.45,2.42-.86,3.67-1.23,2.65-.86,2.85-2.38,2.4-3.33l-.69-1.47,10.64-1.65.69,1.47a3.24,3.24,0,0,0,1.37,1.37,7.1,7.1,0,0,0,3.62.81c1.41,0,2.82,0,4.24,0,3,0,4.52-1.23,4.95-2.18l.68-1.47L986,703.2l-.68,1.47c-.35.78-.28,1.94,1.23,2.81a6.64,6.64,0,0,0,1.21.52c1.25.37,2.48.78,3.68,1.23a7.7,7.7,0,0,0,6.19-.45l1.85-1.08,7.82,4.52-1.85,1.08c-1.2.69-2.32,2.06-.75,3.58a28.53,28.53,0,0,1,2.13,2.13,4.09,4.09,0,0,0,.91.7,7.8,7.8,0,0,0,4.84.7l2.54-.39,2.89,6.17-2.55.39c-1.64.26-3.79,1.12-3.74,2.88a15.54,15.54,0,0,1,0,2.46,2.42,2.42,0,0,0,1.41,2.09,7.26,7.26,0,0,0,2.38.79l2.54.39-2.82,6.17-2.55-.4c-1.64-.25-4.25-.13-5.73,1.4a24.88,24.88,0,0,1-2.11,2.13C1003.31,746,1004.45,747.38,1005.66,748.08Zm-52.17-9.19c7.88,4.55,20.62,4.54,28.45,0s7.78-11.92-.09-16.47-20.62-4.55-28.45,0-7.79,11.93.09,16.48Z"/><polygon fill="#ced2f4" points="960.13 759.83 960.09 773.12 949.43 771.47 949.47 758.17 960.13 759.83"/><path fill="#e0e0eb" d="M987.6,720.16c-11.09-6.4-29-6.41-40,0-5.25,3.05-8,7-8.21,11,.22,4.05,3,8.06,8.34,11.14,11.09,6.41,29,6.4,40,0,5.25-3,8-7,8.21-11C995.72,727.26,992.94,723.25,987.6,720.16Zm-5.79,18.73c-7.77,4.51-20.42,4.52-28.25,0-3.7-2.14-5.66-4.91-5.87-7.71.22-2.76,2.15-5.49,5.78-7.6,7.78-4.52,20.43-4.52,28.25,0,3.7,2.13,5.66,4.9,5.87,7.7C987.37,734.05,985.45,736.77,981.81,738.89Z"/><path fill="url(#G)" d="M947.56,720.16c11-6.41,29-6.4,40,0,5.34,3.09,8.11,7.09,8.33,11.13.25-4.39-2.52-8.84-8.33-12.19-11.09-6.41-29-6.41-40,0-5.71,3.31-8.44,7.7-8.21,12C939.58,727.16,942.31,723.21,947.56,720.16Z"/><path fill="#ced3f8" d="M771.11,102.54c1.07-2.16,8.06-9,8.06-9,3.77,2.87,10.22,16.85-1.79,28.15C779.17,115.44,775.32,106.75,771.11,102.54Z"/><path fill="#ed9f00" d="M607.49,315.64c3.09,4.41,12.25,13,4.53,22.4a91.14,91.14,0,0,1,9.32,4.14c5.81-5.21,13.16-18.39,0-34.39C616,310.6,607.49,315.64,607.49,315.64Z"/><path fill="#5652cc" d="M685.54,294.2c.81-5,.94-18.69,14.66-19.63-.4-1.48-3.59-4.67-3.59-4.67-8.24.36-19.41,4.67-19.27,21.34A61,61,0,0,0,685.54,294.2Z"/><path fill="#807dfb" d="M849.65,162.64c-1.88,1.88-6.86,9.54-21.11,12.77,1.75,4,8.07,14.26,8.07,14.26,4-1.75,16.94-16.14,18.82-21.11C853.55,166.3,849.65,162.64,849.65,162.64Z"/><path fill="#5652cc" d="M777.71,334.72c2.15-2.29,10-10.33,12.1-21.65,5.11.94,9.28,4,7.67,9.28-1.53,4.94-5.12,13.31-5.12,13.31C788.94,335.32,785.24,336.46,777.71,334.72Z"/><path fill="#ffd03e" d="M766.44,220.79l6.4-.72c.16,3.05-.2,9.86,11.19,14.08-3.5,2.95-12.15,6.72-12.15,6.72C768.52,237.1,766.44,228.32,766.44,220.79Z"/><path fill="#807dfb" d="M809,443.26l-2.4-1.87c.72-.93,1.57-2,2.46-3.08,1.31-1.63,2.73-3.4,4-5l-.44-.08c-2.33-.42-5.51-1-4.15-4.7.77-2.09,2.73-4.43,5.41-7.5l.07-.07c-1.42-1.12-3.6-2.81-4-3.12a1.36,1.36,0,0,1-.38-1.31,3.94,3.94,0,0,1,.85-1.78c1.58-1.94,3.17-4,4.72-6l.74-1-.17-.12a20.91,20.91,0,0,1-2.88-2.32c-2-2,0-4.74,1.48-6.71l.17-.23c.68-.93,1.45-1.77,2.12-2.52.38-.42.91-1,1.21-1.39l-.19-.15c-.9-.66-1.77-1.36-2.65-2.05-.43-.35-.86-.7-1.3-1a1.33,1.33,0,0,1-.38-1.27,3.84,3.84,0,0,1,.8-1.74l7.15-9.17,2.4,1.87-5.54,7.1.13.1c.86.68,1.71,1.37,2.59,2a2.71,2.71,0,0,1,1.05,2.91c-.36,2-1.92,3.68-3.3,5.21-.56.61-1.13,1.24-1.55,1.8l-.17.24c-.23.31-.49.66-.68.94l.08.09a20.23,20.23,0,0,0,2.64,2.12c.49.35,1,.69,1.45,1.06.66.52.47,1.87-.42,3s-1.57,2-2.35,3c-1,1.34-2.09,2.72-3.16,4.07l1.61,1.26,1.7,1.33c.92.72,1.88,1.47.44,3.47a.76.76,0,0,0-.11.14c-.55.71-1.3,1.56-2.09,2.46a43.28,43.28,0,0,0-3.68,4.6,7.77,7.77,0,0,0,2.74.82,6.53,6.53,0,0,1,2.76.89c.58.48.47,1.66-.27,2.75-1.62,2.39-4,5.35-6.09,8C810.5,441.35,809.69,442.37,809,443.26Z"/><path fill="#ced3f8" d="M565.31,392.16l-2.59-1.61c.54-.86,1.12-1.74,1.7-2.62,1.06-1.62,2.15-3.29,2.94-4.82.06-.13.11-.22.13-.28a3.7,3.7,0,0,0-1.26-.6,4.63,4.63,0,0,1-2.25-1.31c-1.86-2.31.7-6.31,1.92-8.24q.26-.37.48-.75c.16-.26.38-.58.62-.93s.72-1.08,1-1.54l-.37-.2a3.25,3.25,0,0,1-.52-.28c-.24-.14-.52-.28-.8-.41a5.46,5.46,0,0,1-2-1.42,4.65,4.65,0,0,1-.83-4.18c.57-2.47,2.4-4.5,4-6.3a22.59,22.59,0,0,0,2.3-2.84l2.59,1.61a29.51,29.51,0,0,1-3.24,4.08,14.79,14.79,0,0,0-2,2.56s-.06.38.44,1a4.23,4.23,0,0,0,1.41.9,8.6,8.6,0,0,1,1,.51l.38.2a2.56,2.56,0,0,1,1.61,3c-.17,1.85-1.49,3.81-2.45,5.23-.16.24-.31.46-.42.64l-.54.86a12.61,12.61,0,0,0-1.3,2.31.43.43,0,0,0,.09.16,3.47,3.47,0,0,0,1.43.72c1.27.44,4.24,1.47,1.65,6.5a61.9,61.9,0,0,1-3.42,5.65C566.34,390.54,565.81,391.36,565.31,392.16Zm2.8-23Z"/><path fill="#807dfb" d="M700.9,169.13a64.14,64.14,0,0,1-3.39-5.66c-2.56-5.05.42-6.06,1.69-6.49a3.35,3.35,0,0,0,1.43-.72,1.62,1.62,0,0,0,.1-.15,13.49,13.49,0,0,0-1.29-2.33l-.54-.85c-.11-.19-.26-.4-.42-.65-1-1.43-2.26-3.39-2.42-5.24a2.56,2.56,0,0,1,1.63-2.94l.38-.2a9.57,9.57,0,0,1,1-.5,4.18,4.18,0,0,0,1.42-.9,1.53,1.53,0,0,0,.45-1,14.32,14.32,0,0,0-2-2.57,30.25,30.25,0,0,1-3.21-4.1l2.6-1.59a23,23,0,0,0,2.28,2.84c1.61,1.81,3.42,3.85,4,6.33a4.66,4.66,0,0,1-.85,4.17,5.55,5.55,0,0,1-2.06,1.41,7.48,7.48,0,0,0-.8.41l-.52.28a3.35,3.35,0,0,0-.37.2c.24.46.71,1.16,1,1.53s.45.68.61.94l.47.76c1.22,1.93,3.75,5.94,1.88,8.25a4.71,4.71,0,0,1-2.25,1.29,4,4,0,0,0-1.27.59,1.91,1.91,0,0,0,.13.29c.78,1.53,1.86,3.21,2.91,4.83.58.89,1.15,1.77,1.68,2.63l-2.59,1.59C702,170.77,701.44,170,700.9,169.13Zm-1.12-20.57Z"/><path fill="#ed9f00" d="M757.53,423.12a13.53,13.53,0,0,1,6.12-10.6c3.38-2,6.12-.37,6.12,3.53a13.53,13.53,0,0,1-6.12,10.61C760.27,428.62,757.53,427,757.53,423.12Z"/><path fill="#ffd03e" d="M643.78,226.1a13.53,13.53,0,0,1,6.12-10.61c3.39-2,6.13-.37,6.13,3.53a13.52,13.52,0,0,1-6.13,10.61C646.52,231.59,643.78,230,643.78,226.1Z"/><path fill="#dae0f5" d="M538.59,485.7l-43.22,24.95a11.79,11.79,0,0,0-5.33,9.23v28c0,3.4,2.39,4.78,5.33,3.08l27-15.61,13.6,3.24s-2.52-5.63-3.74-8.92l6.33-3.66a11.78,11.78,0,0,0,5.32-9.23v-28C543.91,485.38,541.53,484,538.59,485.7Z"/><path fill="#807dfb" d="M507.18,524.73a5.22,5.22,0,0,1,2.37-4.1c1.31-.76,2.37-.15,2.37,1.36a5.22,5.22,0,0,1-2.37,4.11C508.24,526.86,507.18,526.25,507.18,524.73Z"/><path fill="#807dfb" d="M515.92,519.68a5.23,5.23,0,0,1,2.38-4.1c1.31-.76,2.37-.15,2.37,1.37a5.22,5.22,0,0,1-2.37,4.1C517,521.81,515.92,521.2,515.92,519.68Z"/><path fill="#807dfb" d="M524.67,514.64a5.22,5.22,0,0,1,2.37-4.11c1.31-.76,2.37-.15,2.37,1.36A5.22,5.22,0,0,1,527,516C525.73,516.76,524.67,516.15,524.67,514.64Z"/><polygon points="685.54 843.85 584.52 843.91 585.72 857.83 574.05 857.7 580.54 877.89 685.54 877.83 685.54 843.85" style="mix-blend-mode:multiply" fill="url(#f)"/><path fill="#facfa7" d="M597.71,627c-1.94-2.13-4-17.35-5.34-25.39s-6.56-11.48-11.26-13.79c0,0-2.84,11.24-6.28,11.85,2.76,15.43,8.58,32.45,15.4,38s19.53,8.7,31.5,9.85a75.13,75.13,0,0,1,2.08-7.92C613.61,635.87,601.65,631.32,597.71,627Z"/><path fill="url(#e)" d="M578.55,842.7c-4.87.79-6.29,8.66-3.85,13.6,1.52,1.69,5.34,3.28,5.34,3.28s15.42,6.33,18.89,6.61,11.17-1,11.8-7c-.59-3.61-3.64-4.6-7.37-6.83-4.86-2.89-9-7.07-13-9C587.19,841.83,578.55,842.7,578.55,842.7Z"/><path fill="#facfa7" d="M587.92,837.68c-2.38.39-10,2.28-10,2.28s-2.83,7.94,1.64,9.34c8.68,2.73,16.08-3.1,12.66-5.06C589.9,842.93,587.64,841.45,587.92,837.68Z"/><path fill="#121047" d="M598.82,864.6c-3.57-.29-19.44-6.79-19.44-6.79a20.54,20.54,0,0,1-5.33-3.23,12.68,12.68,0,0,0,.65,1.72c1.52,1.69,5.34,3.28,5.34,3.28s15.42,6.33,18.89,6.61,11.17-1,11.8-7c0-.11-.07-.23-.09-.35C609,863.76,602.09,864.87,598.82,864.6Z"/><path fill="#362e91" d="M593.67,845.41c-.65-.86-2.15-3.15-4.8-1.25s-3.4,4.35-3.07,6.32,6,.51,6.25.21S593.67,845.41,593.67,845.41Z"/><path fill="#fff" d="M596.29,847.88a11.59,11.59,0,0,0-5.18,5,1.56,1.56,0,0,1-2.08.75,1.58,1.58,0,0,1-.75-2.09,14.76,14.76,0,0,1,6.79-6.57,1.56,1.56,0,1,1,1.22,2.88Z"/><path fill="#fff" d="M601.1,851a11.66,11.66,0,0,0-5.17,5,1.56,1.56,0,0,1-2.82-1.35,14.64,14.64,0,0,1,6.77-6.57A1.56,1.56,0,0,1,601.1,851Z"/><path fill="#facfa7" d="M586.58,682c2.34,29,6.23,56.66,6.23,79.95,0,26.66-4.63,54.73-4.91,77.07.25,6.85-7.53,12.22-10.81,6.17-.15-2,.79-4.51.45-7.43-2-17-7.82-43.15-2.91-65.15-6.75-29.16-25.33-65.19-22.58-88.07C560.49,680.29,580.12,679.89,586.58,682Z"/><path fill="url(#H)" d="M558.2,854.4c-4.88.8-6.29,8.66-3.85,13.6,1.51,1.7,5.35,3.29,5.35,3.29s15.41,6.33,18.88,6.6,11.17-1,11.8-6.94c-.59-3.62-3.64-4.61-7.38-6.83-4.85-2.89-9-7.08-12.94-9C566.83,853.53,558.2,854.4,558.2,854.4Z"/><path fill="#facfa7" d="M567.57,849.39c-2.38.39-10,2.28-10,2.28s-2.84,7.93,1.64,9.33c8.68,2.73,16.07-3.1,12.66-5C569.55,854.64,567.29,853.16,567.57,849.39Z"/><path fill="#121047" d="M578.47,876.31C574.9,876,559,869.52,559,869.52a20.68,20.68,0,0,1-5.33-3.24,11.75,11.75,0,0,0,.65,1.72c1.51,1.7,5.35,3.29,5.35,3.29s15.41,6.33,18.88,6.6,11.17-1,11.8-6.94c0-.12-.07-.23-.09-.35C588.65,875.47,581.74,876.58,578.47,876.31Z"/><path fill="#362e91" d="M573.31,857.12c-.64-.86-2.14-3.15-4.79-1.26s-3.4,4.35-3.08,6.33,6,.51,6.26.21S573.31,857.12,573.31,857.12Z"/><path fill="#fff" d="M575.93,859.58a11.66,11.66,0,0,0-5.17,5,1.57,1.57,0,0,1-2.83-1.34,14.82,14.82,0,0,1,6.78-6.58,1.57,1.57,0,0,1,2,.83A1.55,1.55,0,0,1,575.93,859.58Z"/><path fill="#fff" d="M580.75,862.66a11.62,11.62,0,0,0-5.17,5,1.56,1.56,0,1,1-2.82-1.34,14.63,14.63,0,0,1,6.77-6.57,1.56,1.56,0,1,1,1.22,2.88Z"/><path fill="#facfa7" d="M570.62,694.44c0,26.68.29,56.53.29,79.82,0,26.66-3.08,54.08-3.36,76.41.24,6.85-7.53,12.22-10.82,6.18-.14-2,.8-4.52.45-7.44-2-17-7.81-43.14-2.91-65.14-6.74-29.16-17.14-59.88-11-89.62C551.75,690.46,564.17,692.39,570.62,694.44Z"/><path fill="url(#I)" d="M550.55,663.84c2.21-20.11-7.28-42.78-9-55.35-1.09-7.92-1.89-17.21,5.29-19.44,7.42-2.31,10.52-2,16.85-3.23,15.48-2.89,22.73,3.57,25.89,14.23,3,10.05,5.07,13.1,7.52,22.94,1.1,4.41-13.46,11.59-12.06,30.63,12.34,17.14,20.9,55.44,24.18,84.32,1.26,8.7-7.59,19.88-23.24,27.71-19.74,9.88-42.75,10.67-51.4,1.77A11.15,11.15,0,0,1,531.3,760C531.29,749.73,537.11,680.53,550.55,663.84Z"/><path fill="#facfa7" d="M558.16,567c.28-4.76,16.57,4.72,16.22,11-.3,5.12-1,10.27,1,10.93,2.22,1.6,8.84,18.57,4.86,22.54-13.84-5.66-21.06-17.66-33.37-22.39C551.86,588,557.28,582.4,558.16,567Z"/><path fill="#fcd1a9" d="M541.7,601.36c2-11.37,15.85-5.9,14.8,5.81-.59,14.22,0,26.68,2.7,36.15,1.94,6.7,13.89,17.36,27.36,24.75,2.26,1.24,7,1.5,11-1.34s3.76,1.89-.22,4c-2.93,1.58,1.58,3.32,4.92,3.8h0a22.76,22.76,0,0,0,7,.16c1.27,0,2.28,1,1.4,1.92a1.2,1.2,0,0,1,.38,2.3c1.15.47,1.37,2.11-.42,2.72.72.93,0,2.18-3.48,3.12a27.78,27.78,0,0,1-11.81,0l-.24-.07h0a14.87,14.87,0,0,1-7.06-4.36,12.8,12.8,0,0,0-3.16-2.2c-20.8-11.08-32.06-16.64-38.06-30.44C544.46,642.28,541.68,621,541.7,601.36Z"/><path fill="#facfa7" d="M554.24,560.38l4.9-12.27h31.09v18.7c0,10.34-7,18.72-15.54,18.72-8.33,0-15.07-7.9-15.47-17.8l-2.17,0Z"/><path fill="#f0c09b" d="M561.9,577.31c2.67,4.75,7.08,7.91,12.14,8.17a5,5,0,0,0,.79,3.08,11.32,11.32,0,0,1-2.46-.22C567.18,587.07,563.43,582.78,561.9,577.31Z"/><path fill="url(#J)" d="M572.93,535.06h-.29a18.93,18.93,0,0,0-2.14,0h0c-.43,0-.86.07-1.28.13-16.81,2-19.05,19-26,23.73-4.28,2.87-13.83-2.55-19.42,7.14-6.43,11.12,4,15.16-2.84,19.87s-12.05,19.1-.69,27.93,25.57,1.07,24-11.86c-1.16-9.31,1.6-14.11,9.42-11.1,5.86,2.25,8.1-2.37,5.46-8.33,13,1.3-.63-23.53,19-33.79,3.38-.28,6.77,3.36,12.15,1.44C591.17,548.16,589.89,535.49,572.93,535.06Z"/><path d="M567.51,654.47c-4.35-4.09-7.41-8-8.31-11.15-2.74-9.47-3.29-21.93-2.7-36.15a12.74,12.74,0,0,0-.73-5.6,12.51,12.51,0,0,1,1.54,5.43c1.51,14.15,3.89,26.4,8,35.37C567,646,567.51,654.47,567.51,654.47Z" style="mix-blend-mode:multiply" fill="url(#K)"/><polygon fill="#bbc0e6" points="594.6 864.19 652.77 830.6 652.77 796.26 594.6 829.85 594.6 864.19"/><polygon fill="#bbc0e6" points="512.8 911.41 570.98 877.83 570.98 843.48 512.8 877.07 512.8 911.41"/><polygon fill="#ced3f8" points="372.84 830.61 512.81 911.41 512.81 877.07 372.84 796.26 372.84 830.61"/><path fill="url(#L)" d="M600,846.6c-6.52,3.76-17.1,3.76-23.62,0L571,843.48v34.35l5.39,3.11c6.52,3.77,17.1,3.77,23.62,0,3.3-1.9,4.93-4.41,4.89-6.91V839.87C604.84,842.31,603.21,844.74,600,846.6Z"/><path fill="#ced3f8" d="M425.62,759.56c-3.09-1.78-4.7-4.09-4.86-6.43V768.6L431,762.68Z"/><path fill="url(#M)" d="M600,728.75c-6.52-3.76-17.1-3.76-23.62,0L571,731.87v34.34l5.39-3.11c4.93-2.85,12.17-3.54,18.23-2.09v-15.5l5.39-3.12C606.51,738.63,606.51,732.52,600,728.75Z"/><path fill="#f6f6fb" d="M600,833l-5.39-3.11,58.17-33.59L594.6,762.68l5.39-3.12c6.52-3.76,6.52-9.87,0-13.63s-17.1-3.77-23.62,0L571,749l-58.17-33.58L454.63,749h0l-5.39-3.11c-6.52-3.77-17.1-3.77-23.62,0s-6.52,9.87,0,13.63l5.39,3.12h0l-58.17,33.58,140,80.81L571,843.49l5.39,3.11c6.52,3.77,17.1,3.77,23.62,0S606.51,836.73,600,833Z"/><polygon fill="#5652cc" points="570.98 749.04 512.81 715.46 512.81 698.28 570.98 731.87 570.98 749.04"/><path d="M602.64,747.93a12.93,12.93,0,0,0-2.65-2c-6.52-3.77-17.09-3.77-23.62,0L571,749h29.74Z" style="mix-blend-mode:multiply" fill="#c4cae9"/><polygon fill="#5652cc" points="652.77 796.26 594.6 762.68 594.6 745.51 652.77 779.09 652.77 796.26"/><polygon fill="#423eaf" points="734.56 766.21 792.74 732.63 792.74 698.29 734.56 731.87 734.56 766.21"/><polygon fill="#423eaf" points="652.77 813.44 710.94 779.85 710.94 745.51 652.77 779.09 652.77 813.44"/><path fill="url(#N)" d="M740,748.62c-6.53,3.77-17.1,3.77-23.62,0l-5.4-3.11v34.34l5.4,3.12c6.52,3.76,17.09,3.76,23.62,0,3.3-1.91,4.92-4.41,4.88-6.91V741.89C744.8,744.33,743.18,746.76,740,748.62Z"/><path fill="#807dfb" d="M740,735l-5.4-3.11,58.17-33.58L734.56,664.7l-5.39,3.11c-6.53,3.77-17.1,3.77-23.62,0s-6.52-9.87,0-13.63l5.39-3.12-58.17-33.58-140,80.8L571,731.87l5.39-3.11c6.53-3.77,17.1-3.77,23.62,0s6.52,9.87,0,13.63l-5.39,3.12,58.17,33.58,58.17-33.58,5.4,3.11c6.52,3.77,17.1,3.77,23.62,0S746.48,738.75,740,735Z"/><path d="M734.56,664.7l-5.39,3.11a23.91,23.91,0,0,1-11.53,2.82h27.2Z" style="mix-blend-mode:multiply" fill="#c4cae9"/><polygon fill="#362e94" points="710.95 651.07 652.77 617.48 652.77 600.31 710.95 633.89 710.95 651.07"/><polygon fill="#362e94" points="792.74 698.29 734.56 664.7 734.56 647.53 792.74 681.11 792.74 698.29"/><path fill="url(#O)" d="M705.55,650.64c6.52,3.77,17.1,3.77,23.62,0l5.39-3.11V664.7l-5.39,3.12c-6.52,3.76-17.1,3.76-23.62,0-3.3-1.91-4.93-4.41-4.89-6.91v-17C700.7,646.35,702.33,648.78,705.55,650.64Z"/><path fill="url(#P)" d="M845.51,630.78c6.53-3.77,17.1-3.77,23.63,0l5.39,3.11v34.34l-5.39-3.11c-4.93-2.85-12.17-3.54-18.23-2.08V647.53l-5.4-3.12C839,640.65,839,634.54,845.51,630.78Z"/><polygon fill="#20196f" points="874.53 668.24 932.7 634.65 932.7 600.31 874.53 633.89 874.53 668.24"/><polygon fill="#20196f" points="792.74 715.46 850.91 681.87 850.91 647.53 792.74 681.11 792.74 715.46"/><path fill="#362e94" d="M705.55,563.61c-3.09-1.79-4.7-4.1-4.86-6.43v15.46l10.25-5.92Z"/><path fill="url(#Q)" d="M879.92,532.8c-6.52-3.77-17.09-3.77-23.62,0l-5.39,3.11v34.35l5.39-3.12c4.93-2.84,12.17-3.53,18.23-2.08V549.55l5.39-3.12C886.44,542.67,886.45,536.56,879.92,532.8Z"/><path fill="#423eaf" d="M850.91,647.53l-5.4-3.12c-6.52-3.76-6.52-9.87,0-13.63s17.1-3.77,23.62,0l5.4,3.11h0l58.17-33.58-58.17-33.59h0l5.39-3.12c6.52-3.76,6.52-9.87,0-13.63s-17.09-3.77-23.62,0l-5.39,3.11h0L792.74,519.5l-58.18,33.59L729.17,550c-6.53-3.76-17.1-3.76-23.62,0s-6.52,9.87,0,13.64l5.39,3.11-58.17,33.59L711,633.89l-5.4,3.12c-6.52,3.76-6.52,9.87,0,13.64s17.09,3.76,23.62,0l5.39-3.12,58.18,33.59,58.17-33.59Z"/><path d="M882.57,552a12.35,12.35,0,0,0-2.65-2c-6.52-3.76-17.09-3.76-23.61,0l-5.4,3.12h29.74Z" style="mix-blend-mode:multiply" fill="#c4cae9"/><polygon fill="#dc8b00" points="1014.49 570.26 1072.66 536.67 1072.67 502.33 1014.49 535.91 1014.49 570.26"/><path fill="#ffd03e" d="M1019.89,539l-5.4-3.12,58.17-33.58-140-80.81-58.17,33.59h0l5.39,3.11c6.53,3.77,6.53,9.87,0,13.64s-17.09,3.76-23.61,0l-5.4-3.12h0l-58.17,33.59,58.17,33.58,5.4-3.11c6.52-3.77,17.09-3.77,23.61,0s6.53,9.87,0,13.64l-5.39,3.11,58.17,33.59,58.17-33.59,5.4,3.12c6.52,3.76,17.1,3.76,23.62,0S1026.41,542.79,1019.89,539Z"/><polygon fill="#dc8b00" points="932.7 617.48 990.87 583.89 990.87 549.55 932.7 583.14 932.7 617.48"/><path fill="url(#R)" d="M1019.88,552.66c-6.52,3.77-17.09,3.77-23.61,0l-5.4-3.11v34.34l5.4,3.12c6.52,3.76,17.09,3.76,23.61,0,3.3-1.91,4.93-4.41,4.89-6.91V545.93C1024.73,548.37,1023.11,550.8,1019.88,552.66Z"/><polygon fill="#fcba06" points="850.91 553.09 792.74 519.5 792.74 502.33 850.91 535.91 850.91 553.09"/><polygon fill="#fcba06" points="932.7 600.31 874.53 566.72 874.53 549.55 932.7 583.14 932.7 600.31"/><path fill="#fcba06" d="M879.92,471.86c6.53-3.77,6.53-9.87,0-13.64l-5.39-3.11v18.83A20.21,20.21,0,0,0,879.92,471.86Z"/><polygon points="708.68 1056.82 607.67 1056.89 598.38 1077.35 603.69 1090.86 708.68 1090.8 708.68 1056.82" style="mix-blend-mode:multiply" fill="url(#S)"/><path fill="url(#g)" d="M636.56,1071.53c0-14.81-9.4-15.25-9.4-15.25s-5.08,0-13.34-3.42-19.64-2.08-13.21,9.76a2.58,2.58,0,0,0,.22.44,5.63,5.63,0,0,0,2.08,1.82l20.52,12C626.55,1078.71,636.48,1074.58,636.56,1071.53Z"/><path fill="#1e1c6b" d="M636.5,1070.2c-.18,3-10,7.09-13.07,5.32l-20.52-12a19.3,19.3,0,0,1-2.9-2.11c.2.41.36.8.6,1.24a2.58,2.58,0,0,0,.22.44,5.63,5.63,0,0,0,2.08,1.82l20.52,12c2.92,1.67,11.82-1.84,13-4.8a3.11,3.11,0,0,0,.1-.6A9.64,9.64,0,0,0,636.5,1070.2Z"/><path fill="#facfa7" d="M615.72,910.7c9,1.32,32.18,28.92,29.7,40.63-2.42,11.47-7.36,22.76-10.5,37.92,3.66,24.73-1.78,49.8-1.78,71a17.57,17.57,0,0,0-2.25,1.14,6.6,6.6,0,0,0-2.31,2.63,5.52,5.52,0,0,1-7.17.51c-4-2.5-2.28-4.35-.6-5.52a3.36,3.36,0,0,0,.24-.29,4.52,4.52,0,0,0,.69-1.73c-1.24-21.82-3.71-40.49-4.31-66.56C617.25,963.64,614.6,938.13,615.72,910.7Z"/><path fill="#fff" d="M614.56,1054.05a7.94,7.94,0,0,0-3.53,3.43,1.06,1.06,0,0,1-1.42.5,1.07,1.07,0,0,1-.5-1.42,10,10,0,0,1,4.61-4.47,1.07,1.07,0,1,1,.84,2Z"/><path fill="#fff" d="M619.05,1055.86a8,8,0,0,0-3.52,3.43,1.06,1.06,0,0,1-1.92-.91,10,10,0,0,1,4.61-4.48,1.06,1.06,0,1,1,.83,2Z"/><path fill="url(#T)" d="M612.75,1085.25c0-14.81-9.39-15.25-9.39-15.25s-5.09,0-13.35-3.42-19.63-2.08-13.21,9.76a2.26,2.26,0,0,0,.22.44,5.63,5.63,0,0,0,2.08,1.82l20.52,12C602.74,1092.43,612.68,1088.3,612.75,1085.25Z"/><path fill="#1e1c6b" d="M612.69,1083.92c-.18,3-10,7.09-13.07,5.32l-20.52-12a18.61,18.61,0,0,1-2.9-2.11c.2.41.36.8.6,1.24a2.26,2.26,0,0,0,.22.44,5.63,5.63,0,0,0,2.08,1.82l20.52,12c2.92,1.67,11.82-1.84,13-4.8a4,4,0,0,0,.09-.6A9.67,9.67,0,0,0,612.69,1083.92Z"/><path fill="#facfa7" d="M591.92,924.42c9,1.32,34.79-13.19,43.76-11.87,1.87,46.05-11.59,40.79-14.07,52.51-2.42,11.46-7.36,22.76-10.5,37.91,3.66,24.72-1.78,49.8-1.78,71a16.81,16.81,0,0,0-2.24,1.14,6.7,6.7,0,0,0-2.32,2.63,5.52,5.52,0,0,1-7.17.51c-4-2.5-2.27-4.35-.59-5.51a3.36,3.36,0,0,1,.24-.29,4.74,4.74,0,0,0,.68-1.74c-1.24-21.82-3.71-40.49-4.31-66.57C593.45,977.36,590.8,951.85,591.92,924.42Z"/><path fill="#fff" d="M590.75,1067.77a7.94,7.94,0,0,0-3.53,3.43,1,1,0,0,1-1.41.5,1.07,1.07,0,0,1-.51-1.42,10,10,0,0,1,4.62-4.47,1.06,1.06,0,0,1,.83,2Z"/><path fill="#fff" d="M595.24,1069.58a8,8,0,0,0-3.52,3.43,1.06,1.06,0,0,1-1.92-.91,10,10,0,0,1,4.61-4.48,1.07,1.07,0,0,1,1.4.57A1.06,1.06,0,0,1,595.24,1069.58Z"/><path fill="#facfa7" d="M632,788.13c12.92,12.93,15.32,46.43,2.81,77.83-2.42,6.07-6.54-.29-6.54-.29l2.27-44.26Z"/><path fill="url(#U)" d="M595.15,861.26c-7-27.38-8.79-46-3.58-56.89,4.93-10.36,26-21.47,32.11-20.25,27.9,5.57,11.42,59.06,12.88,78.86,11.2,16.92,19.59,51.74,19.59,85.19,1.3,9-7.91,20.68-24.18,28.82-20.53,10.27-44.46,11.1-53.45,1.84a11.53,11.53,0,0,1-3.39-7.74C575.11,960.43,577,892.17,595.15,861.26Z"/><path fill="#fcd1a9" d="M625.84,790.47c-2.87-4-2.81-12-2.19-18.18A30.64,30.64,0,0,0,625,761.58c-.71-13.7-10-24.35-20.7-23.8s-18.85,12.1-18.15,25.8a26.9,26.9,0,0,0,18.94,24.26c.69,2.08-2.31,4.81-3.93,6.1,7.39,3.62,15.94.32,20.19-1C623.54,792.25,625.16,791.48,625.84,790.47Z"/><path fill="#facfa7" d="M552.62,888.42c12.94-5.62,30.29-18.93,31.17-24.85,2.68-17.86,2.22-34.14,4.9-51.28.7-4.32,3.42-8.66,9.66-8.18,5,.38,8.31,4.44,7.67,10.9a23.31,23.31,0,0,1-.43,2.76c-2.58,16.6-5.67,35.13-9.57,52-2.18,9.41-20.89,20.44-35.93,25.45a32.27,32.27,0,0,1-15.76-2Z"/><path fill="url(#V)" d="M639.92,801.85c1.78-6.85-3.17-10.24-8.11-16.42-7.79-9.73-2-7.41-3.77-23.56s-12.64-29.44-29.84-26.52c-8.72,1.48-15.8,14.15-9,25.6h0c10.6,11.81,1.33,17.65,3.31,21.21,2.12,3.82,4.63.59,5.36,5.74s-9.15,15.83-8.29,21.22c4,8.46,10.64-9.3,14-.15,2.36,6.52-7.59,19.77,8.31,19s18.52-4.65,14.11-10c-3.33-4,11.21-1.34,5.21-9.34C627.28,803.42,638.36,807.87,639.92,801.85Z"/><rect width="87.07" height="20.5" x="872.36" y="898.52" style="mix-blend-mode:multiply" fill="url(#h)"/><rect width="87.16" height="20.5" x="923.68" y="868.93" style="mix-blend-mode:multiply" fill="url(#W)"/><path fill="url(#i)" d="M935.48,883.11c0-16.11-10.2-16.57-10.2-16.57s-5.53,0-14.51-3.72-21.34-2.27-14.37,10.6a3.58,3.58,0,0,0,.24.48,6.26,6.26,0,0,0,2.27,2L921.21,889C924.61,890.91,935.4,886.43,935.48,883.11Z"/><path fill="#131147" d="M935.42,881.67c-.19,3.31-10.84,7.71-14.21,5.78l-22.3-13.08a20.59,20.59,0,0,1-3.15-2.29c.21.44.39.87.64,1.34a3.58,3.58,0,0,0,.24.48,6.26,6.26,0,0,0,2.27,2L921.21,889c3.18,1.82,12.86-2,14.13-5.22a3.56,3.56,0,0,0,.1-.65A9.71,9.71,0,0,0,935.42,881.67Z"/><path fill="#fff" d="M931.34,864.42c-2.63,0-11.88,2.35-11.88,2.35a5.28,5.28,0,0,1-.83,2.4l-.26.31c-1.82,1.27-3.68,3.28.65,6,3.54,2.23,6.43.81,7.8-.55a7.08,7.08,0,0,1,2.51-2.86,6.67,6.67,0,0,1,2.42-1,1,1,0,0,1,0-.22S932.44,864.42,931.34,864.42Z"/><path fill="#20196f" d="M931.5,706.94l-45.37.82c3.75,30.31,11.3,57.84,16.35,87.19,5.41,28.53,11.51,48.58,16.84,72.33,1.95,4.42,10.86,2.75,12.67-1.51,1.41-21.87,3-48.5-3.45-73.73C929.63,764.85,932.13,734.4,931.5,706.94Z"/><path fill="url(#X)" d="M884.65,912.7c0-16.1-10.21-16.57-10.21-16.57s-5.53,0-14.51-3.72-21.34-2.26-14.36,10.61a3.07,3.07,0,0,0,.24.48,6.21,6.21,0,0,0,2.26,2l22.3,13.08C873.77,920.51,884.57,916,884.65,912.7Z"/><path fill="#131147" d="M884.59,911.26c-.19,3.31-10.85,7.71-14.22,5.78L848.07,904a20.59,20.59,0,0,1-3.15-2.29c.21.45.39.87.65,1.35a3.07,3.07,0,0,0,.24.48,6.21,6.21,0,0,0,2.26,2l22.3,13.08c3.18,1.82,12.86-2,14.14-5.22a3.46,3.46,0,0,0,.09-.65A9.73,9.73,0,0,0,884.59,911.26Z"/><path fill="#fff" d="M880.5,894c-2.63,0-11.88,2.36-11.88,2.36a5.23,5.23,0,0,1-.83,2.39c-.09.1-.17.21-.26.32-1.82,1.27-3.68,3.27.65,6,3.55,2.23,6.43.81,7.8-.55a7.08,7.08,0,0,1,2.51-2.86,6.6,6.6,0,0,1,2.41-1,1.69,1.69,0,0,1,0-.21S881.59,894,880.5,894Z"/><path fill="url(#Y)" d="M899.5,779c2.76-13,34.56-14.65,32.47-65.89-10-1.46-60.31,22.14-70.28,20.68-1.25,30.51,1.7,58.91,1.89,88.69.67,29,3.42,49.81,4.8,74.11,1.19,4.68,10.27,4.48,12.75.58,5-21.34,10.91-47.36,8.64-73.31C892.74,809.51,896.27,794.28,899.5,779Z"/><path fill="#dc8b00" d="M909,613.64c35.51,23.73,26.5,62.59.74,78C909.7,691.59,933.63,648.14,909,613.64Z"/><path fill="url(#Z)" d="M910.58,742.18c-21.61,12.13-44.22,12.16-51.93-2.75,2.89-27.76,5.59-50.36,0-77,1.65-14.7,2.8-16.9.92-25.47.67-2.88,9.5-9,15.95-14.89,7-6.36,11.65-12.39,15.24-13.13,29.55-6,43.9,46.63,41.44,102.77C929.93,726.68,921.23,736.21,910.58,742.18Z"/><path fill="#fcd1a9" d="M907.16,612.33c-6.4-4.63-5.45-7.66-4.49-14a31.47,31.47,0,0,0,1.93-10.88c0-14-8.94-26.18-19.9-25.42-22.09,1.51-18.16,13.13-18.16,27.17,0,13,5.9,22,15.77,23.47,0,2.14-.57,3.36-3.25,6,7.21,4.32,17.74,2.29,21.9.41C905.39,617.16,910.17,615.44,907.16,612.33Z"/><path fill="#131147" d="M901.69,561.15c-3.84-3.7-8.32-.15-10.55-1.31l-1.21-.58h0c-2.93-1.74-1.52-3-4.23-4.64s-5.28.62-7,0h0c-4.12-1.29-7.84-1.83-9.47-.32a11.61,11.61,0,0,0-2.11,2.79h0c-1.39,2.32-6.19-.67-5.89,4.35.28,4.71,2,6.28,2.79,13.49,0,.41.06.83.11,1.24a1.52,1.52,0,0,0,0,.23h0c.55,4.66,2.05,5.9,4.42,8.28s2.23.12,2.35-.79c.21-1.72.7-3.24,1.72-3.18s3.1.59,4.15,5.11c.76,3.27-1.44,2.55-1.24,3.45,3,13.29,7.92,12.28,13.56,13.87a17.18,17.18,0,0,0,13.29-1.32c1.36-5.09,1.9-8.08,2.56-10.46a41.41,41.41,0,0,0,0-14.43s0,0,0,0C903.35,570.73,905.45,564.78,901.69,561.15Z"/><path fill="url(#aa)" d="M883.93,638.71c-8.55-14.24-26.51-8.48-27.67,8-.53,13,.84,30.29-3.31,43.06A70.33,70.33,0,0,1,842,687l-17.1,9.87c9,7.21,20.12,13.35,33.79,15.54C877.19,704.62,889.9,652.33,883.93,638.71Z"/><path fill="url(#ab)" d="M906.75,612l.41.32c3,3.11-1.77,4.83-6.2,6.84-4.16,1.87-14.69,3.91-21.9-.41h0c0-1.12,1.7-4.48,3.21-5.12.67,1.45,6.83,4.44,18.92-.73,5.45-2.33,2.31-3.36,2.16-4.21,1,0,2.38,1.92,3.79,3.59Z"/><path fill="#fcba06" d="M857.32,349.65v-8.36c-8.94-5.17-15.69-16.57-15.69-26.52v-34L862.9,293v-8.36l-28.51-16.47v42.38C834.39,325.07,844.47,342.22,857.32,349.65Z"/><polygon fill="#ffd03e" points="834.39 268.21 841.63 264.04 870.14 280.5 862.9 284.68 834.39 268.21"/><path fill="#e19100" d="M848.87,284.94v25.65c0,10,6.75,21.35,15.69,26.52l-7.24,4.18c-8.94-5.17-15.69-16.57-15.69-26.52v-34Z"/><path d="M914.21,484c17.35-10,45.48-10,62.83,0s17.35,26.26,0,36.28-45.48,10-62.83,0S896.85,494,914.21,484Z" style="mix-blend-mode:multiply" fill="url(#ac)"/><path fill="#f7f7fc" d="M901,475.37c17.35-10,45.48-10,62.84,0s17.35,26.26,0,36.27-45.49,10-62.84,0S883.65,485.38,901,475.37Z"/><path d="M932.42,506.25H971c7.35-7.4,7.78-16.46,1.31-24.06H932.42Z" style="mix-blend-mode:multiply" fill="url(#ad)"/><path fill="url(#ae)" d="M963.84,511.64c-17.36,10-45.49,10-62.84,0-8.68-5-13-11.57-13-18.14h0v8.66c0,6.57,4.33,13.13,13,18.14,17.35,10,45.48,10,62.84,0,8.67-5,13-11.57,13-18.14V493.5C976.85,500.07,972.51,506.64,963.84,511.64Z"/><path fill="#ffd03e" d="M916.81,475.84c8.62-5,22.6-5,31.22,0s8.62,13,0,18-22.6,5-31.22,0S908.19,480.81,916.81,475.84Z"/><path d="M932.42,491.22h19.09c4-4,3.94-8.85,0-12.79H932.42Z" style="mix-blend-mode:multiply" fill="url(#af)"/><path fill="url(#j)" d="M948,493.86c-8.62,5-22.6,5-31.22,0-4.31-2.49-6.47-5.75-6.47-9h0v8.65h0c0,3.27,2.16,6.53,6.47,9,8.62,5,22.6,5,31.22,0,4.31-2.49,6.46-5.75,6.46-9v-8.65C954.49,488.11,952.34,491.37,948,493.86Z"/><path fill="url(#ag)" d="M921.38,444.54v40.31h0c0,1.63,1.08,3.26,3.24,4.5a17.22,17.22,0,0,0,15.6,0c2.16-1.24,3.23-2.87,3.23-4.5V444.54Z"/><path d="M921.38,453.18c0,1.63,1.08,3.26,3.24,4.51a17.28,17.28,0,0,0,15.6,0c2.16-1.25,3.23-2.88,3.23-4.51v-8.64H921.38Z" style="mix-blend-mode:multiply" fill="url(#ah)"/><path fill="url(#ai)" d="M1027.15,313H837.69c0,66.83,46.57,138,94.73,138h0C980.57,450.9,1027.15,379.78,1027.15,313Z"/><path fill="#ffd03e" d="M865.44,274.28c37-21.36,97-21.36,134,0s37,56,0,77.34-97,21.36-134,0S828.44,295.64,865.44,274.28Z"/><path fill="url(#aj)" d="M870.78,277.37c34-19.66,89.23-19.66,123.27,0s34,51.51,0,71.16-89.22,19.66-123.26,0S836.75,297,870.78,277.37Z"/><path fill="#e19100" d="M1016.82,434.22l.9-4.82s6.06-5.85,6.06-9.85V377.18h0L1031,373v42.38c0,6.79-2.23,11.6-5.91,14h0Z"/><path fill="#fcba06" d="M1000.86,432.13c12.85,7.43,22.92,1.9,22.92-12.58V377.18l-28.51-16.47v8.36l21.28,12.29v34c0,9.95-6.75,13.56-15.69,8.4Z"/><polygon fill="#ffd03e" points="995.27 360.71 1002.51 356.53 1031.03 373 1023.78 377.18 995.27 360.71"/><path fill="#f3b378" d="M1015.18,421.91c-2.39,4.7-7.76,5.65-14.32,1.86l7.24-4.18A15.77,15.77,0,0,0,1015.18,421.91Z"/><polygon points="709.72 664.83 669.5 664.83 662.9 684.59 743.95 684.59 709.72 664.83" style="mix-blend-mode:multiply" fill="url(#k)"/><polygon points="802.08 630.57 768.57 630.57 761.97 650.32 836.18 650.25 802.08 630.57" style="mix-blend-mode:multiply" fill="url(#ak)"/><path fill="#fcd1a9" d="M652.85,497.72c2.62,4.52,7.18,9.24,8.27,12.17a28.25,28.25,0,0,1,1.4,8.47c0,1.52-1.15,6-3,5.22s-2.59,1.17-4.49.79-1.21-1.06-1.21-1.06c-1,.36-2.34.37-2.71-.4-.85.28-1.24,1.16-2.64-.51-1.14-1.37-1.48-3.92-2.36-5.3-2.85-4.42-1.65-17.42-2.22-18.75S651,494.58,652.85,497.72Z"/><path fill="url(#al)" d="M678.05,391.92c-37.4,23.89-41.73,71-35.3,109.53,4.4,6.4,13.87,3.27,12.79-2.67C651.69,454.9,658.64,413.61,678.05,391.92Z"/><path fill="url(#am)" d="M649.9,677.87c0-17.09,10.83-17.58,10.83-17.58s5.87,0,15.4-4,22.65-2.4,15.25,11.27a3.43,3.43,0,0,1-.26.5,6.64,6.64,0,0,1-2.4,2.11l-23.67,13.88C661.44,686.15,650,681.39,649.9,677.87Z"/><path fill="#131147" d="M650,676.34c.2,3.51,11.5,8.18,15.08,6.14l23.67-13.88a22.78,22.78,0,0,0,3.33-2.43c-.21.46-.4.91-.67,1.43a3.43,3.43,0,0,1-.26.5,6.64,6.64,0,0,1-2.4,2.11l-23.67,13.88c-3.37,1.92-13.65-2.13-15-5.54a4.39,4.39,0,0,1-.11-.69A11,11,0,0,1,650,676.34Z"/><path fill="#fff" d="M654.31,658c2.79,0,12.61,2.5,12.61,2.5a5.48,5.48,0,0,0,.87,2.55,2.24,2.24,0,0,1,.27.34c1.94,1.34,3.91,3.48-.68,6.35-3.77,2.36-6.82.86-8.28-.58a7.44,7.44,0,0,0-2.67-3,6.66,6.66,0,0,0-2.56-1.08c0-.08,0-.24,0-.24S653.14,658,654.31,658Z"/><path fill="url(#an)" d="M654.13,490.92l48.15.87c-4,32.17-12,61.38-17.35,92.53-5.75,30.27-12.22,51.55-17.87,76.75-2.07,4.7-11.53,2.91-13.45-1.59-1.5-23.21-3.22-51.49,3.66-78.25C656.12,552.37,653.45,520.06,654.13,490.92Z"/><path fill="url(#ao)" d="M748.86,643.62c0-17.08,10.84-17.57,10.84-17.57s5.85,0,15.39-4,22.65-2.4,15.24,11.26a3.07,3.07,0,0,1-.26.51,6.56,6.56,0,0,1-2.4,2.11L764,649.85C760.4,651.91,749,647.14,748.86,643.62Z"/><path fill="#131147" d="M748.92,642.09c.21,3.52,11.51,8.19,15.09,6.14l23.66-13.88a20.89,20.89,0,0,0,3.34-2.44c-.22.48-.4.94-.68,1.44a3.07,3.07,0,0,1-.26.51,6.56,6.56,0,0,1-2.4,2.11L764,649.85c-3.37,1.93-13.64-2.13-15-5.54a3.27,3.27,0,0,1-.1-.69A11.15,11.15,0,0,1,748.92,642.09Z"/><path fill="#fff" d="M753.26,623.8c2.78,0,12.61,2.49,12.61,2.49a5.51,5.51,0,0,0,.88,2.54c.1.11.18.22.27.33,1.94,1.35,3.91,3.49-.69,6.37-3.76,2.37-6.81.86-8.27-.59a7.65,7.65,0,0,0-2.67-3,6.9,6.9,0,0,0-2.56-1.08,1,1,0,0,0,0-.22S752.1,623.8,753.26,623.8Z"/><path fill="url(#ap)" d="M728.21,519.43c-10.59,1.56-64-23.49-74.58-21.93-2.21,62.15,48.64,59.54,92.72,56l.37-.07a255.39,255.39,0,0,0,5.87,73.74c2.64,4.14,12.26,4.35,13.53-.61,1.46-25.8,7.93-47.84,8.65-78.65C775,516.3,752.59,520.16,728.21,519.43Z"/><path fill="url(#aq)" d="M676.33,528.32c22.93,12.87,46.93,12.9,55.11-2.92-3.06-29.47-5.93-53.44,0-81.67-1.74-15.6-3-18-1-27-.7-3.06-10.08-9.56-16.92-15.8-7.39-6.74-12.38-13.16-16.18-13.94-31.36-6.39-46.59,49.49-44,109.06C655.8,511.87,665,522,676.33,528.32Z"/><path fill="#fcd1a9" d="M680,390.52c6.8-4.91,9.68-17,10.69-23.72a33.18,33.18,0,0,1,1.48-11.63c4.43-14.23,17.33-23.7,28.19-19.46,21.89,8.5,14.24,19,9.81,33.25-4.11,13.18-12.91,20.39-23.38,18.81-.68,2.16.19,6.73,3,9.57-7.65,4.59-18.82,2.43-23.24.44C681.84,395.65,676.76,393.83,680,390.52Z"/><path fill="#20196f" d="M731,330.8c-.11-1.94-3.27-3.95-16.12-2.23-.08,0-3.12.43-3.32.47-24,4.2-24.76,30.56-23.1,38a13.82,13.82,0,0,1-.18,8.3c8.65,1.7,10.2,7.16,16.82,3.67,4.75-2.49,11.6-5.11,13-6.56a6.86,6.86,0,0,0,1.79-4c2.91-12,6.71-3.35,5.86-.64,2.54-.55,3.55-5.43,4.68-10.84h0C752.23,347.65,744.59,335.77,731,330.8Z"/><path fill="#fcd1a9" d="M759,503.09c5.31,3.19,8.45-.06,11.47,1.51,2.85,1.47,1.69,3.46,3.19,4.16s3.93,1.41,4.79,6.12c1.27,6.92-4.61,10.62-7.76,11.42-2.87.72-4,2.41-10.69-3.32-2.74-2.33-1.06-5.16-7-8.86C754.46,513.45,759,503.09,759,503.09Z"/><path fill="url(#ar)" d="M718,411.57c7.53-1.52,11.35,1.31,12.49,5.13.87,7.37,5.84,53.94,6,57.12,6.56,8.12,13.33,17.33,24.24,28.91,6.2,6.57-1.37,17.13-7.8,13.46-2.82-1.61-27.86-21.09-33.42-29.44C709.42,475,705.68,442.09,705,434.07,703.45,422.53,710.43,413.09,718,411.57Z"/></g></svg>