<svg xmlns="http://www.w3.org/2000/svg" viewBox="0 0 550 400"><path fill="#0a0909" fill-rule="evenodd" d="m448.022 229.785-18.575 16.86-66.71-138.43-133.773 130.894-3.799-7.882-141.474 138.43h414.474l-50.143-139.872z"/><path fill="#fff" fill-rule="evenodd" d="m322.266 153.13-5.145-.353 1.526 5.344s3.38-5.322 3.619-4.992ZM266.407 213.048l-5.211-.503 1.527 5.344 3.684-4.841z"/><path fill="#fff" d="M303.326 365.793a.25.25 0 0 1-.036-.498c.379-.054 37.928-5.74 46.139-29.903a42.069 42.069 0 0 0 1.62-6.147c-8.599-2.742-15.59-12.095-16.514-15.954-.23-.963-.121-1.624.325-1.967 1.852-1.422 7.61-1.375 11.775 1.607 3.288 2.357 6.45 6.978 4.98 15.965q.763.221 1.54.368c5.763 1.08 10.798-1.417 14.948-7.423 5.627-8.14 8.554-15.669 9.664-21.766-5.302-3.753-7.229-9.448-6.865-12.517a2.922 2.922 0 0 1 1.832-2.712 3.535 3.535 0 0 1 4.06 1.547c1.763 2.395 2.58 7.167 1.503 13.438q.433.3.893.575c4.677 2.799 15.059 5.71 32.042-6.18a.25.25 0 0 1 .288.41c-17.216 12.053-27.805 9.059-32.586 6.2a18.8 18.8 0 0 1-.735-.464c-1.146 6.141-4.089 13.658-9.684 21.755-4.274 6.181-9.475 8.746-15.452 7.628q-.773-.145-1.533-.364a42.456 42.456 0 0 1-1.629 6.161c-8.31 24.454-46.158 30.183-46.539 30.238a.241.241 0 0 1-.036.002Zm35.388-54.888a6.32 6.32 0 0 0-3.549.815c-.268.205-.318.722-.144 1.453.902 3.763 7.716 12.874 16.112 15.576 1.4-8.694-1.63-13.147-4.79-15.41a13.344 13.344 0 0 0-7.63-2.434Zm35.089-25.729a3.091 3.091 0 0 0-.92.147 2.463 2.463 0 0 0-1.485 2.294c-.395 3.337 1.957 8.577 6.465 11.905.997-5.994.215-10.542-1.471-12.832a3.219 3.219 0 0 0-2.59-1.514ZM231.937 336.351c-.116 0-.23 0-.347-.003-17.134-.28-22.896-21.335-22.952-21.548a.25.25 0 0 1 .178-.304.247.247 0 0 1 .305.177c.056.21 5.724 20.902 22.477 21.175 7.762.152 10.077-4.184 10.63-7.918a6.557 6.557 0 0 1-5.029-2.382c-2.224-2.909-1.322-7.763.153-10.007.534-.812 1.086-1.173 1.588-1.046 1.618.403 4.47 7.207 3.851 12.965a21.787 21.787 0 0 0 7.153-1.286c6.168-2.02 9.973-5.047 11.309-8.995 1.871-5.531-1.84-11.032-1.878-11.087a.25.25 0 1 1 .412-.283c.04.057 3.89 5.756 1.94 11.526-1.387 4.108-5.3 7.242-11.626 9.314a22.075 22.075 0 0 1-7.372 1.307c-.56 3.887-2.91 8.395-10.792 8.395Zm6.81-21.38c-.262 0-.628.314-.977.846-1.225 1.863-2.33 6.606-.173 9.428a6.135 6.135 0 0 0 4.694 2.192c.63-5.715-2.183-12.136-3.472-12.458a.296.296 0 0 0-.072-.008ZM359.309 259.988a.25.25 0 0 1-.244-.194 18.837 18.837 0 0 1 1.737-12.803c-4.661-3.165-8.763-9.028-9.457-17.988-.693-8.923 1.916-14.65 5.435-17.837-.83-3.004-1.01-7.383.325-13.76 5.742-27.413 37.866-22.02 38.193-21.961a.25.25 0 0 1-.088.492 47.27 47.27 0 0 0-16.707.574c-11.508 2.64-18.543 9.705-20.907 20.997-1.287 6.146-1.156 10.381-.4 13.297a12.212 12.212 0 0 1 5.176-2.582c4.009-.874 7.679.58 8.742 3.46a4.039 4.039 0 0 1-1.539 4.559 7.898 7.898 0 0 1-8.848.673 8.981 8.981 0 0 1-3.788-5.214c-3.326 3.127-5.762 8.674-5.096 17.263.68 8.755 4.663 14.487 9.188 17.583a22.735 22.735 0 0 1 5.921-7.117c3.193-2.503 6.425-3.423 8.438-2.401 1.047.531 2.272 1.842 2.169 5.072-.152 4.68-3.193 7.652-7.937 7.76a15.355 15.355 0 0 1-8.402-2.594 18.344 18.344 0 0 0-1.668 12.414.25.25 0 0 1-.187.3.235.235 0 0 1-.056.007Zm2.14-13.163a14.831 14.831 0 0 0 8.161 2.536c4.453-.1 7.307-2.889 7.449-7.275.076-2.35-.58-3.944-1.896-4.61-1.839-.933-4.865-.033-7.902 2.348a22.225 22.225 0 0 0-5.813 7Zm-4.105-35.489a8.587 8.587 0 0 0 3.641 5.15 7.378 7.378 0 0 0 8.272-.63 3.519 3.519 0 0 0 1.388-4c-.976-2.645-4.408-3.968-8.166-3.145a11.725 11.725 0 0 0-5.135 2.625Z"/><path fill="#fff" fill-rule="evenodd" d="m333.457 136.864 15.565-4.561 5.786 16.554 10.929-14.141 13.528 7.797-16.528-34.298-29.28 28.649z"/><path fill="#fff" d="M433.946 210.958a.246.246 0 0 1-.103-.022.25.25 0 0 1-.124-.331c.185-.41 4.499-9.786 10.353-9.786.17 0 .34.008.512.023a4.263 4.263 0 0 1 4.401 5.435c2.81-2.795 13.772-13.068 22.143-12.757 2.009.08 3.401.796 4.138 2.128 1.85 3.346-.973 9.632-2.283 12.197 2.288-1.835 7.97-6.103 11.203-5.922a1.927 1.927 0 0 1 1.712.954c1.079 1.987-1.404 6.394-1.51 6.581a.25.25 0 1 1-.435-.248c.026-.043 2.453-4.351 1.506-6.094a1.439 1.439 0 0 0-1.303-.693c-3.805-.25-11.747 6.541-11.828 6.609a.25.25 0 0 1-.379-.314c.05-.089 5.054-8.894 2.88-12.828-.647-1.169-1.9-1.798-3.72-1.87a9.533 9.533 0 0 0-.376-.008c-9.236 0-21.92 13.148-22.05 13.282a.25.25 0 0 1-.414-.26 5.067 5.067 0 0 0-.193-3.94 4.376 4.376 0 0 0-3.539-1.754 4.78 4.78 0 0 0-.456-.021c-5.543 0-9.863 9.395-9.907 9.493a.25.25 0 0 1-.228.146ZM393.173 133.64a.25.25 0 0 1-.228-.354c.131-.29 3.171-6.9 7.322-6.9.12 0 .242.005.364.017a3.458 3.458 0 0 1 2.8 1.427 3.367 3.367 0 0 1 .385 2.24c2.205-2.166 9.663-9.045 15.403-8.796a3.253 3.253 0 0 1 2.96 1.53c1.244 2.25-.478 6.35-1.445 8.31 1.71-1.347 5.305-3.957 7.482-3.957.05 0 .1 0 .15.004a1.418 1.418 0 0 1 1.26.707c.763 1.403-.868 4.35-1.057 4.682a.255.255 0 0 1-.341.094.252.252 0 0 1-.094-.342c.474-.834 1.588-3.214 1.053-4.196a.938.938 0 0 0-.85-.445c-2.617-.18-8.176 4.563-8.233 4.61a.25.25 0 0 1-.378-.314c.035-.062 3.52-6.193 2.016-8.912a2.792 2.792 0 0 0-2.543-1.271 5.748 5.748 0 0 0-.26-.005c-6.437 0-15.3 9.187-15.39 9.28a.25.25 0 0 1-.415-.26 3.473 3.473 0 0 0-.13-2.697 2.997 2.997 0 0 0-2.42-1.191c-3.993-.379-7.151 6.521-7.184 6.592a.25.25 0 0 1-.227.146ZM52.085 294.681a.25.25 0 0 1-.228-.353c.135-.297 3.323-7.298 7.686-6.882a3.459 3.459 0 0 1 2.8 1.427 3.36 3.36 0 0 1 .386 2.239c2.17-2.131 9.412-8.8 15.119-8.8.095 0 .189.001.283.005a3.25 3.25 0 0 1 2.96 1.53c1.244 2.248-.477 6.349-1.445 8.309 1.751-1.378 5.456-4.069 7.632-3.953a1.42 1.42 0 0 1 1.262.707c.762 1.403-.87 4.351-1.059 4.683a.25.25 0 0 1-.435-.248c.474-.834 1.589-3.214 1.055-4.197a.94.94 0 0 0-.852-.445c-2.646-.159-8.175 4.562-8.231 4.61a.25.25 0 0 1-.38-.313c.036-.063 3.52-6.194 2.016-8.912a2.788 2.788 0 0 0-2.543-1.271 5.792 5.792 0 0 0-.26-.005c-6.436 0-15.3 9.186-15.39 9.28a.25.25 0 0 1-.414-.261 3.473 3.473 0 0 0-.13-2.695 2.995 2.995 0 0 0-2.421-1.192c-3.965-.388-7.151 6.52-7.184 6.59a.25.25 0 0 1-.227.147Z"/><g><path fill="#090909" fill-rule="evenodd" d="M283.102 75.42c1.017-2.37 5.762-7.458 1.869-10.207 0 0 1.23-1.804.278-3.146 0 0 .407 1.87-.856 2.677 0 0 .302-3.465-3.23-2.501-3.533.964-6.59 2.576-10.263 1.702s-4.449-.915-3.685.943a8.408 8.408 0 0 0 2.929 3.22s-3.392-1.482-2.042.58a8.799 8.799 0 0 0 5.898 4c2.722.567 8.085 5.103 9.102 2.732Z"/><path fill="#fb7e60" fill-rule="evenodd" d="M282.93 66.51a2.198 2.198 0 0 0-1.836 1.225 5.108 5.108 0 0 0 .12 3.051l-.771.53a6.735 6.735 0 0 1-1.467-2.647s-4.968 1.61-7.117 1.262c0 0 2.592 7.53 4.793 8.127a2.615 2.615 0 0 0 1.794-.263 6.422 6.422 0 0 1-.683 4.505c5.597 4.06 7.175-2.23 7.175-2.23a31.638 31.638 0 0 1-2.35-7.961c.446-.226 3.09-1.637 2.392-3.98a1.963 1.963 0 0 0-2.05-1.619ZM305.613 85.005s3.787.72 11.913-3.478c9.597-4.96 10.537-6.026 13.905-9.382a24.22 24.22 0 0 1 5.079-4.219s2.107 1.936 3.884.197c0 0 2.39.063 1.394 2.008-.997 1.945-1.579 3.606-1.213 4.531a2.361 2.361 0 0 1-.823 2.905c-1.126.898-2.155-.145-6.319 3.685-4.163 3.83-16.297 18.67-30.182 18.511ZM247.35 109.117s-5.67 8.427-12.181 19.842-9.194 21.68-12.564 25.128-7.297 7.352-7.013 8.21 5.287-4.22 4.407-2.039-4.74 4.588-4.427 6.092 5.458-4.29 6.174-3.4c.717.89-4.94 6.62-4.05 7.904.888 1.284 6.224-7.238 6.718-6.99s-3.508 9.065-2.445 9.435c1.062.371 4.52-9.436 5.36-9.189s1.037 5.336 1.977 5.09-.361-5.95 1.195-8.921a265.585 265.585 0 0 1 18.387-26.872c8.222-10.478 12.56-15.178 12.56-15.178s-7.298-7.017-14.099-9.112ZM261.605 185.823l10.434 5.744s-4.621 4.915-7.287 8.055l-8.415-4.535Z"/><path fill="#464c7d" fill-rule="evenodd" d="M266.622 120.695s-2.571 11.644 3.833 35.972c1.701 6.463-9.13 29.073-9.13 29.073l11.105 6.031s14.96-19.08 16.746-29.194c1.783-10.113 1.065-30.246 1.065-30.246s1.174-1.155 7.01-4.273c5.836-3.117 8.764-4.612 10.076-3.584s-.403 5.756-.403 5.756l11.633.665s3.336-8.91 1.761-17.73c-1.573-8.823-16.948-5.245-21.968-4.137-5.019 1.107-4.266-3.488-4.266-3.488s-4.24-.482-9.55 3.771-13.056 8.708-17.912 11.384Z"/><path fill="#fb7e60" fill-rule="evenodd" d="m307.404 130.238 10.744.612s-2.685 5.75-3.205 8.344l-9.246-.397Z"/><path fill="#090909" fill-rule="evenodd" d="M278.444 77.805a6.982 6.982 0 0 0 1.98-1.42s-.107 2.308-1.808 2.877c0 0-.008-.466-.044-.833a3 3 0 0 0-.128-.624Z"/><path fill="#feb824" fill-rule="evenodd" d="M246.647 108.97a181.672 181.672 0 0 1 12.028-16.239c5.98-6.959 13.537-14.316 18.416-10.82 0 0 3.237 1.99 5.184 1.276a5.074 5.074 0 0 0 2.639-3.13s2.154-2.576 8.28.42c6.13 2.997 9.251 4.19 12.457 4.34l-2.487 15.981s-6.844-.739-10.423-2.211l2.346 8.09s-5.36-.03-12.71 5.822a91.771 91.771 0 0 1-16.317 9.987l.923-9.523-5.156 5.757s-8.726-7.781-15.18-9.75Z"/><path fill="#6696f8" fill-rule="evenodd" d="m305.637 138.758 9.314.428a36.086 36.086 0 0 0-.574 6.683c.153 3.39 6.914 1.425 7.908 7.263l-19.447-.44ZM256.307 195.082l8.493 4.542s-3.412 4.521-3.602 6.61c-.241 2.65 2.865 2.652 5.334 7.03l-19.624-2.375Z"/><path fill="#fff" fill-rule="evenodd" d="M317.365 148.34c-1.726 1.128-4.266.552-4.876-3.132-.61-3.682-.096-8.461 3.158-8.342 0 0-1.755 5.123-.892 7.902a5.684 5.684 0 0 0 2.61 3.572ZM302.856 152.688l19.41.442a2.399 2.399 0 0 0-.062-.389l-19.214-.828ZM263.182 209.4c-1.706.607-3.815-.755-3.583-3.85.233-3.093 2.436-9.633 6.742-7.76a26.248 26.248 0 0 0-4.015 5.886 4.504 4.504 0 0 0 .856 5.724ZM246.881 210.895l19.649 2.386s-.12-.233-.22-.413l-19.023-2.612ZM277.755 82.269l.184-.311a7.645 7.645 0 0 0 3.916.782c1.776-.296 2.875-3.145 2.875-3.145l.217.448s-.743 2.703-2.816 3.25c-2.072.545-4.376-1.024-4.376-1.024Z"/><path fill="#090909" fill-rule="evenodd" d="M292.759 98.601c-.461-1.587-1.706-5.808-1.706-5.808s3.445 5.363 5.303 6.871c0 0-1-.209-1.938-.491-.938-.284-1.66-.572-1.66-.572ZM305.621 84.997s-.506 4.018-.682 8.232c-.175 4.215-.025 6.482-.025 6.482a9.598 9.598 0 0 1-1.588.073ZM266.975 112.98c.617-.706 1.316-1.699 1.316-1.699l-1.46 3.284ZM246.697 108.984c.58.616 3.115 1.478 7.047 4.023a68.938 68.938 0 0 1 7.314 5.641l-.18.214s.652-.08.948-.153a54.647 54.647 0 0 0-7.785-6.025c-4.933-3.094-7.344-3.7-7.344-3.7ZM290.252 132.303c-.162-5.852-1.046-14.341-1.046-14.341s1.414 6.006 3.347 8.57a3.958 3.958 0 0 0 4.383 1.683ZM318.156 130.846l-10.755-.62-.12.631ZM272.041 191.553l-10.86-4.978.404-.71Z"/><path fill="#090909" d="M319.525 127.704h-.004l-11.775-.181a.25.25 0 0 1 .004-.5h.004l11.775.18a.25.25 0 0 1-.004.5ZM269.36 186.891a.25.25 0 0 1-.117-.03l-6.728-3.562a.25.25 0 0 1-.104-.338.253.253 0 0 1 .338-.103l6.729 3.562a.25.25 0 0 1-.118.471ZM274.404 189.51a.252.252 0 0 1-.117-.03l-3.615-1.917a.25.25 0 1 1 .234-.441l3.615 1.917a.25.25 0 0 1-.117.47ZM267.58 205.556c-.016 0-.032 0-.049-.002-1.358-.076-3.78-3.685-4.053-4.097l-.01-.017-3.907-2.053a.25.25 0 1 1 .233-.443l3.93 2.065c.63-.342 3.48-1.811 5.01-1.246a1.431 1.431 0 0 1 .884.899.93.93 0 0 1-.139 1.005c-.64.7-2.696.49-4.209.218 1.26.752 2.866 1.863 3.045 2.735a.765.765 0 0 1-.162.667.724.724 0 0 1-.573.27Zm-3.121-3.563c1.01 1.394 2.407 3.023 3.1 3.062a.222.222 0 0 0 .211-.089.269.269 0 0 0 .055-.246c-.144-.703-1.885-1.89-3.366-2.727Zm-.028-.786c1.772.391 4.16.692 4.68.122.066-.073.142-.204.036-.5a.94.94 0 0 0-.587-.597c-1.088-.401-3.13.48-4.13.976ZM261.808 205.537a.251.251 0 0 1-.07-.01 27.62 27.62 0 0 0-3.017-.397.25.25 0 0 1-.228-.27.24.24 0 0 1 .27-.228 27.286 27.286 0 0 1 3.115.414.25.25 0 0 1-.07.49ZM258.782 207.417a.25.25 0 0 1-.049-.496 14.82 14.82 0 0 1 3.159-.386.25.25 0 0 1 .185.3.245.245 0 0 1-.3.186 15.471 15.471 0 0 0-2.946.39.278.278 0 0 1-.049.006ZM259.858 209.342a.25.25 0 0 1-.127-.465c1.425-.842 2.298-1.199 2.598-1.055a.25.25 0 1 1-.217.451h-.005a10.332 10.332 0 0 0-2.122 1.034.24.24 0 0 1-.127.035ZM318.302 144.271c-1.252 0-3.102-2.559-3.559-3.22l-4.271-.013a.25.25 0 0 1 0-.5h.002l4.243.012c.486-.394 2.71-2.124 4.05-1.863a1.104 1.104 0 0 1 .784.584.815.815 0 0 1 .007.86c-.399.632-1.815.843-2.998.905 1.047.386 2.28.989 2.609 1.763a1.057 1.057 0 0 1-.072.982.894.894 0 0 1-.767.49Zm-2.837-3.07c.862 1.166 2.132 2.57 2.833 2.57h.016a.397.397 0 0 0 .351-.242.558.558 0 0 0 .044-.534c-.33-.777-2.113-1.455-3.244-1.793Zm.063-.643h.051c1.406 0 3.227-.17 3.556-.693.042-.067.076-.167-.026-.36a.598.598 0 0 0-.44-.328c-.8-.16-2.24.727-3.14 1.381ZM311.466 146.265a.25.25 0 0 1-.096-.481 9.902 9.902 0 0 1 3.671-.827.249.249 0 0 1 .21.284.244.244 0 0 1-.282.21 9.868 9.868 0 0 0-3.407.796.253.253 0 0 1-.096.018ZM312.523 148.4a.25.25 0 0 1-.166-.437c.221-.194 2.156-1.88 3.127-1.88l.036.002a.25.25 0 0 1 .239.261.246.246 0 0 1-.262.239l-.02-.001c-.584 0-2.014 1.07-2.788 1.754a.251.251 0 0 1-.166.063ZM314.241 149.753a.246.246 0 0 1-.115-.028.25.25 0 0 1-.106-.337c.109-.21 1.1-2.07 2.198-2.323a.246.246 0 0 1 .299.187.249.249 0 0 1-.188.3c-.74.17-1.598 1.55-1.866 2.067a.249.249 0 0 1-.222.134ZM268.936 110.652a.25.25 0 0 1-.217-.374c1.667-2.917 4.388-9.045 4.416-9.107a.25.25 0 1 1 .457.203c-.028.062-2.76 6.213-4.44 9.152a.248.248 0 0 1-.216.126ZM276.842 76.403a.25.25 0 0 1-.02-.5c.034-.003.679-.086 1.018-1.21a.245.245 0 0 1 .311-.166.25.25 0 0 1 .167.311c-.446 1.48-1.419 1.562-1.46 1.564ZM282.57 70.57a.25.25 0 0 1-.218-.127 2.635 2.635 0 0 1-.212-2.076 2.18 2.18 0 0 1 1.575-1.186.25.25 0 0 1 .129.483 1.716 1.716 0 0 0-1.243.897 2.154 2.154 0 0 0 .186 1.638.25.25 0 0 1-.218.372Z"/><path fill="#090909" d="M283.98 69.55a.248.248 0 0 1-.203-.104 2.449 2.449 0 0 0-1.31-.867.25.25 0 0 1 .108-.489 2.921 2.921 0 0 1 1.61 1.066.25.25 0 0 1-.205.394Z"/><path fill="#090909" fill-rule="evenodd" d="M337.451 33.486c9.964-3 24.643-4.178 21.964 3.858s19.714 0 19.714 0-14.035 14.678-24.535 14.142.643-8.678-17.143-2.678Z"/><path fill="#0a0909" d="M337.451 68.568a.25.25 0 0 1-.25-.25V30.593a.25.25 0 0 1 .5 0v37.725a.25.25 0 0 1-.25.25ZM337.451 142.762a.25.25 0 0 1-.25-.25V78.42a.25.25 0 0 1 .5 0v64.093a.25.25 0 0 1-.25.25Z"/><path fill="#0a0909" d="M333.599 49.965a1.502 1.502 0 0 1-.973-.265 1.023 1.023 0 0 1-.242-1.13 1.572 1.572 0 0 1 .93-1.124c1.508-.624 4.152.907 4.263.973a.25.25 0 0 1-.023.444 12.457 12.457 0 0 1-3.955 1.102Zm.57-2.173a1.74 1.74 0 0 0-.663.116 1.079 1.079 0 0 0-.638.79c-.118.45.031.578.081.62.53.452 2.52-.136 3.923-.708a6.948 6.948 0 0 0-2.703-.818Z"/><path fill="#090909" d="M277.076 71.964a.321.321 0 1 1-.322-.321.321.321 0 0 1 .322.321ZM273.848 72.982a.321.321 0 1 1-.321-.321.321.321 0 0 1 .321.321Z"/><path fill="#202020" d="M268.291 186.073a.256.256 0 0 1-.146-.047.252.252 0 0 1-.057-.35c17.326-24.045 10.903-54.224 7.816-68.728a.248.248 0 0 1 .193-.296.245.245 0 0 1 .296.192c3.102 14.575 9.556 44.9-7.899 69.125a.251.251 0 0 1-.203.104Z"/><path fill="#0a0909" d="M333.822 34.572a1.849 1.849 0 0 1-1.1-.27.893.893 0 0 1-.341-.837 1.035 1.035 0 0 1 .497-.828c1.214-.742 4.318.476 4.667.618a.25.25 0 0 1-.005.465 12.987 12.987 0 0 1-3.718.852Zm.124-1.677a1.575 1.575 0 0 0-.806.169.533.533 0 0 0-.261.444.395.395 0 0 0 .145.396c.545.413 2.343.015 3.69-.423a9.799 9.799 0 0 0-2.768-.586Z"/></g><g><path fill="#fb7e60" fill-rule="evenodd" d="m142.771 198.941 4.909 12.36s3.196-3.144 10.362-10.737 13.823-18.433 17.376-23.216c3.555-4.783 12.176-9.447 10.714-9.685s-6.369 3.554-5.546 2.186c.822-1.367 7.897-7.937 5.729-7.26-2.17.676-7.124 6.604-6.767 5.204.356-1.4 6.193-9.33 4.824-8.824-1.368.507-6.79 8.246-6.588 6.221.201-2.027 3.34-7.35 2.262-7.31-1.079.038-3.377 8.451-5.466 8.547-1.186.055-1.43-6.238-2.262-5.344-.832.894-1.119 8.326-4.782 13.493a107.18 107.18 0 0 1-14.775 15.885c-4.666 4.092-9.99 8.48-9.99 8.48ZM160.677 261.053l10.093-3.26-.598 9.708-8.908 3.243ZM103.066 321.984l9.097 8.741-8.434 6.84-7.62-7.36Z"/><path fill="#090909" fill-rule="evenodd" d="M125.674 195.579c4.23.755 4.985 5.592 3.992 8.559 0 0 .154-4.113-1.23-5.15a9.1 9.1 0 0 1-5.054 11.43c-7.907 3.844-14.647 21.684-14.647 21.684s-7.37-5.295-7.15-11.85c.218-6.555 6.856-10.282 6.856-10.282s-4.982.642-7.9 9.001a12.953 12.953 0 0 1 3.837-7.728 24.696 24.696 0 0 1 7.658-5.247s.929-6.943 5.433-9.537c4.506-2.595 5.364-1.388 8.205-.88Z"/><path fill="#fff" fill-rule="evenodd" d="M110.855 261.486a188.257 188.257 0 0 1 2.627 25.712c.489 13.473.663 16.72-3.116 22.705-3.78 5.985-7.98 11.601-7.98 11.601l10.094 9.576s11.56-7.8 19.628-25.038c8.068-17.236 6.055-32.14 9.246-37.17 3.192-5.029 15.429-17.856 17.001-17.856s2.065 10.168 2.065 10.168l11.313-3.709s3.163-18.724-1.922-24.902c-5.086-6.178-12.49-.745-19.36 3.384s-12.278 7.179-15.39 9.426-24.638 13.67-24.206 16.103Z"/><path fill="#fb7e60" fill-rule="evenodd" d="M125.745 197.548c.898 3.164 1.055 7.46-1.165 8.887-3.569 2.296-.126 5.577-.126 5.577s-4.438 3.661-8.293 2.53l2.402-7.705s-2.818-.255-2.198-2.557c.62-2.292 3.137-.929 3.137-.929a8.929 8.929 0 0 0 3.733-2.404 20.005 20.005 0 0 0 2.51-3.4Z"/><path fill="#1934be" fill-rule="evenodd" d="m142.714 198.436 5.751 14.74a136.023 136.023 0 0 0-9.137 10.134c-4.143 5.186-2.314 11.433-.361 14.274 1.952 2.84 3.236 3.284 3.236 3.284a89.181 89.181 0 0 0-11.17 8.336c-7.04 5.94-13.24 11.087-22.041 12.714a89.424 89.424 0 0 0-.203-15.534c-.85-8.965-.71-28.5 7.214-31.79 7.926-3.29 6.855-1.83 12.548-5.226a90.97 90.97 0 0 0 14.163-10.932Z"/><path fill="#464c7d" fill-rule="evenodd" d="m161.174 270.727 8.999-3.224s-.31 6.118 1.859 9.638c2.04 3.312 9.246-.086 12.978 4.888l-22.59 6.462ZM96.082 330.217l7.676 7.358s-6.127 5.277-6.748 8.162c-.62 2.885 3.354 5.709 1.612 11.144l-14.951-14.016Z"/><path fill="#090909" fill-rule="evenodd" d="M124.341 206.604a8.55 8.55 0 0 1-2.681 1.164s1.148.9 1.808.732 2.13-2.754.873-1.896ZM142.893 198.854c.754 1.426 5.712 11.496 5.712 11.496l-.91.915s-5.557-13.838-4.802-12.411Z"/><path fill="#fff" fill-rule="evenodd" d="m116.092 214.562.263-.656s1.733-.636 3.868-1.312c2.134-.678 3.692-1.227 3.692-1.227l.214.297s-2.273.83-4.286 1.486c-2.013.653-3.751 1.412-3.751 1.412Z"/><path fill="#090909" fill-rule="evenodd" d="M140.014 272.669c.693-5.596-2.639-15.352-2.639-15.352l7.704 6.797a34.596 34.596 0 0 0-3.783 4.94 20.04 20.04 0 0 0-1.282 3.615ZM170.77 257.797l-10.051 3.882-.042-.573ZM112.13 330.75l-9.748-7.942.597-.735Z"/><path fill="#1934be" fill-rule="evenodd" d="M141.732 218.898c3.095.024 7.136-.374 7.136-.374l-5.16 14.804-6.524 1.69s-2.45-5.569-.2-9.138 1.653-7.005 4.748-6.982Z"/><path fill="#fb7e60" fill-rule="evenodd" d="m148.717 218.95 6.545.149s9.067-3.097 14.392-6.54c5.325-3.446 9.15-6.346 11.62-7.243 2.47-.897 5.522-2.336 5.772-1.58a15.723 15.723 0 0 0 .924 3.032c.36.392-.594 3.207-.642 3.773s-2.158 1.722-3.073 1.759c-.917.037-1.428-1.268-3.18.504-1.752 1.771-10.176 9.555-14.627 12.605-4.45 3.05-7.587 4.877-10.324 5.418-2.735.54-11.932 1.111-11.932 1.111Z"/><path fill="#090909" fill-rule="evenodd" d="m148.72 218.928-3.4 12.94-1.137.07ZM137.615 234.915c-.98-2.762-3.32-7.64.867-11.86a9.394 9.394 0 0 0 .379 6.628c1.577 3.291 3.278 4.073 3.278 4.073Z"/><path fill="#fff" fill-rule="evenodd" d="M178.455 279.017c-.783 1.46-4.33 2.403-8.078-.177-3.747-2.578-4.02-9.768-2.951-12.607 1.067-2.838 2.979-2.233 2.979-2.233s-.62 8.29.92 11.446 7.13 3.571 7.13 3.571ZM185.01 282.028a3.688 3.688 0 0 0-.288-.356l-22.355 6.083.04.741ZM83.69 342.858l.792-.783 14.257 14.413a2.898 2.898 0 0 1-.117.392ZM98.213 350.258c-2.256-.384-3.53-3.268-2.532-6.443.995-3.175 6.103-10.613 9.837-7.666 0 0-6.786 5.311-7.889 8.375a7.861 7.861 0 0 0 .584 5.734Z"/><path fill="#090909" d="M137.787 224.877a.25.25 0 0 1-.223-.364c1.157-2.255 4.91-5.372 5.069-5.503a.25.25 0 0 1 .318.385c-.038.032-3.833 3.183-4.941 5.347a.251.251 0 0 1-.223.135ZM160.215 258.076a.25.25 0 0 1-.064-.493l8.398-2.203a.254.254 0 0 1 .305.18.251.251 0 0 1-.178.305l-8.398 2.203a.289.289 0 0 1-.063.008ZM169.82 255.56a.25.25 0 0 1-.055-.494l2.224-.508a.255.255 0 0 1 .3.189.251.251 0 0 1-.188.3l-2.225.507a.27.27 0 0 1-.056.006ZM115.339 329.117a.245.245 0 0 1-.17-.067l-10.92-10.064a.25.25 0 1 1 .339-.367l10.92 10.064a.25.25 0 0 1-.17.434ZM102.243 343.692a.916.916 0 0 1-.8-.394c-.68-.99.366-3.68.702-4.483l-3.098-2.523a.25.25 0 0 1 .316-.388l3.162 2.575a.326.326 0 0 1 .034.013.247.247 0 0 1 .086.063c.73.008 3.842.11 4.605 1.26a1.228 1.228 0 0 1-.777 1.805c-1 .184-2.449-.967-3.35-1.8.327 1.034.661 2.544.16 3.338a1.158 1.158 0 0 1-.974.533h-.066Zm.206-4.295c-.5 1.289-.983 3.05-.594 3.62a.432.432 0 0 0 .43.174.652.652 0 0 0 .575-.3c.452-.715-.045-2.487-.41-3.494Zm.61-.33c.869.855 2.473 2.214 3.327 2.06a.617.617 0 0 0 .47-.423.601.601 0 0 0-.023-.612c-.485-.732-2.558-.972-3.774-1.025ZM97.808 344.432a.25.25 0 0 1-.156-.054 10.758 10.758 0 0 0-2.825-1.27.25.25 0 0 1 .139-.48 11.018 11.018 0 0 1 2.997 1.358.25.25 0 0 1-.155.446ZM97.353 346.16a.226.226 0 0 1-.072-.01 10.43 10.43 0 0 0-2.903-.162.25.25 0 1 1-.041-.498 10.656 10.656 0 0 1 3.087.181.25.25 0 0 1-.071.49ZM94.654 348.664a.25.25 0 0 1-.102-.479 10.02 10.02 0 0 1 2.892-.809.233.233 0 0 1 .263.238.25.25 0 0 1-.237.262 9.664 9.664 0 0 0-2.713.766.255.255 0 0 1-.103.022ZM173.883 272.592c-1.27 0-3.237-2.345-3.705-2.926l-4.926 1.805a.25.25 0 0 1-.172-.469l5.045-1.85c.293-.694 1.672-3.767 3.193-4.022a1.315 1.315 0 0 1 1.246.516 1.1 1.1 0 0 1 .27 1.034c-.286 1.088-2.255 2.064-3.464 2.57 1.096.19 2.791.62 3.331 1.512a1.249 1.249 0 0 1 .064 1.186.942.942 0 0 1-.753.636.926.926 0 0 1-.13.008Zm-3.052-2.922c.95 1.122 2.41 2.5 3.113 2.418.1-.013.246-.063.36-.334a.767.767 0 0 0-.03-.733c-.478-.79-2.348-1.2-3.443-1.35Zm2.69-4.056a.732.732 0 0 0-.12.01c-.985.165-2.096 2.153-2.643 3.334 1.223-.48 3.351-1.487 3.593-2.405a.592.592 0 0 0-.164-.577.889.889 0 0 0-.666-.362ZM168.97 279.622a.25.25 0 0 1-.182-.421 27.537 27.537 0 0 1 3.178-2.945.25.25 0 0 1 .283.413 27.701 27.701 0 0 0-3.096 2.874.25.25 0 0 1-.182.079ZM171.821 281.58a.256.256 0 0 1-.092-.017.25.25 0 0 1-.14-.324 29.702 29.702 0 0 1 1.782-3.753.25.25 0 0 1 .426.263 29.843 29.843 0 0 0-1.743 3.673.25.25 0 0 1-.233.159ZM174.354 281.943a.227.227 0 0 1-.07-.01.248.248 0 0 1-.169-.311c.006-.022.63-2.099 1.137-3.351a.25.25 0 0 1 .463.188c-.497 1.23-1.114 3.285-1.121 3.306a.25.25 0 0 1-.24.178ZM118.942 206.16a.25.25 0 0 1-.25-.242c-.054-1.85-1.308-1.992-1.32-1.993a.251.251 0 0 1-.226-.272.243.243 0 0 1 .273-.226c.018.002 1.706.19 1.773 2.476a.25.25 0 0 1-.242.258Z"/><path fill="#090909" d="M117.278 205.785a.25.25 0 0 1-.18-.424 3.041 3.041 0 0 1 1.514-.899.239.239 0 0 1 .27.228.25.25 0 0 1-.227.27 2.59 2.59 0 0 0-1.197.748.248.248 0 0 1-.18.077Z"/><path fill="#0a0909" d="M183.38 276.712a.25.25 0 0 1-.25-.25v-63.917a.25.25 0 0 1 .5 0v63.917a.25.25 0 0 1-.25.25ZM183.38 204.757a.25.25 0 0 1-.25-.25v-5.757a.25.25 0 0 1 .5 0v5.757a.25.25 0 0 1-.25.25Z"/><path fill="#0a0909" fill-rule="evenodd" d="M124.893 201.286a.308.308 0 1 1-.308-.308.308.308 0 0 1 .308.308Z"/><path fill="#090909" d="M124.398 204.974a2.376 2.376 0 0 1-1.52-.688.25.25 0 0 1 .006-.353.253.253 0 0 1 .353.004 1.818 1.818 0 0 0 1.313.527.245.245 0 0 1 .282.212.249.249 0 0 1-.212.283 1.565 1.565 0 0 1-.222.015Z"/><path fill="#202020" d="M109.879 324.084a.25.25 0 0 1-.164-.438c18.928-16.464 16.652-45.447 11.41-66.862a.252.252 0 0 1 .184-.303.248.248 0 0 1 .302.184c5.275 21.55 7.55 50.729-11.568 67.358a.249.249 0 0 1-.164.061ZM139.106 259.094a.25.25 0 0 1-.193-.408c.661-.808 16.253-19.781 21.754-20a2.762 2.762 0 0 1 2.074.86c3.5 3.44 3.245 16.294 3.233 16.84a.25.25 0 0 1-.25.244h-.006a.25.25 0 0 1-.244-.256c.003-.13.262-13.182-3.083-16.472a2.222 2.222 0 0 0-1.704-.716c-5.279.21-21.227 19.62-21.387 19.816a.249.249 0 0 1-.194.092Z"/></g><circle cx="178.455" cy="92.396" r="21.139" fill="#fff"/></svg>