<svg xmlns="http://www.w3.org/2000/svg" xmlns:xlink="http://www.w3.org/1999/xlink" viewBox="0 0 1600 1200"><defs><linearGradient id="a" x1="1329.77" x2="1410.38" y1="791.47" y2="791.47" gradientTransform="translate(-374.52)" gradientUnits="userSpaceOnUse"><stop offset="0" stop-color="#c6cbe7"/><stop offset=".08" stop-color="#ced2ea"/><stop offset=".4" stop-color="#e9ebf6"/><stop offset=".68" stop-color="#f9fafd"/><stop offset=".9" stop-color="#fff"/></linearGradient><linearGradient id="r" x1="1253.57" x2="1334.18" y1="742.26" y2="742.26" xlink:href="#a"/><linearGradient id="b" x1="1604.85" x2="1650.44" y1="786.33" y2="786.33" gradientTransform="matrix(-1 0 0 1 2593.78 0)" gradientUnits="userSpaceOnUse"><stop offset="0" stop-color="#5555c6"/><stop offset=".07" stop-color="#5251c0"/><stop offset=".43" stop-color="#4140a5"/><stop offset=".75" stop-color="#373595"/><stop offset="1" stop-color="#34318f"/></linearGradient><linearGradient id="s" x1="1680.08" x2="1725.67" y1="737.12" y2="737.12" xlink:href="#b"/><linearGradient id="t" x1="1604.32" x2="1702.41" y1="656.64" y2="665.48" gradientTransform="matrix(-1 0 0 1 2593.78 0)" gradientUnits="userSpaceOnUse"><stop offset="0" stop-color="#6a6ae2"/><stop offset=".61" stop-color="#4746ad"/><stop offset="1" stop-color="#34318f"/></linearGradient><linearGradient id="f" x1="54.09" x2="-29" y1="502.64" y2="502.64" gradientTransform="translate(925.74)" gradientUnits="userSpaceOnUse"><stop offset="0" stop-color="#20196f"/><stop offset="1" stop-color="#5652cc"/></linearGradient><linearGradient id="u" x1="1612.73" x2="1675.58" y1="507.33" y2="507.33" gradientTransform="matrix(-1 0 0 1 2593.78 0)" gradientUnits="userSpaceOnUse"><stop offset="0" stop-color="#362e94"/><stop offset="1" stop-color="#807dfb"/></linearGradient><linearGradient id="p" x1="889.71" x2="1018.83" y1="856.45" y2="856.45" gradientTransform="translate(-320.06)" gradientUnits="userSpaceOnUse"><stop offset="0" stop-color="#c2c8e6"/><stop offset=".11" stop-color="#ced3eb"/><stop offset=".42" stop-color="#e9ebf6"/><stop offset=".69" stop-color="#f9fafd"/><stop offset=".9" stop-color="#fff"/></linearGradient><linearGradient id="c" x1="1333.08" x2="1361.17" y1="952.35" y2="937.3" gradientTransform="matrix(.99 -.16 .16 .99 -892.47 133.83)" gradientUnits="userSpaceOnUse"><stop offset="0" stop-color="#1f196e"/><stop offset=".47" stop-color="#312c8d"/><stop offset="1" stop-color="#423eac"/></linearGradient><linearGradient id="v" x1="1307.63" x2="1335.72" y1="961.94" y2="946.89" xlink:href="#c"/><linearGradient id="w" x1="724.01" x2="814.37" y1="646.25" y2="646.25" gradientTransform="matrix(-1 0 0 1 1334.51 0)" gradientUnits="userSpaceOnUse"><stop offset="0" stop-color="#e19100"/><stop offset="1" stop-color="#ffd03e"/></linearGradient><linearGradient id="x" x1="499.59" x2="588.65" y1="526.95" y2="526.95" gradientUnits="userSpaceOnUse"><stop offset="0" stop-color="#20196f"/><stop offset=".27" stop-color="#27207c"/><stop offset=".77" stop-color="#39349d"/><stop offset="1" stop-color="#423eaf"/></linearGradient><linearGradient id="y" x1="1321.06" x2="1321.06" y1="617.41" y2="556.14" gradientTransform="matrix(-1 0 0 1 1876.34 0)" gradientUnits="userSpaceOnUse"><stop offset=".26" stop-color="#fff"/><stop offset="1" stop-color="#d3d8f2"/></linearGradient><linearGradient id="z" x1="1270.33" x2="1344.37" y1="708.89" y2="708.89" gradientUnits="userSpaceOnUse"><stop offset="0" stop-color="#c4cae9"/><stop offset=".19" stop-color="#d2d6ee"/><stop offset=".71" stop-color="#f3f4fa"/><stop offset="1" stop-color="#fff"/></linearGradient><linearGradient id="d" x1="436.85" x2="501.06" y1="842.37" y2="842.37" gradientUnits="userSpaceOnUse"><stop offset=".43" stop-color="#c4c9e4"/><stop offset=".58" stop-color="#d7daed"/><stop offset=".85" stop-color="#f4f5fa"/><stop offset="1" stop-color="#fff"/></linearGradient><linearGradient id="e" x1="422.69" x2="486.94" y1="846.18" y2="846.18" gradientUnits="userSpaceOnUse"><stop offset="0" stop-color="#807dfb"/><stop offset=".01" stop-color="#7f7cfa"/><stop offset=".45" stop-color="#5e5ad1"/><stop offset=".79" stop-color="#4a46b8"/><stop offset="1" stop-color="#423eaf"/></linearGradient><linearGradient id="A" x1="552.69" x2="616.91" y1="992.03" y2="992.03" xlink:href="#d"/><linearGradient id="B" x1="538.54" x2="602.78" y1="995.83" y2="995.83" gradientUnits="userSpaceOnUse"><stop offset="0" stop-color="#ffd03e"/><stop offset=".37" stop-color="#f1b322"/><stop offset=".76" stop-color="#e59a09"/><stop offset="1" stop-color="#e19100"/></linearGradient><linearGradient id="C" x1="912.78" x2="976.99" y1="920.44" y2="920.44" xlink:href="#d"/><linearGradient id="D" x1="898.62" x2="962.87" y1="924.24" y2="924.24" xlink:href="#e"/><linearGradient id="E" x1="816.88" x2="1053.91" y1="998.16" y2="998.16" gradientUnits="userSpaceOnUse"><stop offset="0" stop-color="#ced3f8"/><stop offset=".29" stop-color="#d7dbf9"/><stop offset=".75" stop-color="#eff1fd"/><stop offset="1" stop-color="#fff"/></linearGradient><linearGradient id="F" x1="1020.68" x2="1032.22" y1="923.5" y2="942.67" gradientUnits="userSpaceOnUse"><stop offset="0" stop-color="#423eaf"/><stop offset="1" stop-color="#20196f"/></linearGradient><linearGradient id="G" x1="829.45" x2="818.6" y1="1057.58" y2="1038.54" gradientUnits="userSpaceOnUse"><stop offset="0" stop-color="#bbc0e6"/><stop offset=".05" stop-color="#bfc4e7"/><stop offset=".43" stop-color="#dddff2"/><stop offset=".76" stop-color="#eff0f9"/><stop offset="1" stop-color="#f6f6fb"/></linearGradient><linearGradient id="H" x1="811.26" x2="806.69" y1="1060.82" y2="1054.92" xlink:href="#f"/><linearGradient id="I" x1="1014.82" x2="1002.15" y1="952.45" y2="931.15" gradientUnits="userSpaceOnUse"><stop offset=".07" stop-color="#bdc3e3"/><stop offset=".14" stop-color="#d8def0"/><stop offset=".56" stop-color="#d8def0"/><stop offset=".69" stop-color="#e9edf6"/></linearGradient><linearGradient id="g" x1="1008.01" x2="992.26" y1="957.29" y2="937.28" gradientUnits="userSpaceOnUse"><stop offset=".56" stop-color="#d8def0"/><stop offset=".69" stop-color="#e9edf6"/></linearGradient><linearGradient id="J" x1="1011.09" x2="995.34" y1="955.51" y2="935.5" xlink:href="#g"/><linearGradient id="K" x1="1014.18" x2="998.42" y1="953.73" y2="933.72" xlink:href="#g"/><linearGradient id="k" x1="1064.96" x2="1209.37" y1="609.45" y2="609.45" gradientUnits="userSpaceOnUse"><stop offset=".37" stop-color="#c4c9e4"/><stop offset="1" stop-color="#fff"/></linearGradient><linearGradient id="L" x1="890.29" x2="929.56" y1="723.5" y2="723.5" gradientUnits="userSpaceOnUse"><stop offset="0" stop-color="#20196f"/><stop offset=".22" stop-color="#261f7a"/><stop offset=".57" stop-color="#362e94"/></linearGradient><linearGradient id="M" x1="890.29" x2="929.55" y1="630.6" y2="630.6" gradientUnits="userSpaceOnUse"><stop offset=".43" stop-color="#fcba06"/><stop offset=".44" stop-color="#fbb906"/><stop offset=".8" stop-color="#e89c02"/><stop offset="1" stop-color="#e19100"/></linearGradient><linearGradient id="N" x1="728.2" x2="767.46" y1="610.03" y2="610.03" gradientUnits="userSpaceOnUse"><stop offset="0" stop-color="#e19100"/><stop offset=".2" stop-color="#e89c02"/><stop offset=".56" stop-color="#fbb906"/><stop offset=".57" stop-color="#fcba06"/></linearGradient><linearGradient id="O" x1="728.2" x2="767.45" y1="744.08" y2="744.08" gradientUnits="userSpaceOnUse"><stop offset="0" stop-color="#5652cc"/><stop offset=".27" stop-color="#4e4ac1"/><stop offset=".57" stop-color="#423eaf"/></linearGradient><linearGradient id="h" x1="822.92" x2="1002.24" y1="621.36" y2="621.36" gradientUnits="userSpaceOnUse"><stop offset="0" stop-color="#c4cae9"/><stop offset=".29" stop-color="#d1d6ee"/><stop offset=".83" stop-color="#f3f4fb"/><stop offset="1" stop-color="#fff"/></linearGradient><linearGradient id="P" x1="660.82" x2="840.14" y1="734.83" y2="734.83" xlink:href="#h"/><linearGradient id="Q" x1="822.92" x2="840.14" y1="683.07" y2="683.07" xlink:href="#h"/><linearGradient id="i" x1="1213.82" x2="1314.66" y1="1025.4" y2="1025.4" gradientTransform="translate(-136.59)" gradientUnits="userSpaceOnUse"><stop offset="0" stop-color="#c4cae9"/><stop offset=".11" stop-color="#ced3ed"/><stop offset=".45" stop-color="#e9ebf7"/><stop offset=".76" stop-color="#f9fafd"/><stop offset="1" stop-color="#fff"/></linearGradient><linearGradient id="R" x1="1232.07" x2="1333.01" y1="991.14" y2="991.14" gradientTransform="translate(-95.39)" xlink:href="#i"/><linearGradient id="j" x1="810.94" x2="858.56" y1="986.58" y2="986.58" gradientTransform="translate(291.78)" gradientUnits="userSpaceOnUse"><stop offset="0" stop-color="#423eaf"/><stop offset=".3" stop-color="#3a35a0"/><stop offset=".89" stop-color="#241e77"/><stop offset="1" stop-color="#20196f"/></linearGradient><linearGradient id="S" x1="752.06" x2="799.68" y1="1020.85" y2="1020.85" xlink:href="#j"/><linearGradient id="T" x1="772.74" x2="854.6" y1="907.07" y2="907.07" gradientTransform="translate(291.78)" gradientUnits="userSpaceOnUse"><stop offset="0" stop-color="#423eaf"/><stop offset=".25" stop-color="#3c38a4"/><stop offset=".7" stop-color="#2d2787"/><stop offset="1" stop-color="#20196f"/></linearGradient><linearGradient id="U" x1="769.58" x2="855.09" y1="760.15" y2="760.15" gradientTransform="translate(291.78)" gradientUnits="userSpaceOnUse"><stop offset="0" stop-color="#ffd03e"/><stop offset=".23" stop-color="#fcca38"/><stop offset=".52" stop-color="#f4ba28"/><stop offset=".86" stop-color="#e89f0e"/><stop offset="1" stop-color="#e19100"/></linearGradient><linearGradient id="V" x1="1034.08" x2="1108.4" y1="742.89" y2="759.37" gradientUnits="userSpaceOnUse"><stop offset="0" stop-color="#ffd03e"/><stop offset=".63" stop-color="#eba514"/><stop offset="1" stop-color="#e19100"/></linearGradient><linearGradient id="W" x1="1084.99" x2="1118.63" y1="685.18" y2="685.18" gradientUnits="userSpaceOnUse"><stop offset="0" stop-color="#fcba06"/><stop offset=".35" stop-color="#f3ad04"/><stop offset="1" stop-color="#dc8b00"/></linearGradient><linearGradient id="X" x1="277.33" x2="381.11" y1="930.22" y2="930.22" xlink:href="#k"/><linearGradient id="l" x1="255.63" x2="357.29" y1="938.34" y2="938.34" gradientUnits="userSpaceOnUse"><stop offset="0" stop-color="#fcba06"/><stop offset="1" stop-color="#e19100"/></linearGradient><linearGradient id="Y" x1="290.77" x2="313.08" y1="926.75" y2="926.75" xlink:href="#l"/><linearGradient id="Z" x1="1168.06" x2="1298.24" y1="846.88" y2="846.88" gradientUnits="userSpaceOnUse"><stop offset="0" stop-color="#d1d6f0"/><stop offset=".29" stop-color="#d5daf1"/><stop offset=".59" stop-color="#e2e5f5"/><stop offset=".9" stop-color="#f6f7fc"/><stop offset="1" stop-color="#fff"/></linearGradient><linearGradient id="m" x1="1199.75" x2="1246" y1="828.64" y2="828.64" gradientUnits="userSpaceOnUse"><stop offset="0" stop-color="#bbbfe2"/><stop offset="1" stop-color="#ced2f4"/></linearGradient><linearGradient id="aa" x1="1265.07" x2="1278.01" y1="853.93" y2="853.93" gradientUnits="userSpaceOnUse"><stop offset="0" stop-color="#a5acd4"/><stop offset=".63" stop-color="#bec3e7"/><stop offset="1" stop-color="#ced2f4"/></linearGradient><linearGradient id="ab" x1="1168.06" x2="1181.06" y1="853.94" y2="853.94" xlink:href="#m"/><linearGradient id="ac" x1="1243.44" x2="1260.06" y1="865.94" y2="865.94" gradientUnits="userSpaceOnUse"><stop offset="0" stop-color="#a5acd4"/><stop offset=".52" stop-color="#bcc2e6"/><stop offset="1" stop-color="#ced2f4"/></linearGradient><linearGradient id="ad" x1="1186.16" x2="1202.81" y1="865.96" y2="865.96" xlink:href="#m"/><linearGradient id="ae" x1="1214.13" x2="1232.18" y1="870.81" y2="870.81" xlink:href="#m"/><linearGradient id="af" x1="1190.09" x2="1255.66" y1="822.33" y2="822.33" xlink:href="#m"/><linearGradient id="n" x1="678.86" x2="764.86" y1="636.77" y2="636.77" gradientUnits="userSpaceOnUse"><stop offset="0" stop-color="#c4cae9"/><stop offset=".09" stop-color="#ced3ed"/><stop offset=".41" stop-color="#e9ebf7"/><stop offset=".69" stop-color="#f9fafd"/><stop offset=".9" stop-color="#fff"/></linearGradient><linearGradient id="o" x1="1817.62" x2="1863.93" y1="631.27" y2="631.27" gradientTransform="matrix(-1 0 0 1 2528.99 0)" gradientUnits="userSpaceOnUse"><stop offset="0" stop-color="#423eaf"/><stop offset=".11" stop-color="#3e39a7"/><stop offset=".7" stop-color="#28227e"/><stop offset="1" stop-color="#20196f"/></linearGradient><linearGradient id="ag" x1="793.68" x2="879.69" y1="608.18" y2="608.18" xlink:href="#n"/><linearGradient id="ah" x1="1702.8" x2="1749.1" y1="602.68" y2="602.68" xlink:href="#o"/><linearGradient id="ai" x1="669.33" x2="809.96" y1="514.11" y2="514.11" gradientUnits="userSpaceOnUse"><stop offset="0" stop-color="#423eaf"/><stop offset=".56" stop-color="#2d2888"/><stop offset="1" stop-color="#20196f"/></linearGradient><linearGradient id="aj" x1="656.79" x2="690.2" y1="286.73" y2="286.73" gradientUnits="userSpaceOnUse"><stop offset="0" stop-color="#f6f6fb"/><stop offset=".66" stop-color="#cbcfec"/><stop offset="1" stop-color="#bbc0e6"/></linearGradient><linearGradient id="ak" x1="667.05" x2="827.05" y1="379.32" y2="379.32" gradientUnits="userSpaceOnUse"><stop offset="0" stop-color="#f6f6fb"/><stop offset=".53" stop-color="#dee1f9"/><stop offset="1" stop-color="#ced3f8"/></linearGradient><linearGradient id="al" x1="734.27" x2="734.27" y1="460.2" y2="292.85" gradientUnits="userSpaceOnUse"><stop offset="0" stop-color="#fff"/><stop offset=".57" stop-color="#e2e6f7"/><stop offset="1" stop-color="#d1d7f3"/></linearGradient><linearGradient id="am" x1="996.41" x2="1142.37" y1="1093.34" y2="1093.34" xlink:href="#p"/><linearGradient id="q" x1="1119.07" x2="1162.88" y1="1082.28" y2="1082.28" gradientTransform="matrix(-1 0 0 1 1825.54 0)" gradientUnits="userSpaceOnUse"><stop offset="0" stop-color="#34318a"/><stop offset=".24" stop-color="#3e3c99"/><stop offset=".72" stop-color="#5857c2"/><stop offset="1" stop-color="#696add"/></linearGradient><linearGradient id="an" x1="1091.5" x2="1135.31" y1="1098.17" y2="1098.17" xlink:href="#q"/><linearGradient id="ao" x1="326.98" x2="420.96" y1="874.22" y2="874.22" gradientTransform="translate(312.85)" gradientUnits="userSpaceOnUse"><stop offset="0" stop-color="#807dfb"/><stop offset="1" stop-color="#423eaf"/></linearGradient><linearGradient id="ap" x1="1180.93" x2="1243.23" y1="754.74" y2="754.74" gradientTransform="matrix(-1 0 0 1 1901.57 0)" gradientUnits="userSpaceOnUse"><stop offset="0" stop-color="#131147"/><stop offset=".2" stop-color="#17144f"/><stop offset=".51" stop-color="#201c65"/><stop offset=".88" stop-color="#302988"/><stop offset="1" stop-color="#362e94"/></linearGradient></defs><g data-name="Front woman"><polygon points="1035.86 779.41 980.77 779.41 955.25 803.54 1035.86 803.54 1035.86 779.41" style="mix-blend-mode:multiply" fill="url(#a)"/><polygon points="959.66 730.19 904.58 730.19 879.05 754.33 959.66 754.33 959.66 730.19" style="mix-blend-mode:multiply" fill="url(#r)"/><path fill="url(#b)" d="M980.65,769.11c6.34,0,9.75,9.66,7.68,16.42-1.57,2.45-6.08,5.27-6.08,5.27S964,802,959.7,803.05s-14.35,1-16.36-6.36c0-4.69,3.41-8,7.67-11.61,5.58-4.67,10.21-9.37,14.79-12.62C969.54,769.79,980.65,769.11,980.65,769.11Z"/><path fill="#1e1c6b" d="M959.51,801c4.47-1.09,23.21-12.61,23.21-12.61s4.36-2.72,6.08-5.2a14.67,14.67,0,0,1-.47,2.32c-1.57,2.45-6.08,5.27-6.08,5.27S964,802,959.7,803.05s-14.35,1-16.36-6.36c0-.16,0-.31,0-.47C946.46,802.06,955.43,802,959.51,801Z"/><path fill="#ffd0a4" d="M966.28,764.65c3.08,0,14,2.77,14,2.77a6.19,6.19,0,0,0,1,2.82c.11.12.21.25.3.37,2.16,1.49,4.62,4.36-.75,7.06-10.43,5.24-21-.61-17.07-3.79C966.33,771.74,966.28,767.05,966.28,764.65Z"/><path fill="#4141aa" d="M962.16,775.29c.64-1.21,2-4,5.74-2.21,3.9,1.92,5.19,4.8,5.19,7.37s-7.54,1.9-7.87,1.56S962.16,775.29,962.16,775.29Z"/><path fill="#fff" d="M968.52,785.24a1.74,1.74,0,0,1-1.45-.76,15.16,15.16,0,0,0-7.74-5.4,1.75,1.75,0,0,1,.83-3.41,18.64,18.64,0,0,1,9.8,6.82,1.76,1.76,0,0,1-1.44,2.75Z"/><path fill="#fff" d="M963.05,790.12a1.74,1.74,0,0,1-1.44-.75,15.24,15.24,0,0,0-7.74-5.4,1.75,1.75,0,0,1,.83-3.41,18.63,18.63,0,0,1,9.79,6.81,1.76,1.76,0,0,1-.44,2.44A1.78,1.78,0,0,1,963.05,790.12Z"/><path fill="url(#s)" d="M905.42,719.9c6.34,0,9.75,9.67,7.68,16.43-1.57,2.46-6.08,5.27-6.08,5.27s-18.22,11.18-22.55,12.25-14.35,1-16.36-6.36c0-4.7,3.41-8,7.67-11.61,5.57-4.67,10.21-9.38,14.78-12.62C894.31,720.59,905.42,719.9,905.42,719.9Z"/><path fill="#1e1c6b" d="M884.28,751.82c4.47-1.09,23.21-12.6,23.21-12.6s4.35-2.73,6.08-5.2a14.54,14.54,0,0,1-.47,2.31c-1.57,2.46-6.08,5.27-6.08,5.27s-18.22,11.18-22.55,12.25-14.35,1-16.36-6.36c0-.16,0-.31,0-.47C871.22,752.86,880.2,752.83,884.28,751.82Z"/><path fill="#ffd0a4" d="M891,715.45c3.1,0,14,2.77,14,2.77a6.08,6.08,0,0,0,1,2.82c.11.12.2.25.3.37,2.15,1.49,4.62,4.35-.76,7.06-10.42,5.23-21-.61-17.07-3.79C891.11,722.54,891,717.85,891,715.45Z"/><path fill="#4141aa" d="M886.93,726.1c.64-1.22,2-4.07,5.73-2.22,3.91,1.92,5.2,4.8,5.2,7.37s-7.54,1.9-7.87,1.56S886.93,726.1,886.93,726.1Z"/><path fill="#fff" d="M893.28,736a1.74,1.74,0,0,1-1.44-.75,15.17,15.17,0,0,0-7.74-5.41,1.75,1.75,0,0,1,.83-3.41,18.55,18.55,0,0,1,9.79,6.83,1.75,1.75,0,0,1-1.44,2.74Z"/><path fill="#fff" d="M887.82,740.93a1.77,1.77,0,0,1-1.45-.76,15.18,15.18,0,0,0-7.73-5.4,1.75,1.75,0,0,1,.82-3.41,18.52,18.52,0,0,1,9.8,6.82,1.75,1.75,0,0,1-.45,2.44A1.73,1.73,0,0,1,887.82,740.93Z"/><path fill="url(#t)" d="M892.94,646.31c1.32-24.86,5.26-65.08,8.21-96.23,8.25,4,65.29,13.84,74.52,17.36,9.25,43.71,3.82,84.08,3.82,119.34,2.29,19.1,5.67,41.31,3.58,78.4-1.42,7.71-11.93,9.85-18.56,4.23-5.83-25.12-7.36-42.55-15.17-79.36-2.61-23.78-13.1-51.64-17.63-69.87-3.05,8.56-6.44,17.56-10,28.82-1.67,19.17-3,34.14-12.69,70-3,7.25-13.69,7.19-19,.33C889.48,693.57,891.62,671.17,892.94,646.31Z"/><path fill="#362e94" d="M920.93,431.27c-27.08,8.6-33.58,35.07-34.8,53.31-.8,12-2.07,55.86,14.89,45.54S920.93,431.27,920.93,431.27Z"/><path fill="url(#f)" d="M972.5,450.31c-7-8.79-24.28-21.06-35.59-21.89-19.22-1.42-34.44,14.47-38.37,27.74-3.69,12.49-.94,82.34,1.61,103.58,2,9,11.1,13,17.36,14.3,27.32,5.72,59,3.73,60.2-12.31C980.05,529.42,982.64,460.44,972.5,450.31Z"/><path fill="#362e94" d="M910,541c-1,1-5.15,12.6,3.65,16.09C918.12,554.75,919.63,542.92,910,541Z"/><path fill="#fcd1a9" d="M915.45,540.93l-5.61,2c-3.15.92-11.09-.64-15.53-5.08s-5.36,4.37-.17,6.88,5.25,4.69-3.13,6.2c-3.92.71-8,2.87-9.37,4.26-3,3-6.34,9.66-1.57,12.9,3.87,2.62,15.38-2.55,18.86-4,9.6-3.9,7.67-5.81,13.06-8.37s6.58-2.45,6.58-2.45Z"/><path fill="url(#u)" d="M960,446.21c6-1.24,15.34-.57,19.12,17.74,3.36,16.25,1.78,53.46-.73,58.22-11.72,22.22-27,38.14-56.55,46.66,3.77-4.31,1.26-13.86-3.65-16.09,20-8.76,32.28-26.42,38.33-36.52,0-7.59-4.78-39.64-5.22-49.45C950.75,454.57,954,447.44,960,446.21Z"/><path fill="#fcd1a9" d="M939.33,402.9c.71-6.23-20.82,6.45-20,14.68.7,6.69,2.65,12.58-4.12,16.77-2.33,1.86-10.31,14.87,2,15,17.55.21,22.24-4.61,34.93-15.48C944.59,429.6,937.05,423.09,939.33,402.9Z"/><path fill="#fcd1a9" d="M944.4,399.22l-8.74-12.31H897.6v22.91c0,12.66,8.52,22.91,19,22.91,10.21,0,19.68-8.44,20.18-20.57l4.62-1.59Z"/><path fill="#f2c39d" d="M917.51,438.86c9.09,0,20.35-14.61,19.29-26.69-.47,11.39-9.94,19.6-19.41,20.54a15.76,15.76,0,0,1-2.13,1.64,5.49,5.49,0,0,0-.63.64C914.63,436.84,915.85,438.86,917.51,438.86Z"/><path fill="#20196f" d="M899.82,376.57c-3.48-.61-3.8-3.5,10.31-8.38,8.2-4,19.82-5.26,27.34-.61,10.19,6.32,13.27,15.59,11.44,27.22s-9.28,22.71-9.28,22.71c-1.13,1.14-1.29-4.22-.38-8.2.43-.4.88-1.46,1.33-3.4,2.7-11.82-4.54-10.06-5.52-9.06-2.23.92,2.08,10.7-4.46,9.72-3.16-.46-2.73-9.3-2.72-12.41-.47.12-.92.2-1.43.38-5.39,3-23.75,5.18-13.56-1.19-7.1,0-16.77,3.27-20-1.23C889,386.75,895.19,380.91,899.82,376.57Z"/><path d="M926.41,635s-.73-25.54.52-32.55l4.78,17.75c-1.6,4.51-3.31,9.17-5.08,14.19Z" style="mix-blend-mode:multiply" fill="#d3d8f2"/><polygon points="698.77 836.74 581.78 836.82 583.16 852.93 569.65 852.78 577.17 876.16 698.77 876.09 698.77 836.74" style="mix-blend-mode:multiply" fill="url(#p)"/><path fill="#facfa7" d="M597.05,585.55c-2.24-2.47-4.66-20.1-6.19-29.41s-7.59-13.29-13-16c0,0-3.29,13-7.28,13.72,3.2,17.88,9.94,37.59,17.84,44.08,8.06,6.62,22.61,10.07,36.48,11.4,0,0,1.6-7.41,2.41-9.17C615.46,595.87,601.61,590.59,597.05,585.55Z"/><path fill="url(#c)" d="M574.87,835.41c-5.65.92-7.29,10-4.47,15.75,1.76,2,6.19,3.8,6.19,3.8s17.86,7.33,21.87,7.65,12.94-1.18,13.67-8c-.68-4.19-4.21-5.34-8.54-7.91-5.63-3.35-10.45-8.19-15-10.43C584.86,834.4,574.87,835.41,574.87,835.41Z"/><path fill="#facfa7" d="M585.72,829.59c-2.76.46-11.62,2.65-11.62,2.65s-3.28,9.19,1.89,10.81c10.06,3.16,18.63-3.58,14.67-5.85C588,835.68,585.39,834,585.72,829.59Z"/><path fill="#121047" d="M598.34,860.78c-4.13-.34-22.51-7.87-22.51-7.87s-4.28-1.79-6.18-3.75a14,14,0,0,0,.75,2c1.76,2,6.19,3.8,6.19,3.8s17.86,7.33,21.87,7.65,12.94-1.18,13.67-8c0-.14-.08-.27-.1-.42C610.13,859.8,602.12,861.08,598.34,860.78Z"/><path fill="#362e91" d="M592.37,838.55c-.74-1-2.49-3.64-5.56-1.45s-3.93,5-3.55,7.32,7,.59,7.23.25S592.37,838.55,592.37,838.55Z"/><path fill="#fff" d="M595.41,841.41a13.38,13.38,0,0,0-6,5.83,1.81,1.81,0,1,1-3.27-1.56,17,17,0,0,1,7.85-7.6,1.81,1.81,0,0,1,1.42,3.33Z"/><path fill="#fff" d="M601,845a13.41,13.41,0,0,0-6,5.83,1.81,1.81,0,0,1-3.27-1.56,17,17,0,0,1,7.85-7.61A1.81,1.81,0,0,1,601,845Z"/><path fill="#facfa7" d="M584.16,649.23c2.71,33.63,7.22,65.63,7.22,92.61,0,30.87-5.36,63.38-5.69,89.25.29,7.93-8.71,14.15-12.52,7.15-.17-2.31.91-5.23.52-8.61-2.31-19.71-9.05-50-3.37-75.45-7.82-33.77-29.33-75.51-26.15-102C554,647.32,576.68,646.86,584.16,649.23Z"/><path fill="url(#v)" d="M551.29,849c-5.65.92-7.28,10-4.45,15.76,1.75,2,6.19,3.8,6.19,3.8s17.85,7.33,21.86,7.65,12.94-1.18,13.67-8c-.68-4.18-4.21-5.33-8.54-7.9-5.62-3.35-10.45-8.2-15-10.43C561.29,848,551.29,849,551.29,849Z"/><path fill="#facfa7" d="M562.14,843.16c-2.75.45-11.61,2.64-11.61,2.64s-3.29,9.19,1.89,10.81c10.06,3.16,18.62-3.59,14.67-5.86C564.44,849.24,561.82,847.52,562.14,843.16Z"/><path fill="#121047" d="M574.77,874.33c-4.13-.33-22.51-7.85-22.51-7.85s-4.28-1.81-6.17-3.76a12.28,12.28,0,0,0,.75,2c1.75,2,6.19,3.8,6.19,3.8s17.85,7.33,21.86,7.65,12.94-1.18,13.67-8c0-.14-.08-.26-.11-.4C586.56,873.37,578.55,874.64,574.77,874.33Z"/><path fill="#362e91" d="M568.8,852.11c-.75-1-2.49-3.65-5.56-1.46s-3.93,5-3.56,7.33,7,.59,7.24.25S568.8,852.11,568.8,852.11Z"/><path fill="#fff" d="M571.83,855a13.51,13.51,0,0,0-6,5.84,1.81,1.81,0,0,1-3.27-1.56,17,17,0,0,1,7.85-7.61,1.81,1.81,0,1,1,1.41,3.33Z"/><path fill="#fff" d="M577.41,858.52a13.5,13.5,0,0,0-6,5.84,1.81,1.81,0,0,1-3.27-1.56,17.05,17.05,0,0,1,7.84-7.61,1.81,1.81,0,0,1,1.42,3.33Z"/><path fill="#facfa7" d="M565.68,663.7c0,30.91.33,65.47.33,92.45,0,30.87-3.56,62.63-3.89,88.49.29,7.94-8.72,14.16-12.52,7.16-.17-2.31.91-5.23.52-8.61-2.31-19.71-9-50-3.38-75.45-7.81-33.78-19.85-69.36-12.69-103.8C543.82,659.09,558.2,661.33,565.68,663.7Z"/><path fill="url(#w)" d="M542.44,628.26C545,605,534,578.71,532,564.16c-1.27-9.18-2.19-19.93,6.13-22.52,8.58-2.67,12.18-2.37,19.5-3.73,17.94-3.35,26.34,4.12,30,16.47,3.44,11.64,5.88,15.17,8.71,26.57,1.27,5.11-15.59,13.43-14,35.48,14.29,19.85,24.2,64.21,28,97.65,1.46,10.07-8.8,23-26.92,32.1-22.86,11.44-49.51,12.35-59.52,2a12.87,12.87,0,0,1-3.78-8.62C520.13,727.74,526.87,647.6,542.44,628.26Z"/><path fill="#facfa7" d="M551.25,516.07c.32-5.52,19.19,5.46,18.78,12.74-.35,5.93-1.12,11.89,1.1,12.65,2.58,1.86,10.24,21.52,5.64,26.12-16-6.57-24.4-20.46-38.65-25.94C544,540.45,550.23,533.94,551.25,516.07Z"/><path fill="#fcd1a9" d="M532.19,555.9c2.26-13.17,18.35-6.84,17.13,6.73-.68,16.46,0,30.9,3.13,41.87,2.25,7.76,16.09,20.11,31.69,28.66,2.62,1.44,8.11,1.74,12.76-1.55s4.36,2.19-.25,4.67c-3.4,1.83,1.82,3.85,5.7,4.4h0a26.74,26.74,0,0,0,8.14.18c1.48,0,2.65,1.2,1.63,2.22a1.4,1.4,0,0,1,.44,2.67c1.34.55,1.58,2.44-.49,3.14.84,1.09,0,2.53-4,3.62-2.44.66-9.15,1.29-13.67,0l-.29-.08s0,0,0,0h0a17.09,17.09,0,0,1-8.17-5,15.27,15.27,0,0,0-3.67-2.55c-24.08-12.82-37.13-19.27-44.07-35.25C535.39,603.29,532.16,578.62,532.19,555.9Z"/><path fill="#facfa7" d="M546.7,508.44l5.68-14.22h36v21.67c0,12-8.06,21.67-18,21.67-9.65,0-17.45-9.14-17.92-20.61L550,517Z"/><path fill="#f0c09b" d="M555.58,528c3.09,5.51,8.2,9.17,14.06,9.47.07,1.79.33,2.9.91,3.57a13.74,13.74,0,0,1-2.85-.26C561.69,539.35,557.35,534.38,555.58,528Z"/><path fill="url(#x)" d="M568.36,479.11a1.9,1.9,0,0,0-.34,0,22.6,22.6,0,0,0-2.48,0h0c-.51,0-1,.09-1.49.15-19.47,2.36-22.06,22.05-30.16,27.48-5,3.32-16-3-22.48,8.27-7.45,12.89,4.6,17.56-3.29,23s-14,22.11-.81,32.34,29.62,1.24,27.76-13.73c-1.34-10.78,1.86-16.34,10.91-12.86,6.79,2.61,9.38-2.74,6.34-9.64,15.07,1.5-.74-27.26,22-39.14,3.91-.33,7.84,3.89,14.07,1.66C589.48,494.29,588,479.61,568.36,479.11Z"/><path d="M562.08,617.41c-5-4.74-8.59-9.32-9.63-12.91-3.17-11-3.81-25.41-3.13-41.87a14.57,14.57,0,0,0-.84-6.49,14.76,14.76,0,0,1,1.79,6.29c1.75,16.39,4.5,30.58,9.25,41C561.43,607.57,562.08,617.41,562.08,617.41Z" style="mix-blend-mode:multiply" fill="url(#y)"/><polygon points="1344.36 718.12 1344.37 718.12 1324.12 706.43 1337.12 691.7 1337.12 691.7 1337.12 691.7 1318.9 691.7 1312.51 698.94 1311.61 699.2 1291.36 687.51 1295.84 703.84 1270.33 711.35 1298.61 713.93 1298.77 714.51 1284.87 730.26 1303.09 730.26 1316.09 715.53 1344.37 718.12 1344.36 718.12" style="mix-blend-mode:multiply" fill="url(#z)"/><polygon fill="#fcba06" points="1273.14 676.28 1273.14 687.51 1277.62 703.84 1277.62 692.61 1273.14 676.28"/><polygon fill="#e19100" points="1318.9 680.46 1318.9 691.7 1305.9 706.43 1305.9 695.19 1318.9 680.46"/><polygon fill="#fcba06" points="1297.87 704.3 1297.87 715.53 1326.15 718.12 1326.15 706.88 1297.87 704.3"/><polygon fill="#e19100" points="1252.11 700.11 1252.11 711.35 1280.39 713.93 1280.39 702.7 1252.11 700.11"/><polygon fill="#e19100" points="1297.87 704.3 1297.87 715.53 1284.87 730.26 1284.87 719.03 1297.87 704.3"/><polygon fill="#fcba06" points="1284.87 719.03 1284.87 730.26 1280.39 713.93 1280.39 702.7 1284.87 719.03"/><polygon fill="#ffd03e" points="1318.9 680.46 1305.9 695.19 1326.15 706.88 1297.87 704.3 1284.87 719.03 1280.39 702.7 1252.11 700.11 1277.62 692.61 1273.14 676.28 1293.39 687.97 1318.9 680.46"/><path d="M491.58,829.21c-6.71-3.87-15.63-5.66-24.4-5.39H453.44v2.25a36.92,36.92,0,0,0-7.27,3.14c-12.49,7.27-12.42,19,.16,26.31a36.17,36.17,0,0,0,7.11,3.08V861h16.48c7.93-.14,15.78-1.93,21.81-5.44C504.23,848.26,504.17,836.48,491.58,829.21Z" style="mix-blend-mode:multiply" fill="url(#d)"/><path fill="url(#e)" d="M432.17,855.53c-6.33-3.65-9.49-8.45-9.48-13.24l0-10.92c0,4.79,3.15,9.59,9.48,13.25,12.58,7.26,32.91,7.26,45.41,0,6.21-3.61,9.31-8.33,9.33-13.06l0,10.92c0,4.72-3.12,9.44-9.33,13.06C465.08,862.8,444.75,862.8,432.17,855.53Z"/><path fill="#f0f2f6" d="M432.2,844.62c-12.58-7.27-12.65-19-.15-26.31s32.83-7.26,45.41,0,12.64,19,.15,26.31S444.78,851.88,432.2,844.62Z"/><polygon fill="#bbc0e6" points="471.3 829.97 447.54 831.18 448.28 825.84 441.72 825.84 439.93 835.57 471.3 833.76 471.3 829.97"/><path d="M607.43,978.87c-6.72-3.88-15.64-5.66-24.4-5.4H569.29v2.25a35.86,35.86,0,0,0-7.27,3.15c-12.5,7.26-12.42,19,.15,26.3a36.62,36.62,0,0,0,7.12,3.09v2.35h16.48c7.92-.13,15.77-1.93,21.81-5.43C620.07,997.91,620,986.13,607.43,978.87Z" style="mix-blend-mode:multiply" fill="url(#A)"/><path fill="url(#B)" d="M548,1005.18c-6.33-3.65-9.5-8.45-9.48-13.24l0-10.92c0,4.79,3.15,9.59,9.48,13.25,12.58,7.26,32.91,7.26,45.41,0,6.21-3.61,9.32-8.33,9.33-13.06l0,10.92c0,4.73-3.12,9.45-9.33,13.06C580.93,1012.45,560.6,1012.45,548,1005.18Z"/><path fill="#f0f2f6" d="M548,994.27c-12.58-7.26-12.65-19-.15-26.3s32.83-7.27,45.41,0,12.64,19,.15,26.3S560.62,1001.53,548,994.27Z"/><polygon fill="#bbc0e6" points="585.96 986.75 576.21 981.12 585.96 975.49 580.42 972.29 570.67 977.92 560.92 972.29 555.38 975.49 565.14 981.12 555.38 986.75 560.92 989.94 570.67 984.31 580.42 989.94 585.96 986.75"/><path d="M967.51,907.28c-6.71-3.87-15.64-5.66-24.4-5.4H929.37v2.25a37,37,0,0,0-7.27,3.15c-12.49,7.27-12.42,19,.15,26.31a36.26,36.26,0,0,0,7.12,3.08V939h16.48c7.93-.13,15.78-1.93,21.81-5.43C980.16,926.32,980.09,914.55,967.51,907.28Z" style="mix-blend-mode:multiply" fill="url(#C)"/><path fill="url(#D)" d="M908.1,933.6c-6.33-3.65-9.49-8.45-9.48-13.24l0-10.92c0,4.79,3.14,9.59,9.48,13.24,12.58,7.27,32.91,7.27,45.4,0,6.21-3.62,9.32-8.33,9.34-13.07l0,10.92c0,4.73-3.12,9.45-9.33,13.06C941,940.87,920.68,940.87,908.1,933.6Z"/><path fill="#f0f2f6" d="M908.13,922.68c-12.58-7.26-12.65-19-.16-26.3s32.84-7.26,45.42,0,12.64,19,.14,26.31S920.71,930,908.13,922.68Z"/><polygon fill="#bdc2de" points="947.23 908.04 923.47 909.25 924.21 903.9 917.64 903.9 915.86 913.64 947.23 911.83 947.23 908.04"/><path d="M1043.34,925.93a10,10,0,0,0-5.18,1.3l-5.84,3.38-1.1-.64a1.78,1.78,0,0,0-1.73,0c-.14.06-20.53,11.84-20.53,11.84a2.06,2.06,0,0,0-.69.56l-1,1.39-174,107.69-12.2,18.91,31.92-10,164.17-94.79a1.77,1.77,0,0,0,1.74,0c.11,0,20.55-11.84,20.55-11.84a2.17,2.17,0,0,0,.66-.56l1.47-2.09,7.65-4.42a11.35,11.35,0,0,0,5.31-9.54A11.19,11.19,0,0,0,1043.34,925.93Z" style="mix-blend-mode:multiply" fill="url(#E)"/><path fill="url(#F)" d="M1025.28,922.05a9.91,9.91,0,0,0-5.19,1.31l-7.31,4.22a9.92,9.92,0,0,1,2,.88c5,2.88,9,9.89,9,15.66a8.65,8.65,0,0,1-.6,3.23l7.92-4.57a11.31,11.31,0,0,0,5.31-9.54A11.19,11.19,0,0,0,1025.28,922.05Z"/><path fill="url(#G)" d="M812.81,1052.4a6.44,6.44,0,0,1,2.92,5.06c0,1.13-.48,1.85-1.22,2l20.41-3,4.36-6.21-4.36-11.24-8.72-5-15.69,18.36A1.88,1.88,0,0,1,812.81,1052.4Z"/><path fill="url(#H)" d="M812.81,1052.4a1.88,1.88,0,0,0-2.3,0l-.23.27-7.27,8.51,11.29-1.65.21,0c.74-.18,1.22-.9,1.22-2A6.44,6.44,0,0,0,812.81,1052.4Z"/><path fill="#e1e5f1" d="M992,957.61a5.29,5.29,0,0,1-2-2.31l-3.54-9.12a3.37,3.37,0,0,1,.34-2.82l3.4-4.84a1.81,1.81,0,0,1,2.33-.52l7.11,4.1a5.38,5.38,0,0,1,2,2.32l3.54,9.12a3.38,3.38,0,0,1-.35,2.82l-3.39,4.84a1.8,1.8,0,0,1-2.33.51Z"/><polygon fill="#fcba06" points="1004.53 954.89 839.28 1050.3 834.92 1039.06 1000.17 943.65 1004.53 954.89"/><polygon fill="#e19100" points="1000.17 961.1 834.92 1056.51 839.28 1050.3 1004.53 954.89 1000.17 961.1"/><polygon fill="#ffd03e" points="1000.17 943.65 834.92 1039.06 826.2 1034.03 991.45 938.62 1000.17 943.65"/><path fill="url(#I)" d="M1025.78,941.63l-3.53-9.12a5.36,5.36,0,0,0-2-2.31l-7.11-4.11a1.78,1.78,0,0,0-1.73,0c-.14.06-20.54,11.84-20.54,11.84a1.88,1.88,0,0,1,1.64,0l7.11,4.1a5.38,5.38,0,0,1,2,2.32l3.54,9.12a3.38,3.38,0,0,1-.35,2.82l-3.39,4.84a1.83,1.83,0,0,1-.47.45l20.43-11.8a2,2,0,0,0,.66-.56l3.4-4.84A3.34,3.34,0,0,0,1025.78,941.63Z"/><path d="M1003.92,959.93a1.83,1.83,0,0,0,.47-.45l3.4-4.84a3.38,3.38,0,0,0,.35-2.82l-3.54-9.12a5.38,5.38,0,0,0-2-2.32l-7.11-4.1a1.79,1.79,0,0,0-1.61,0s-1.49.83-1.49.83a1.83,1.83,0,0,1,1.63,0l7.12,4.1a5.36,5.36,0,0,1,2,2.31l3.53,9.12a3.36,3.36,0,0,1-.34,2.83l-3.4,4.84a1.64,1.64,0,0,1-.47.44Z" style="mix-blend-mode:multiply" fill="url(#g)"/><path d="M1007,958.15a1.83,1.83,0,0,0,.47-.45l3.39-4.84a3.34,3.34,0,0,0,.35-2.82l-3.54-9.13a5.41,5.41,0,0,0-2-2.31l-7.11-4.1a1.73,1.73,0,0,0-1.61,0s-1.49.83-1.49.83a1.85,1.85,0,0,1,1.64.05l7.11,4.1a5.29,5.29,0,0,1,2,2.31l3.54,9.12a3.4,3.4,0,0,1-.35,2.83l-3.4,4.84a1.41,1.41,0,0,1-.47.44Z" style="mix-blend-mode:multiply" fill="url(#J)"/><path d="M1010.09,956.37a1.83,1.83,0,0,0,.47-.45l3.4-4.84a3.4,3.4,0,0,0,.34-2.83l-3.53-9.11a5.4,5.4,0,0,0-2-2.32l-7.11-4.1a1.79,1.79,0,0,0-1.61,0s-1.49.83-1.49.83a1.89,1.89,0,0,1,1.64.06l7.11,4.1a5.29,5.29,0,0,1,2,2.31l3.54,9.12a3.4,3.4,0,0,1-.34,2.83l-3.4,4.84a1.64,1.64,0,0,1-.47.44Z" style="mix-blend-mode:multiply" fill="url(#K)"/><path d="M1185.81,576.74c-16.69-9.63-38.87-14.07-60.65-13.42h-19v5.6a90.76,90.76,0,0,0-18.08,7.82c-31.05,18.06-30.87,47.33.38,65.38a91.12,91.12,0,0,0,17.7,7.67v5.85H1132c19.69-.33,39.22-4.8,54.21-13.51C1217.24,624.07,1217.08,594.8,1185.81,576.74Z" style="mix-blend-mode:multiply" fill="url(#k)"/><path fill="#bbc0e6" d="M1165,631.29c-15.26,8.81-35.26,13.21-55.26,13.21s-40-4.4-55.27-13.22-22.9-20.36-22.9-31.91v11.14c0,11.55,7.63,23.1,22.9,31.91s35.26,13.22,55.27,13.22,40-4.4,55.26-13.22c1.63-.93,3.15-1.91,4.6-2.91V628.37C1168.17,629.37,1166.65,630.35,1165,631.29Z"/><path fill="#5652cc" d="M1169.62,628.37v11.14c12.19-8.37,18.3-18.68,18.3-29V599.37C1187.92,609.69,1181.81,620,1169.62,628.37Z"/><path fill="#dfe4f4" d="M1109.75,554.24c-20,0-40,4.41-55.27,13.22s-22.9,20.36-22.89,31.91,7.63,23.1,22.9,31.91,35.26,13.22,55.27,13.22,40-4.4,55.26-13.21c1.63-.94,3.15-1.92,4.6-2.92l-59.87-29.25Z"/><path fill="#807dfb" d="M1165,567.46c-15.26-8.81-35.27-13.22-55.27-13.22h0v44.88l59.87,29.25c12.19-8.37,18.3-18.68,18.3-29C1187.92,587.82,1180.28,576.27,1165,567.46Z"/><polygon fill="#20196f" points="985.02 801.52 1147.12 707.93 1147.12 668.15 985.02 761.74 985.02 801.52"/><path fill="url(#L)" d="M923.9,703.44c-7.55-4.36-19.8-4.36-27.36,0l-6.25,3.61v39.77l6.25-3.6c5.71-3.3,14.09-4.1,21.11-2.42v-18l6.25-3.6C931.45,714.88,931.45,707.8,923.9,703.44Z"/><polygon fill="#dc8b00" points="917.65 613.46 985.02 574.57 985.02 554.68 917.65 593.58 917.65 613.46"/><polygon fill="#dc8b00" points="822.92 668.15 890.29 629.26 890.29 609.37 822.92 648.27 822.92 668.15"/><path fill="url(#M)" d="M923.9,613c-7.56,4.36-19.81,4.36-27.36,0l-6.25-3.61v39.77l6.25,3.61c7.55,4.36,19.8,4.36,27.36,0,3.82-2.21,5.7-5.11,5.65-8V605.18C929.51,608,927.63,610.82,923.9,613Z"/><path fill="url(#N)" d="M761.8,590c-7.56-4.36-19.81-4.36-27.36,0l-6.24,3.61v39.77l6.24-3.61c5.71-3.29,14.09-4.09,21.11-2.41v-18l6.25-3.61C769.35,601.4,769.35,594.33,761.8,590Z"/><polygon fill="#423eaf" points="755.55 746.83 822.92 707.93 822.92 668.16 755.55 707.05 755.55 746.83"/><polygon fill="#423eaf" points="660.82 801.52 728.2 762.62 728.2 722.85 660.82 761.74 660.82 801.52"/><path fill="url(#O)" d="M761.8,726.45c-7.56,4.36-19.81,4.36-27.36,0l-6.24-3.6v39.77l6.24,3.61c7.55,4.36,19.8,4.36,27.36,0,3.82-2.21,5.7-5.11,5.65-8V718.66C767.41,721.48,765.53,724.3,761.8,726.45Z"/><polygon fill="#bbc0e6" points="822.92 914.99 985.02 821.41 985.02 781.63 822.92 875.22 822.92 914.99"/><polygon fill="#ced3f8" points="822.92 914.99 660.82 821.41 660.82 781.63 822.92 875.22 822.92 914.99"/><path fill="#f6f6fb" d="M917.65,742.73l6.25-3.6c7.55-4.37,7.55-11.44,0-15.8s-19.8-4.36-27.36,0l-6.25,3.61L822.92,688l-55.47,32v18.21h0c.07,2.92-1.8,5.85-5.65,8.07-7.56,4.36-19.81,4.36-27.36,0l-6.24-3.61-67.38,38.9,162.1,93.59L985,781.63Z"/><path d="M927,725.66a14.63,14.63,0,0,0-3.06-2.33c-7.56-4.36-19.8-4.36-27.36,0l-6.25,3.61h34.45Z" style="mix-blend-mode:multiply" fill="#c4cae9"/><polygon fill="#362e94" points="985.02 781.63 917.65 742.73 917.65 722.84 985.02 761.74 985.02 781.63"/><polygon fill="#362e94" points="890.29 726.94 822.92 688.04 822.92 668.15 890.29 707.05 890.29 726.94"/><polygon fill="#5652cc" points="660.82 801.52 498.72 707.93 498.72 668.15 660.82 761.74 660.82 801.52"/><path fill="#423eaf" d="M985,574.57l-55.47,32v18.17h0c.09,2.93-1.79,5.87-5.65,8.1-7.56,4.36-19.81,4.36-27.36,0l-6.25-3.6-67.37,38.89,67.37,38.9,6.25-3.61c7.56-4.36,19.81-4.36,27.36,0s7.55,11.44,0,15.8l-6.25,3.61L985,761.74l162.1-93.59Z"/><path fill="#807dfb" d="M761.79,710.66l-6.24-3.61,67.37-38.9-67.37-38.89,6.25-3.61c7.55-4.36,7.55-11.43,0-15.79s-19.81-4.36-27.36,0l-6.24,3.6-67.38-38.89-162.1,93.58,162.1,93.59,67.38-38.9,6.24,3.61c7.55,4.36,19.8,4.36,27.36,0S769.35,715,761.79,710.66Z"/><path d="M764.86,612.18a14.6,14.6,0,0,0-3.06-2.32c-7.56-4.36-19.8-4.36-27.36,0l-6.24,3.6h34.44Z" style="mix-blend-mode:multiply" fill="#c4cae9"/><polygon fill="#fcba06" points="728.2 613.47 660.82 574.57 660.82 554.68 728.2 593.58 728.2 613.47"/><polygon fill="#fcba06" points="822.92 668.15 755.55 629.26 755.55 609.37 822.92 648.27 822.92 668.15"/><path fill="#ffd03e" d="M923.9,597.18l-6.25-3.6L985,554.68l-162.1-93.59-162.1,93.59,67.38,38.9,6.24-3.61c7.56-4.36,19.8-4.36,27.36,0s7.55,11.43,0,15.79l-6.25,3.61,67.37,38.9,67.37-38.9,6.25,3.61c7.56,4.36,19.81,4.36,27.36,0S931.45,601.54,923.9,597.18Z"/><path d="M913.05,636h28.81c5.84.5,12-.54,16.48-3.14,7.55-4.36,7.56-11.43,0-15.79l-6.25-3.61,50.15-29L985,574.57l-55.47,32v18.17h0c.09,2.93-1.79,5.87-5.65,8.1-7.56,4.36-19.81,4.36-27.36,0l-6.25-3.6-67.37,38.89h34.45Z" style="mix-blend-mode:multiply" fill="url(#h)"/><path d="M751,749.48h28.81c5.84.49,12-.55,16.48-3.14,7.55-4.36,7.56-11.43,0-15.79L790,726.94l50.15-29L822.92,688l-55.47,32v18.18h0c.1,2.92-1.78,5.87-5.65,8.1-7.55,4.36-19.8,4.36-27.35,0l-6.25-3.61-67.37,38.9h34.44Z" style="mix-blend-mode:multiply" fill="url(#P)"/><polygon points="840.14 697.98 822.92 668.15 822.92 688.04 840.14 697.98" style="mix-blend-mode:multiply" fill="url(#Q)"/><rect width="100.84" height="23.74" x="1077.23" y="1013.53" style="mix-blend-mode:multiply" fill="url(#i)"/><rect width="100.94" height="23.74" x="1136.68" y="979.27" style="mix-blend-mode:multiply" fill="url(#R)"/><path fill="url(#j)" d="M1150.34,995.68c0-18.65-11.82-19.19-11.82-19.19s-6.4,0-16.8-4.31-24.72-2.62-16.64,12.29a3.18,3.18,0,0,0,.28.55,7.25,7.25,0,0,0,2.62,2.3l25.83,15.15C1137.74,1004.72,1150.25,999.53,1150.34,995.68Z"/><path fill="#131147" d="M1150.27,994c-.22,3.84-12.56,8.93-16.46,6.7L1108,985.57a24.78,24.78,0,0,1-3.65-2.66c.25.51.45,1,.75,1.56a3.18,3.18,0,0,0,.28.55,7.25,7.25,0,0,0,2.62,2.3l25.83,15.15c3.68,2.11,14.89-2.32,16.37-6.05a3.88,3.88,0,0,0,.11-.75A11.46,11.46,0,0,0,1150.27,994Z"/><path fill="#fff" d="M1145.54,974c-3,0-13.76,2.73-13.76,2.73a6.07,6.07,0,0,1-1,2.77l-.3.36c-2.11,1.47-4.26,3.8.75,6.94,4.11,2.59,7.45.95,9-.63a8.18,8.18,0,0,1,2.92-3.31,7.48,7.48,0,0,1,2.79-1.18,1.14,1.14,0,0,1,0-.26S1146.81,974,1145.54,974Z"/><path fill="#20196f" d="M1145.72,791.66l-52.54.94c4.35,35.1,13.09,67,18.94,101,6.26,33,13.33,56.26,19.49,83.76,2.26,5.12,12.59,3.18,14.69-1.74,1.63-25.33,3.51-56.18-4-85.4C1143.56,858.72,1146.46,823.46,1145.72,791.66Z"/><path fill="url(#S)" d="M1091.46,1030c0-18.65-11.82-19.19-11.82-19.19s-6.4,0-16.8-4.32-24.72-2.61-16.64,12.3a5.6,5.6,0,0,0,.28.54,7.07,7.07,0,0,0,2.62,2.3l25.83,15.16C1078.86,1039,1091.37,1033.8,1091.46,1030Z"/><path fill="#131147" d="M1091.39,1028.29c-.22,3.83-12.56,8.92-16.46,6.7l-25.83-15.16a23.2,23.2,0,0,1-3.64-2.65c.24.52.45,1,.74,1.57a5.6,5.6,0,0,0,.28.54,7.07,7.07,0,0,0,2.62,2.3l25.83,15.16c3.68,2.1,14.89-2.33,16.37-6a4,4,0,0,0,.11-.76A11.31,11.31,0,0,0,1091.39,1028.29Z"/><path fill="#fff" d="M1086.66,1008.31c-3,0-13.76,2.73-13.76,2.73a6.12,6.12,0,0,1-1,2.78,3.58,3.58,0,0,0-.3.36c-2.11,1.47-4.27,3.79.75,6.94,4.11,2.58,7.44.94,9-.64a8.4,8.4,0,0,1,2.92-3.31,7.37,7.37,0,0,1,2.79-1.18,1.11,1.11,0,0,1,0-.25S1087.93,1008.31,1086.66,1008.31Z"/><path fill="url(#T)" d="M1108.67,875.13c3.19-15.09,40-17,37.6-76.3-11.55-1.7-69.84,25.64-81.4,23.94-1.44,35.34,2,68.23,2.19,102.72.79,33.63,4,57.68,5.56,85.83,1.39,5.42,11.89,5.19,14.77.67,5.74-24.72,12.63-54.85,10-84.9C1100.83,910.44,1104.93,892.8,1108.67,875.13Z"/><path fill="#dc8b00" d="M1119.62,683.6c41.13,27.48,30.69,72.48.86,90.27C1120.48,773.87,1148.19,723.55,1119.62,683.6Z"/><path fill="url(#U)" d="M1121.5,832.47c-25,14-51.21,14.08-60.14-3.19,3.34-32.15,6.47-58.32,0-89.13,1.91-17,3.24-19.58,1.06-29.5.78-3.33,11-10.44,18.47-17.25,8.06-7.36,13.5-14.35,17.65-15.2,34.23-7,50.86,54,48,119C1143.91,814.52,1133.83,825.55,1121.5,832.47Z"/><path fill="#fcd1a9" d="M1117.54,682.08c-7.42-5.36-6.32-8.87-5.21-16.17a36.26,36.26,0,0,0,2.24-12.61c0-16.26-10.35-30.31-23-29.44-25.57,1.76-21,15.22-21,31.48,0,15.06,6.84,25.43,18.27,27.18,0,2.47-.66,3.89-3.77,7,8.35,5,20.55,2.65,25.36.48C1115.49,687.68,1121,685.69,1117.54,682.08Z"/><path fill="#131147" d="M1111.2,622.81c-4.45-4.3-9.63-.18-12.22-1.52l-1.4-.68h0c-3.39-2-1.76-3.51-4.9-5.38s-6.11.72-8.13,0h0c-4.77-1.5-9.08-2.12-11-.37a13.32,13.32,0,0,0-2.45,3.23h0c-1.61,2.69-7.17-.77-6.82,5,.32,5.46,2.37,7.28,3.23,15.62q0,.74.12,1.44l0,.28s0,0,0,0c.64,5.4,2.38,6.84,5.13,9.59s2.58.14,2.71-.92c.25-2,.82-3.75,2-3.67s3.58.68,4.8,5.92c.89,3.77-1.66,2.94-1.43,4,3.42,15.39,9.17,14.23,15.7,16.07a20,20,0,0,0,15.4-1.53c1.57-5.89,2.2-9.35,3-12.11a48.11,48.11,0,0,0,0-16.72s0,0,0,0C1113.12,633.9,1115.56,627,1111.2,622.81Z"/><path fill="url(#V)" d="M1090.63,712.63c-9.89-16.49-30.7-9.82-32,9.32-.62,15,1,35.09-3.84,49.87A81.08,81.08,0,0,1,1042,768.6L1022.23,780c10.38,8.34,23.3,15.46,39.13,18C1082.82,789,1097.54,728.4,1090.63,712.63Z"/><path fill="url(#W)" d="M1117.06,681.71c.16.13.31.25.48.37,3.48,3.6-2,5.6-7.19,7.92-4.81,2.17-17,4.53-25.36-.48h0c0-1.29,2-5.18,3.7-5.92.78,1.67,7.91,5.14,21.92-.85,6.31-2.7,2.67-3.89,2.5-4.88,1.15,0,2.76,2.23,4.39,4.16Z"/><path d="M365.79,909c-10.85-6.26-25.27-9.14-39.43-8.72H304.15v3.64A59,59,0,0,0,292.4,909c-20.19,11.75-20.07,30.78.25,42.52a58.71,58.71,0,0,0,11.5,5v3.81h26.63c12.81-.22,25.51-3.12,35.25-8.79C386.23,939.73,386.13,920.7,365.79,909Z" style="mix-blend-mode:multiply" fill="url(#X)"/><path fill="#ffe54c" d="M255.63,916.43c0-7.51,5-15,14.89-20.75s22.93-8.6,35.94-8.6,26,2.86,35.93,8.6,14.89,13.23,14.9,20.75-5,15-14.9,20.75-22.92,8.59-35.93,8.59-26-2.86-35.94-8.59S255.63,923.93,255.63,916.43Z"/><path fill="url(#l)" d="M342.39,937.18c-9.92,5.73-22.92,8.59-35.93,8.59s-26-2.86-35.94-8.59-14.89-13.25-14.89-20.75v14.48c0,7.51,5,15,14.89,20.75s22.93,8.6,35.94,8.6,26-2.87,35.93-8.6,14.9-13.24,14.9-20.75V916.43C357.29,923.93,352.32,931.44,342.39,937.18Z"/><path fill="#ffd03e" d="M277.27,933.27c8.06,4.66,18.63,7,29.19,7s21.13-2.33,29.19-7c7.43-4.29,11.43-9.82,12-15.44-.57-5.62-4.57-11.14-12-15.44-8.07-4.65-18.63-7-29.19-7s-21.13,2.33-29.19,7c-7.44,4.29-11.43,9.82-12,15.44C265.84,923.46,269.83,929,277.27,933.27Z"/><path fill="#e19100" d="M277.27,902.4c8.06-4.65,18.62-7,29.19-7s21.12,2.33,29.19,7c7.43,4.3,11.43,9.82,12,15.44a13.33,13.33,0,0,0,.08-1.41c0-6.11-4-12.2-12.08-16.85s-18.63-7-29.19-7-21.13,2.33-29.19,7-12.09,10.75-12.09,16.85a13.33,13.33,0,0,0,.08,1.41C265.84,912.22,269.83,906.69,277.27,902.4Z"/><polygon fill="#e19100" points="326.79 910.37 330.7 908.11 330.7 905.29 326.79 907.54 326.79 910.37"/><path fill="#ffe54c" d="M308.78,915.08a3.32,3.32,0,0,1,0-6.29,12.05,12.05,0,0,1,10.91,0c3,1.73,3,4.56,0,6.29l4.94,2.86c4.88-2.82,5.59-7.13,2.16-10.4l3.91-2.25-4.95-2.86-3.9,2.25c-5.65-2-13.13-1.56-18,1.26-2.78,1.6-4.31,3.73-4.31,6s1.53,4.4,4.31,6c3,1.74,3,4.56,0,6.29a12,12,0,0,1-10.9,0c-3-1.73-3-4.55,0-6.29L288,915.08c-4.88,2.82-5.59,7.14-2.17,10.4l-3.59,2.08,4.94,2.86,3.6-2.08c5.65,2,13.13,1.57,18-1.25C314.52,923.78,314.52,918.39,308.78,915.08Z"/><polygon fill="#fcba06" points="282.23 930.38 287.17 933.24 287.17 930.42 282.23 927.56 282.23 930.38"/><polygon fill="#e19100" points="287.17 933.24 290.77 931.16 290.77 928.34 287.17 930.42 287.17 933.24"/><polygon fill="#fcba06" points="319.69 917.91 324.63 920.76 324.63 917.94 319.69 915.08 319.69 917.91"/><path fill="#e19100" d="M292.94,920.76v-2.82c-2.14,1.23-2.75,3-1.85,4.56A4.82,4.82,0,0,1,292.94,920.76Z"/><path fill="#fcba06" d="M283.7,921v3.18h0a5.42,5.42,0,0,0,.62,2.23l1.49-.87a6.06,6.06,0,0,1-2.11-4.53Z"/><path fill="#fcba06" d="M303.84,920.76a5,5,0,0,1,1.85,1.74c.89-1.55.28-3.33-1.85-4.56-2.78-1.6-4.31-3.74-4.31-6v2.82C299.53,917,301.06,919.16,303.84,920.76Z"/><path fill="#fcba06" d="M313.08,921.07V921h0Z"/><path fill="#e19100" d="M328.91,911.93c0,2.18-1.41,4.36-4.28,6v2.82c2.95-1.69,4.36-3.93,4.28-6.17v-2.66Z"/><path fill="url(#Y)" d="M308.78,927.09c-4.88,2.82-12.36,3.23-18,1.25v2.82c5.65,2,13.13,1.57,18-1.25,2.85-1.64,4.28-3.79,4.3-5.95h0V921.1C313.08,923.27,311.64,925.44,308.78,927.09Z"/><path fill="#e19100" d="M319.69,908.79a12.05,12.05,0,0,0-10.91,0,3.85,3.85,0,0,0-2.26,3.15,2.8,2.8,0,0,0,.41,1.41,5,5,0,0,1,1.85-1.73,12.08,12.08,0,0,1,10.91,0,5,5,0,0,1,1.85,1.74C322.43,911.8,321.82,910,319.69,908.79Z"/><path d="M1285.39,860.4a5.09,5.09,0,0,1,1.77-1.16H1295l3.26-7.15-2.94-.46a8,8,0,0,1-2.75-.91,2.8,2.8,0,0,1-1.64-2.42,18.08,18.08,0,0,0,0-2.85c-.06-2,2.43-3,4.33-3.33l3-.46-3.34-7.14H1287a4.61,4.61,0,0,1-.74-.36,4.34,4.34,0,0,1-1-.81,31.88,31.88,0,0,0-2.47-2.46c-1.82-1.76-.52-3.35.87-4.16l2.14-1.24-9-5.23-2.15,1.24a8.88,8.88,0,0,1-7.16.52c-1.4-.51-2.82-1-4.28-1.42a7.08,7.08,0,0,1-1.4-.61c-1.73-1-1.82-2.34-1.41-3.24l.78-1.71-12.35-1.91-.78,1.7c-.5,1.1-2.21,2.56-5.74,2.53-1.64,0-3.28,0-4.91,0a8.16,8.16,0,0,1-4.19-.94,3.85,3.85,0,0,1-1.59-1.58l-.79-1.71-12.33,1.92.8,1.7c.52,1.1.29,2.85-2.77,3.85-1.45.43-2.87.91-4.26,1.43a9,9,0,0,1-7.16-.52l-2.17-1.25-9,5.23,2.17,1.24c1.39.81,2.71,2.4.92,4.16a29.89,29.89,0,0,0-2.45,2.46c-1.71,1.78-4.73,1.92-6.63,1.63l-3-.46-3.26,7.14,2.94.46a8.25,8.25,0,0,1,2.75.91,2.81,2.81,0,0,1,1.64,2.42,18.08,18.08,0,0,0,0,2.85,2.4,2.4,0,0,1-.82,1.84h-20.12v9.1h24.81a5,5,0,0,1,.74.35,5.08,5.08,0,0,1,1.05.81,32.14,32.14,0,0,0,2.48,2.47,3.14,3.14,0,0,1,.71,1h-11.69v9.65h17.68v-.4l1.48-.85a8.9,8.9,0,0,1,7.17-.52l1.64.58v8.31h17l.78-1.7a2.93,2.93,0,0,1,.21-.38v2.08h17l12.32-1.91-.8-1.71c-.46-1-.32-2.48,1.91-3.5H1277l9-5.23-2.16-1.25c-1.4-.81-2.72-2.4-.93-4.15A31.63,31.63,0,0,0,1285.39,860.4Zm-29-4c-9.06,5.27-23.81,5.27-32.94,0s-9.17-13.81-.11-19.08,23.82-5.27,33,0S1265.46,851.1,1256.39,856.37Z" style="mix-blend-mode:multiply" fill="url(#Z)"/><path fill="url(#m)" d="M1239.18,822c-9.06-5.24-23.71-5.24-32.72,0-8,4.65-8.85,11.89-2.55,17.11a18.7,18.7,0,0,1,2.55-1.76c9-5.24,23.66-5.24,32.72,0a19.55,19.55,0,0,1,2.65,1.83C1248.17,834,1247.28,826.68,1239.18,822Z"/><path fill="#bbbfe2" d="M1243.36,801.35a2.25,2.25,0,0,0-.2.91l0,15.4a2.09,2.09,0,0,1,.2-.91l.78-1.71,0-15.39Z"/><path fill="#bbbfe2" d="M1202.27,801.35l-.8-1.7,0,15.4.8,1.7a2.28,2.28,0,0,1,.21,1l0-15.4A2.29,2.29,0,0,0,1202.27,801.35Z"/><path fill="#bbbfe2" d="M1266.67,811.34a3.09,3.09,0,0,0-1.76,2.38l0,15.4a3.1,3.1,0,0,1,1.76-2.39l2.15-1.24,0-15.4Z"/><path fill="#ced2f4" d="M1179.07,811.34l-2.16-1.25,0,15.4,2.16,1.24a3.14,3.14,0,0,1,1.79,2.42l0-15.4A3.07,3.07,0,0,0,1179.07,811.34Z"/><path fill="#bbbfe2" d="M1278.27,826.72c-1.87.29-4.33,1.27-4.33,3.25l0,15.4c0-2,2.46-3,4.33-3.25l3-.46,0-15.4Z"/><path fill="#242d3c" d="M1274,831.6l0,15.4c0,.43,0,.87,0,1.3l0-15.4C1274,832.47,1274,832,1274,831.6Z"/><path fill="#ced2f4" d="M1172,832.6v-2.55a2.81,2.81,0,0,0-1.64-2.42,8.25,8.25,0,0,0-2.75-.91l-3-.46,0,15.4,2.95.46a8.32,8.32,0,0,1,2.75.91,3,3,0,0,1,1.59,2v1.8c0,.51,0,1,.06,1.52l0-15.4C1172,832.8,1172,832.7,1172,832.6Z"/><path fill="#242d3c" d="M1172,833l0,15.4v-.08l0-15.4Z"/><polygon fill="#bbbfe2" points="1281.28 836.69 1281.23 852.09 1277.97 859.24 1278.01 843.84 1281.28 836.69"/><polygon fill="#ced2f4" points="1168.1 843.84 1168.06 859.24 1164.71 852.09 1164.76 836.69 1168.1 843.84"/><path fill="url(#aa)" d="M1275.06,843.38c-1.9-.3-4.93-.16-6.64,1.62a31.46,31.46,0,0,1-2.44,2.47,2.43,2.43,0,0,0-.87,1.73l0,15.4a2.42,2.42,0,0,1,.86-1.73,30,30,0,0,0,2.45-2.47c1.71-1.78,4.74-1.92,6.64-1.62l3,.46,0-15.4Z"/><path fill="url(#ab)" d="M1180.17,847.47a32.14,32.14,0,0,1-2.48-2.47,4.6,4.6,0,0,0-1-.81,9.09,9.09,0,0,0-5.6-.81l-2.94.46,0,15.4,2.93-.46a9.12,9.12,0,0,1,5.61.81,4.83,4.83,0,0,1,1.05.81,32.14,32.14,0,0,0,2.48,2.47,2.45,2.45,0,0,1,.89,1.76l0-15.4A2.46,2.46,0,0,0,1180.17,847.47Z"/><polygon fill="#bbbfe2" points="1269.06 852.87 1269.02 868.27 1260.02 873.5 1260.06 858.1 1269.06 852.87"/><polygon fill="#ced2f4" points="1186.21 858.1 1186.16 873.5 1177.11 868.27 1177.15 852.87 1186.21 858.1"/><path fill="url(#ac)" d="M1257.9,856.84a9,9,0,0,0-7.17-.51c-1.38.52-2.8,1-4.25,1.43-2.28.74-3,1.9-3,2.89l0,15.4c0-1,.72-2.15,3-2.89,1.45-.44,2.87-.91,4.26-1.43a8.94,8.94,0,0,1,7.16.51l2.17,1.26,0-15.4Z"/><path fill="url(#ad)" d="M1201.19,858.36a7.44,7.44,0,0,0-1.4-.6c-1.46-.44-2.88-.91-4.27-1.43a8.87,8.87,0,0,0-7.16.52l-2.15,1.25,0,15.4,2.15-1.25a8.9,8.9,0,0,1,7.17-.52c1.39.51,2.81,1,4.26,1.42a7.53,7.53,0,0,1,1.41.61,2.74,2.74,0,0,1,1.62,2.33l0-15.4A2.7,2.7,0,0,0,1201.19,858.36Z"/><polygon fill="#bbbfe2" points="1244.5 863.31 1244.46 878.71 1232.13 880.62 1232.18 865.23 1244.5 863.31"/><path fill="url(#ae)" d="M1231.38,863.52a3.77,3.77,0,0,0-1.58-1.59,8.14,8.14,0,0,0-4.2-.93c-1.63,0-3.27,0-4.91,0-3.52,0-5.23,1.43-5.74,2.53l-.78,1.7,0,15.4.78-1.7c.51-1.1,2.22-2.55,5.74-2.53,1.64,0,3.28,0,4.91,0a8.16,8.16,0,0,1,4.19.94,3.71,3.71,0,0,1,1.58,1.59l.8,1.7,0-15.4Z"/><path fill="#f0f0f5" d="M1266.9,851.62l2.16,1.25-9,5.23-2.16-1.26a9,9,0,0,0-7.17-.51c-1.38.52-2.8,1-4.25,1.43-3.07,1-3.29,2.75-2.78,3.85l.8,1.7-12.32,1.91-.8-1.7a3.77,3.77,0,0,0-1.58-1.59,8.14,8.14,0,0,0-4.2-.93c-1.63,0-3.27,0-4.91,0-3.52,0-5.23,1.43-5.74,2.53l-.78,1.7-12.34-1.91.78-1.71c.41-.9.32-2.23-1.42-3.24a7.44,7.44,0,0,0-1.4-.6c-1.46-.44-2.88-.91-4.27-1.43a8.87,8.87,0,0,0-7.16.52l-2.15,1.25-9.06-5.23,2.15-1.25c1.38-.81,2.69-2.4.87-4.15a32.14,32.14,0,0,1-2.48-2.47,4.6,4.6,0,0,0-1-.81,9.09,9.09,0,0,0-5.6-.81l-2.94.46-3.34-7.15,2.94-.45c1.9-.3,4.39-1.3,4.33-3.34a18.08,18.08,0,0,1,0-2.85,2.81,2.81,0,0,0-1.64-2.42,8.25,8.25,0,0,0-2.75-.91l-3-.46,3.27-7.14,3,.46c1.9.29,4.92.15,6.63-1.62a29.82,29.82,0,0,1,2.44-2.47c1.8-1.76.48-3.35-.92-4.15l-2.16-1.25,9-5.23,2.17,1.25a9,9,0,0,0,7.16.52c1.39-.52,2.81-1,4.26-1.43,3.06-1,3.29-2.75,2.77-3.85l-.8-1.7,12.33-1.92.79,1.71a3.81,3.81,0,0,0,1.58,1.58,8.23,8.23,0,0,0,4.2.94c1.63,0,3.27,0,4.91,0,3.52,0,5.24-1.42,5.74-2.53l.78-1.7,12.34,1.92-.78,1.7c-.41.9-.32,2.24,1.42,3.25a7.44,7.44,0,0,0,1.4.6c1.45.43,2.88.91,4.27,1.43a9,9,0,0,0,7.16-.52l2.15-1.25,9.06,5.23-2.15,1.25c-1.38.8-2.69,2.39-.87,4.15a30.29,30.29,0,0,1,2.47,2.47,5,5,0,0,0,1,.8,9.07,9.07,0,0,0,5.61.82l2.94-.46,3.35,7.14-3,.46c-1.9.3-4.39,1.3-4.33,3.34a19.23,19.23,0,0,1,0,2.84,2.77,2.77,0,0,0,1.63,2.42,8.1,8.1,0,0,0,2.75.91l3,.46-3.27,7.15-3-.46c-1.9-.3-4.93-.16-6.64,1.62a31.46,31.46,0,0,1-2.44,2.47C1264.18,849.22,1265.5,850.81,1266.9,851.62ZM1206.49,841c9.12,5.27,23.88,5.27,32.94,0s9-13.81-.11-19.08-23.87-5.27-32.94,0-9,13.82.11,19.08Z"/><polygon fill="#ced2f4" points="1214.17 865.23 1214.13 880.62 1201.79 878.71 1201.83 863.31 1214.17 865.23"/><path fill="#e0e0eb" d="M1246,819.29c-12.84-7.42-33.6-7.42-46.37,0-6.07,3.53-9.24,8.11-9.5,12.74.25,4.68,3.46,9.33,9.65,12.9,12.85,7.42,33.61,7.41,46.37,0,6.08-3.53,9.24-8.11,9.51-12.74C1255.39,827.5,1252.17,822.86,1246,819.29Zm-6.7,21.68c-9,5.23-23.65,5.24-32.71,0-4.29-2.47-6.55-5.68-6.8-8.92.25-3.2,2.48-6.36,6.69-8.81,9-5.23,23.66-5.23,32.72,0,4.29,2.48,6.55,5.68,6.8,8.92C1245.72,835.37,1243.49,838.52,1239.28,841Z"/><path fill="url(#af)" d="M1199.61,819.29c12.77-7.42,33.53-7.42,46.37,0,6.19,3.57,9.4,8.21,9.66,12.89.29-5.09-2.92-10.24-9.66-14.13-12.84-7.41-33.6-7.42-46.37,0-6.61,3.84-9.77,8.93-9.5,14C1190.38,827.39,1193.54,822.82,1199.61,819.29Z"/><polygon points="728.55 626.28 685.86 626.28 678.86 647.25 764.86 647.25 728.55 626.28" style="mix-blend-mode:multiply" fill="url(#n)"/><path fill="url(#o)" d="M665.07,640.13c0-18.14,11.49-18.66,11.49-18.66s6.23,0,16.34-4.2,24-2.55,16.18,12a5.31,5.31,0,0,1-.27.53,7,7,0,0,1-2.55,2.23l-25.12,14.73C677.31,648.91,665.15,643.86,665.07,640.13Z"/><path fill="#131147" d="M665.14,638.5c.21,3.73,12.21,8.68,16,6.51l25.12-14.72a24.23,24.23,0,0,0,3.53-2.58c-.22.49-.42,1-.71,1.52a5.31,5.31,0,0,1-.27.53,7,7,0,0,1-2.55,2.23l-25.12,14.73c-3.58,2-14.48-2.26-15.92-5.87a4.92,4.92,0,0,1-.11-.74A12.33,12.33,0,0,1,665.14,638.5Z"/><polygon points="843.37 597.7 800.69 597.7 793.68 618.66 879.69 618.66 843.37 597.7" style="mix-blend-mode:multiply" fill="url(#ag)"/><path fill="url(#ah)" d="M779.9,611.54c0-18.14,11.49-18.66,11.49-18.66s6.22,0,16.33-4.2,24-2.54,16.18,12a5.16,5.16,0,0,1-.26.53,7.16,7.16,0,0,1-2.56,2.24L796,618.14C792.14,620.32,780,615.27,779.9,611.54Z"/><path fill="#131147" d="M780,609.91c.22,3.73,12.21,8.68,16,6.51l25.11-14.72a23.7,23.7,0,0,0,3.54-2.58c-.22.49-.43,1-.72,1.52a5.16,5.16,0,0,1-.26.53,7.16,7.16,0,0,1-2.56,2.24L796,618.14c-3.58,2-14.48-2.27-15.92-5.88a3.81,3.81,0,0,1-.11-.73A14.53,14.53,0,0,1,780,609.91Z"/><path fill="#facfa7" d="M670.17,617.49c3.24,0,14.62,2.89,14.62,2.89a6.31,6.31,0,0,0,1,3,3.12,3.12,0,0,1,.32.4c2.25,1.55,4.53,4-.8,7.36-4.36,2.74-7.9,1-9.59-.68a8.78,8.78,0,0,0-3.09-3.51,8,8,0,0,0-3-1.25,2.33,2.33,0,0,0,0-.27S668.82,617.49,670.17,617.49Z"/><path fill="#20196f" d="M670,423.78c12.41.22,37.33.77,49.73,1-4.62,37.29-7.83,71.14-14,107.26C699,567.12,691.51,591.79,685,621c-2.4,5.45-13.37,3.38-15.59-1.84-1.74-26.9-1.54-59.68,6.44-90.71C674.48,495,669.18,457.55,670,423.78Z"/><path fill="#facfa7" d="M784.88,589.4c3.22,0,14.62,2.89,14.62,2.89a6.44,6.44,0,0,0,1,3l.31.38c2.25,1.56,4.54,4-.79,7.38-4.36,2.75-7.9,1-9.59-.68a8.8,8.8,0,0,0-3.1-3.51,7.92,7.92,0,0,0-3-1.25,1.17,1.17,0,0,0,0-.27S783.53,589.4,784.88,589.4Z"/><path fill="url(#ai)" d="M744.85,451.79c-12.27,1.8-63.19-22.2-75.46-20.39-2.57,72,84.12,69.77,110.41,76.44-2.15,16.15-1.49,60.51,4.3,85.48,3.06,4.79,14.22,5,15.69-.72,1.69-29.9,11.53-55.48,10-91.16C809,481.77,776.9,465.15,744.85,451.79Z"/><path fill="url(#aj)" d="M681.1,245.74h0c-12.33,7.46-19.1.36-20.32-3.31-4.87-9.16,4.55,78.29,8.55,87.55s20.87-21.21,20.87-21.21S682.49,236.54,681.1,245.74Z"/><path fill="url(#ak)" d="M742.35,360a39.83,39.83,0,0,0-1.81-8.19c14.41-15.11,35-45.23,29.08-43.7-13.23-1-14.76-9-16.11-12.1h0c0-3.5-12.29,12.74-20.39,22.44a8,8,0,0,1-9.21,2.32,31.72,31.72,0,0,1-7.69-4.57C707.06,309,702.11,304.91,697.7,304c-36.36-7.42-31.65,56.62-28.61,125.67,2.81,18.38,6.72,20.31,13.42,24.25,16.23,8.67,52.86,16.2,62.34-2.14-6.64-16.41-12.34-40.81-12.78-58.69C731.79,381.76,739.69,372.73,742.35,360Z"/><path fill="#20196f" d="M731.26,270.25c-2.16-11.15-14-28.72-33.77-24.45-19.15,4.12-24.35,16.55-23.24,35.84.76,13.27-4.72,52.07-34.57,54.13C655.65,357.34,746.42,348.64,731.26,270.25Z"/><path fill="#facfa7" d="M671.72,177.46c0-.56-.08-1.16-.16-1.87-1.14-9.82-4.77-15.46-3.35-26.24s-2.52-15-4.91-13.49c-5.32,2.61-6.17,13.74-5.83,17.79.29,3.5.7,11.58.8,18.08v.05c.08,3.4.86,35.84,2.5,70.65,1.22,3.67,8,10.77,20.32,3.31C676.88,216.22,672.6,185.73,671.72,177.46Z"/><path fill="#facfa7" d="M808.32,207.45a10.48,10.48,0,0,0-8.53,2.76c-2.24,2-6.51,16.46-6.51,16.46s3.43-15.12-.49-10-3.4,21.26-5.09,25l-2.53,5.61C779.65,261,766.34,280,753.51,296h0c1.35,3.12,2.88,11.14,16.11,12.1,15.1-27,26.83-54.31,28.66-60.18,0,0,7-12.7,9.67-18.61C812.31,219.67,811.41,207.92,808.32,207.45Z"/><path d="M725.67,399.77c5,9.73,10.41,47.47,9.93,60.43a18.6,18.6,0,0,0,9.25-8.41c-6.64-16.41-12.34-40.81-12.78-58.69-.28-11.34,7.62-20.37,10.28-33.08a39.83,39.83,0,0,0-1.81-8.19c-5.69,5.69-10.66,10.7-12.34,15.7S720.67,390,725.67,399.77Z" style="mix-blend-mode:multiply" fill="url(#al)"/><path fill="#ced3f8" d="M793.7,97.09C795,94.6,803,86.71,803,86.71c4.37,3.32,11.84,19.51-2.07,32.6C803,112,798.58,102,793.7,97.09Z"/><path fill="#ed9f00" d="M494.52,308.37c3.58,5.1,14.19,15,5.25,25.94,3,.87,10.79,4.79,10.79,4.79,6.73-6,15.25-21.3,0-39.83C504.38,302.53,494.52,308.37,494.52,308.37Z"/><path fill="#5652cc" d="M584.92,283.53c.93-5.76,1.09-21.65,17-22.74-.47-1.71-4.15-5.4-4.15-5.4-9.55.42-22.48,5.4-22.32,24.72A70.7,70.7,0,0,0,584.92,283.53Z"/><path fill="#807dfb" d="M737.07,150.4c-2.18,2.18-7.94,11-24.45,14.79,2,4.67,9.35,16.51,9.35,16.51,4.67-2,19.62-18.69,21.8-24.45C741.59,154.64,737.07,150.4,737.07,150.4Z"/><path fill="#5652cc" d="M892.32,191.12c2.49-2.65,11.56-12,14-25.07,5.91,1.09,10.74,4.67,8.87,10.74-1.76,5.73-5.91,15.42-5.91,15.42C905.32,191.82,901,193.14,892.32,191.12Z"/><path fill="#ffd03e" d="M795.9,354.64l7.41-.83c.19,3.53-.23,11.42,13,16.3-4,3.43-14.06,7.79-14.06,7.79C798.31,373.54,795.9,363.37,795.9,354.64Z"/><path fill="#807dfb" d="M850.26,310.22l-2.78-2.17c.84-1.07,1.82-2.29,2.84-3.57,1.52-1.88,3.17-3.93,4.59-5.81l-.51-.09c-2.69-.49-6.38-1.15-4.8-5.44.9-2.43,3.16-5.13,6.27-8.69l.08-.09-4.64-3.61a1.52,1.52,0,0,1-.43-1.51,4.42,4.42,0,0,1,1-2.07c1.82-2.24,3.67-4.64,5.46-7l.86-1.12L858,269a23.49,23.49,0,0,1-3.33-2.69c-2.3-2.35,0-5.48,1.71-7.77l.2-.27a37.78,37.78,0,0,1,2.45-2.91c.44-.48,1.06-1.16,1.4-1.61l-.21-.18c-1.05-.76-2.06-1.57-3.07-2.37-.5-.41-1-.81-1.51-1.2a1.53,1.53,0,0,1-.44-1.47,4.45,4.45,0,0,1,.93-2l8.28-10.62,2.78,2.17-6.42,8.22.15.12c1,.79,2,1.58,3,2.32a3.14,3.14,0,0,1,1.22,3.37c-.42,2.27-2.23,4.27-3.83,6-.64.71-1.31,1.45-1.78,2.09l-.2.28c-.27.35-.58.77-.8,1.09l.1.11a22.8,22.8,0,0,0,3,2.44c.57.41,1.14.81,1.68,1.24.77.6.55,2.16-.48,3.49q-1.36,1.74-2.72,3.51c-1.2,1.56-2.42,3.15-3.66,4.72l1.86,1.45,2,1.54c1.07.84,2.17,1.71.51,4l-.13.17c-.64.82-1.5,1.8-2.41,2.85a52.8,52.8,0,0,0-4.28,5.32,9.16,9.16,0,0,0,3.19,1,7.21,7.21,0,0,1,3.18,1c.68.56.55,1.92-.3,3.18-1.88,2.77-4.63,6.2-7.06,9.22C852,308,851.07,309.18,850.26,310.22Z"/><path fill="#ced3f8" d="M615,418.43l-3-1.86c.62-1,1.29-2,2-3a64.41,64.41,0,0,0,3.41-5.57,3.4,3.4,0,0,0,.15-.33,4.41,4.41,0,0,0-1.46-.7,5.36,5.36,0,0,1-2.6-1.51c-2.15-2.68.8-7.32,2.23-9.54.18-.3.37-.59.55-.88s.43-.67.71-1.08.84-1.24,1.13-1.77a4.5,4.5,0,0,0-.43-.23c-.21-.1-.41-.21-.61-.33a9.8,9.8,0,0,0-.92-.48,6.3,6.3,0,0,1-2.37-1.64,5.37,5.37,0,0,1-1-4.84c.66-2.86,2.78-5.22,4.64-7.3a26.78,26.78,0,0,0,2.67-3.28l3,1.86a34.25,34.25,0,0,1-3.74,4.72,17.14,17.14,0,0,0-2.35,3s-.07.44.51,1.18a4.93,4.93,0,0,0,1.64,1,11.5,11.5,0,0,1,1.11.59l.44.23a3,3,0,0,1,1.87,3.42c-.21,2.14-1.73,4.41-2.84,6.06-.19.28-.37.53-.49.74l-.63,1a14.77,14.77,0,0,0-1.51,2.68,1,1,0,0,0,.11.18,3.85,3.85,0,0,0,1.65.84c1.47.51,4.92,1.7,1.92,7.53a69.21,69.21,0,0,1-4,6.53C616.16,416.56,615.54,417.5,615,418.43Zm3.25-26.63Z"/><path fill="#807dfb" d="M602.71,138.69a72,72,0,0,1-3.93-6.56c-3-5.85.48-7,2-7.52a4.08,4.08,0,0,0,1.66-.83.45.45,0,0,0,.1-.18,14.81,14.81,0,0,0-1.49-2.69c-.21-.33-.42-.66-.62-1s-.3-.47-.49-.75c-1.1-1.65-2.61-3.93-2.8-6.07a3,3,0,0,1,1.88-3.41,3.68,3.68,0,0,0,.44-.23,11.69,11.69,0,0,1,1.12-.58,4.92,4.92,0,0,0,1.64-1c.59-.74.52-1.18.52-1.18a17.36,17.36,0,0,0-2.33-3,33.35,33.35,0,0,1-3.72-4.75l3-1.84a26.44,26.44,0,0,0,2.64,3.3c1.86,2.09,4,4.46,4.61,7.32a5.44,5.44,0,0,1-1,4.84,6.31,6.31,0,0,1-2.38,1.63,9,9,0,0,0-.93.47c-.19.12-.4.23-.6.33a4.64,4.64,0,0,0-.44.23c.29.53.83,1.34,1.12,1.78s.52.77.71,1.08.36.58.54.87c1.41,2.24,4.35,6.89,2.18,9.56a5.37,5.37,0,0,1-2.61,1.5,4.47,4.47,0,0,0-1.47.68c0,.08.08.18.15.34.91,1.77,2.16,3.71,3.38,5.59.67,1,1.33,2,1.94,3l-3,1.84C603.94,140.58,603.33,139.64,602.71,138.69Zm-1.3-23.83Z"/><path fill="#ed9f00" d="M936.24,273.56a15.67,15.67,0,0,1,7.1-12.29c3.92-2.26,7.09-.43,7.09,4.1a15.66,15.66,0,0,1-7.09,12.28C939.42,279.92,936.24,278.08,936.24,273.56Z"/><path fill="#ffd03e" d="M518.62,204.66a15.72,15.72,0,0,1,7.09-12.29c3.92-2.26,7.1-.42,7.1,4.1a15.7,15.7,0,0,1-7.1,12.29C521.8,211,518.62,209.18,518.62,204.66Z"/><path fill="#dae0f5" d="M502.66,461.55l-50.05,28.9a13.62,13.62,0,0,0-6.17,10.69v32.39c0,3.94,2.76,5.53,6.17,3.57L483.91,519l15.75,3.75s-2.91-6.52-4.34-10.34l7.34-4.23a13.63,13.63,0,0,0,6.17-10.69v-32.4C508.83,461.18,506.07,459.58,502.66,461.55Z"/><path fill="#807dfb" d="M466.28,506.76A6.08,6.08,0,0,1,469,502c1.51-.88,2.74-.17,2.74,1.59a6.06,6.06,0,0,1-2.74,4.75C467.51,509.22,466.28,508.51,466.28,506.76Z"/><path fill="#807dfb" d="M476.41,500.91a6.08,6.08,0,0,1,2.75-4.76c1.51-.88,2.74-.16,2.74,1.59a6.1,6.1,0,0,1-2.74,4.76C477.64,503.37,476.41,502.66,476.41,500.91Z"/><path fill="#807dfb" d="M486.54,495.06a6.08,6.08,0,0,1,2.75-4.76c1.51-.87,2.74-.16,2.74,1.59a6.1,6.1,0,0,1-2.74,4.76C487.77,497.52,486.54,496.81,486.54,495.06Z"/><path fill="#ffd03e" d="M973.55,353.36l50.05,28.9a13.62,13.62,0,0,1,6.17,10.68v32.4c0,3.94-2.76,5.53-6.17,3.57l-31.31-18.08-15.74,3.75s2.91-6.53,4.33-10.34L973.55,400a13.63,13.63,0,0,1-6.17-10.69v-32.4C967.38,353,970.14,351.39,973.55,353.36Z"/><path fill="#fff" d="M999.8,403.89a6.08,6.08,0,0,0-2.75-4.76c-1.52-.88-2.75-.17-2.75,1.59a6.08,6.08,0,0,0,2.75,4.76C998.57,406.35,999.8,405.64,999.8,403.89Z"/><polygon fill="#fff" points="999.23 396.62 994.87 394.1 994.87 374.11 999.23 376.63 999.23 396.62"/><polygon points="822.32 1073.63 705.33 1073.7 684.56 1089.82 676.35 1097.35 694.57 1097.4 700.72 1113.05 822.32 1112.98 822.32 1073.63" style="mix-blend-mode:multiply" fill="url(#am)"/><path fill="url(#q)" d="M662.66,1090.66c0-17.16,10.88-17.66,10.88-17.66s5.89,0,15.46-4,22.73-2.42,15.3,11.3a4.92,4.92,0,0,1-.26.51,6.51,6.51,0,0,1-2.41,2.11l-23.76,13.94C674.25,1099,662.74,1094.19,662.66,1090.66Z"/><path fill="#1e1c6b" d="M662.73,1089.12c.2,3.52,11.56,8.21,15.14,6.16l23.76-13.93a22.75,22.75,0,0,0,3.35-2.44c-.22.47-.41.92-.68,1.43a4.92,4.92,0,0,1-.26.51,6.51,6.51,0,0,1-2.41,2.11l-23.76,13.94c-3.39,1.94-13.7-2.13-15.06-5.56a4.05,4.05,0,0,1-.1-.7A11,11,0,0,1,662.73,1089.12Z"/><path fill="#facfa7" d="M686.79,904.39c-10.38,1.53-37.27,33.5-34.4,47.06,2.81,13.28,8.53,26.36,12.16,43.91-4.23,28.64,2.07,57.68,2.07,82.21a19.84,19.84,0,0,1,2.6,1.33,7.64,7.64,0,0,1,2.68,3c1.46,1.45,4.52,3,8.3.59,4.62-2.9,2.64-5,.69-6.39-.09-.12-.17-.22-.27-.33a5.2,5.2,0,0,1-.79-2c1.43-25.28,4.29-46.89,5-77.1C685,965.7,688.08,936.16,686.79,904.39Z"/><path fill="#fff" d="M688.14,1070.41a9.15,9.15,0,0,1,4.08,4,1.23,1.23,0,1,0,2.23-1.06,11.63,11.63,0,0,0-5.35-5.18,1.23,1.23,0,0,0-1,2.27Z"/><path fill="#fff" d="M682.93,1072.51a9.15,9.15,0,0,1,4.08,4,1.23,1.23,0,0,0,2.23-1,11.54,11.54,0,0,0-5.34-5.19,1.23,1.23,0,0,0-1,2.27Z"/><path fill="url(#an)" d="M690.23,1106.55c0-17.16,10.88-17.66,10.88-17.66s5.89,0,15.46-4,22.74-2.41,15.3,11.3a3.51,3.51,0,0,1-.26.51,6.51,6.51,0,0,1-2.41,2.11l-23.76,13.94C701.83,1114.87,690.32,1110.08,690.23,1106.55Z"/><path fill="#1e1c6b" d="M690.3,1105c.21,3.52,11.56,8.21,15.14,6.16l23.76-13.93a21.55,21.55,0,0,0,3.36-2.44c-.23.47-.42.92-.69,1.43a3.51,3.51,0,0,1-.26.51,6.51,6.51,0,0,1-2.41,2.11l-23.76,13.94c-3.38,1.94-13.69-2.13-15.05-5.56a3.34,3.34,0,0,1-.11-.7A11,11,0,0,1,690.3,1105Z"/><path fill="#facfa7" d="M714.36,920.28C704,921.81,674.07,905,663.68,906.54c-2.17,53.33,13.41,47.24,16.29,60.8,2.81,13.29,8.53,26.36,12.16,43.92-4.23,28.63,2.06,57.67,2.06,82.2a19.84,19.84,0,0,1,2.6,1.33,7.56,7.56,0,0,1,2.68,3c1.46,1.45,4.53,3,8.31.59,4.61-2.9,2.63-5,.69-6.39l-.28-.33a5.2,5.2,0,0,1-.79-2c1.43-25.28,4.29-46.89,5-77.1C712.59,981.6,715.66,952.05,714.36,920.28Z"/><path fill="#fff" d="M715.71,1086.3a9.21,9.21,0,0,1,4.09,4,1.23,1.23,0,0,0,1.64.59,1.25,1.25,0,0,0,.59-1.65,11.73,11.73,0,0,0-5.35-5.18,1.23,1.23,0,0,0-1,2.27Z"/><path fill="#fff" d="M710.51,1088.4a9.13,9.13,0,0,1,4.07,4,1.24,1.24,0,0,0,1.65.59,1.22,1.22,0,0,0,.58-1.64,11.5,11.5,0,0,0-5.34-5.19,1.24,1.24,0,0,0-1.62.66A1.23,1.23,0,0,0,710.51,1088.4Z"/><path fill="#facfa7" d="M668,762.44c-15,15-17.74,53.77-3.25,90.14,2.8,7,7.57-.34,7.57-.34L669.64,801Z"/><path fill="url(#ao)" d="M710.62,847.13c8.12-31.71,10.18-53.23,4.15-65.89-5.72-12-30.11-24.86-37.19-23.45-32.31,6.46-13.23,68.4-14.93,91.33-13,19.6-22.68,59.93-22.68,98.66-1.51,10.48,9.15,24,28,33.39,23.78,11.89,51.49,12.85,61.91,2.12a13.36,13.36,0,0,0,3.92-9C733.82,962,731.65,882.93,710.62,847.13Z"/><path fill="#fcd1a9" d="M675.07,765.15c3.32-4.67,3.25-13.87,2.53-21a35.4,35.4,0,0,1-1.54-12.41c.81-15.87,11.55-28.21,24-27.57s21.83,14,21,29.88a31.15,31.15,0,0,1-21.94,28.1c-.79,2.41,2.68,5.57,4.56,7.06-8.56,4.2-18.46.37-23.39-1.16C677.73,767.2,675.86,766.32,675.07,765.15Z"/><path fill="#facfa7" d="M759.88,878.6c-15-6.52-35.08-21.94-36.11-28.79-3.1-20.69-2.56-39.55-5.67-59.39-.81-5-4-10-11.19-9.48-5.78.44-9.63,5.14-8.88,12.63a27.51,27.51,0,0,0,.5,3.19c3,19.23,6.56,40.69,11.08,60.22,2.53,10.91,24.19,23.68,41.61,29.49,9.5,1.45,18.25-2.34,18.25-2.34Z"/><path fill="url(#ap)" d="M658.76,778.32c-2-7.93,3.68-11.86,9.4-19,9-11.27,2.27-8.58,4.37-27.29s14.64-34.1,34.55-30.71c10.1,1.71,18.3,16.38,10.39,29.64h0c-12.28,13.68-1.55,20.45-3.84,24.57-2.46,4.42-5.37.68-6.21,6.65S718,780.51,717,786.75c-4.64,9.79-12.33-10.77-16.17-.18-2.73,7.56,8.79,22.89-9.62,22s-21.46-5.39-16.35-11.57c3.86-4.67-13-1.55-6-10.82C673.4,780.14,660.57,785.3,658.76,778.32Z"/></g></svg>